<?xml version="1.0" standalone="no"?>
<!DOCTYPE svg PUBLIC "-//W3C//DTD SVG 20010904//EN"
 "http://www.w3.org/TR/2001/REC-SVG-20010904/DTD/svg10.dtd">
<svg version="1.0" xmlns="http://www.w3.org/2000/svg"
 width="1024.000000pt" height="1024.000000pt" viewBox="0 0 1024.000000 1024.000000"
 preserveAspectRatio="xMidYMid meet">

<g transform="translate(0.000000,1024.000000) scale(0.100000,-0.100000)"
fill="#000000" stroke="none">
<path d="M2 7613 c2 -1446 4 -2506 5 -2358 7 685 7 4985 1 4985 -5 0 -7 -1182
-6 -2627z"/>
<path d="M5330 9356 c0 -2 8 -10 18 -17 15 -13 16 -12 3 4 -13 16 -21 21 -21
13z"/>
<path d="M5217 9160 c-86 -55 -100 -77 -112 -171 -6 -50 -4 -58 19 -86 40 -48
100 -66 194 -61 62 4 86 10 112 28 80 57 79 194 -2 266 -26 24 -110 74 -124
74 -5 0 -44 -22 -87 -50z"/>
<path d="M4969 9153 c-13 -16 -12 -17 4 -4 16 13 21 21 13 21 -2 0 -10 -8 -17
-17z"/>
<path d="M4929 9123 c-13 -16 -12 -17 4 -4 9 7 17 15 17 17 0 8 -8 3 -21 -13z"/>
<path d="M4889 9093 c-13 -16 -12 -17 4 -4 9 7 17 15 17 17 0 8 -8 3 -21 -13z"/>
<path d="M3530 9080 c0 -5 5 -10 10 -10 6 0 10 5 10 10 0 6 -4 10 -10 10 -5 0
-10 -4 -10 -10z"/>
<path d="M5830 8996 c0 -2 8 -10 18 -17 15 -13 16 -12 3 4 -13 16 -21 21 -21
13z"/>
<path d="M4865 8917 c-79 -69 -265 -212 -518 -400 -125 -93 -181 -133 -477
-347 -198 -144 -331 -240 -385 -280 -73 -54 -497 -361 -635 -460 -65 -47 -206
-149 -312 -228 -323 -238 -454 -333 -571 -415 -62 -43 -150 -106 -197 -141
-113 -84 -306 -220 -405 -285 -93 -62 -126 -91 -119 -102 3 -5 29 -9 58 -9
116 0 216 -54 270 -146 l30 -51 166 125 c91 69 190 147 220 172 30 26 111 89
180 140 69 52 168 128 220 170 52 41 142 111 200 155 58 43 128 97 155 120 28
23 95 74 150 114 55 39 179 132 275 206 96 74 271 208 388 297 117 90 252 193
300 230 48 38 107 82 132 100 25 18 69 51 98 75 29 24 56 43 60 43 4 0 23 15
44 33 20 17 89 70 153 117 103 74 251 192 265 211 9 12 216 164 276 203 32 21
107 69 166 106 100 63 117 80 79 80 -8 0 -34 10 -59 21 -52 26 -89 77 -111
157 l-16 58 -80 -69z"/>
<path d="M9266 8978 c-61 -13 -220 -95 -231 -120 -7 -15 -19 -22 -43 -22 -17
-1 -32 3 -32 8 0 15 -74 -5 -115 -31 -22 -14 -55 -41 -72 -59 -18 -19 -35 -34
-38 -34 -3 0 -24 -17 -47 -37 -22 -21 -51 -48 -65 -60 -13 -13 -28 -23 -32
-23 -4 0 -19 -10 -32 -21 -37 -33 -177 -139 -183 -139 -8 0 -114 -83 -288
-225 -24 -20 -192 -135 -250 -172 -142 -90 -206 -134 -219 -150 -8 -10 9 -2
36 18 28 19 83 52 124 72 40 21 96 58 124 83 28 25 71 57 96 72 25 15 53 32
61 39 8 7 31 25 51 40 20 16 63 51 96 78 32 28 72 60 89 72 16 12 88 65 159
118 72 53 138 101 148 107 10 5 27 17 37 26 10 9 31 28 46 41 16 13 56 49 89
80 33 31 70 62 83 69 27 15 69 16 78 1 8 -14 -100 -117 -226 -216 -47 -37
-110 -88 -140 -114 -30 -25 -107 -84 -170 -131 -63 -46 -164 -129 -225 -183
-60 -54 -146 -125 -190 -158 -44 -34 -87 -68 -95 -77 -8 -9 -46 -41 -85 -72
-38 -31 -92 -79 -120 -108 -48 -49 -49 -52 -31 -66 11 -8 26 -14 34 -14 12 0
302 226 327 255 6 6 42 38 81 71 39 32 92 77 119 99 26 22 60 48 77 57 16 9
37 23 47 32 10 9 21 16 25 16 4 0 41 28 84 63 42 34 92 73 111 86 l33 24 -7
-24 c-12 -38 -51 -75 -195 -182 -74 -56 -180 -139 -235 -184 -148 -124 -152
-127 -250 -200 -103 -77 -170 -150 -154 -169 32 -39 80 -14 224 117 50 45 128
109 175 142 47 33 109 83 138 111 61 58 78 70 86 57 3 -4 -12 -27 -34 -50 -22
-23 -40 -45 -40 -49 0 -15 -87 -91 -162 -141 -94 -62 -278 -226 -278 -248 0
-5 13 -16 28 -25 28 -17 30 -16 80 17 28 19 54 35 58 35 4 0 16 8 26 17 15 14
21 15 27 4 7 -11 13 -11 32 -1 37 20 97 68 172 138 38 35 92 78 120 97 29 18
81 59 117 92 36 33 90 78 121 100 85 63 154 125 154 139 0 8 29 43 65 79 65
65 65 88 0 40 -19 -14 -36 -25 -39 -25 -9 1 73 70 82 70 4 0 20 8 35 19 15 10
77 51 137 91 61 40 117 78 125 86 8 7 48 41 89 76 75 64 139 141 140 168 1 13
0 13 -9 0 -5 -8 -10 -11 -10 -5 0 5 -5 4 -12 -3 -18 -18 -27 -15 -21 8 3 11 9
20 15 20 5 0 4 9 -2 20 -13 25 -32 25 -97 -3 -51 -21 -89 -48 -160 -114 -20
-18 -40 -33 -44 -33 -5 0 -9 -7 -9 -15 0 -17 -9 -19 -28 -6 -11 7 -9 16 10 45
12 20 31 38 41 42 9 3 17 11 17 17 1 7 21 28 46 47 26 19 64 50 86 68 22 17
44 32 49 32 5 0 9 6 9 13 0 8 9 22 20 32 25 22 27 50 3 41 -9 -4 -19 -3 -22 2
-3 5 -23 5 -45 0z m-58 -103 c0 -14 -6 -25 -13 -25 -7 0 -15 -7 -19 -15 -3 -8
-12 -15 -21 -15 -8 0 -15 -4 -15 -10 0 -16 -27 -11 -34 6 -10 26 -7 34 20 59
15 14 39 25 54 25 23 0 28 -4 28 -25z m78 -140 c-21 -19 -41 -33 -45 -32 -3 1
-21 -13 -40 -30 -39 -36 -76 -51 -62 -25 16 28 111 117 111 103 0 -9 4 -8 16
3 8 9 25 16 37 16 19 -1 17 -5 -17 -35z m31 -80 c-4 -8 -11 -15 -17 -15 -6 0
-6 7 2 20 14 22 24 19 15 -5z m-60 -51 c-3 -3 -12 -4 -19 -1 -8 3 -5 6 6 6 11
1 17 -2 13 -5z m-137 -111 c0 -13 -187 -133 -207 -133 -13 0 -8 9 21 33 22 17
56 47 75 64 20 18 41 33 46 33 6 0 3 -5 -5 -10 -8 -5 -10 -10 -4 -10 6 0 17 7
24 15 13 15 50 21 50 8z m-347 -255 c-47 -48 -97 -81 -119 -76 -13 3 -13 7 6
28 12 14 27 32 34 41 6 9 34 31 61 48 42 27 51 29 53 15 2 -9 -13 -34 -35 -56z
m-253 -217 c-36 -52 -111 -111 -139 -111 -24 1 -22 5 33 57 48 44 100 80 124
83 2 0 -6 -13 -18 -29z"/>
<path d="M5640 8919 c-13 -48 -65 -108 -131 -151 -27 -17 -49 -34 -49 -38 0
-11 53 -46 110 -73 30 -14 71 -36 90 -48 l35 -22 -22 21 c-26 25 -21 47 10 56
33 9 37 7 37 -9 0 -8 6 -16 13 -17 6 0 17 -2 22 -2 6 -1 21 -9 34 -18 13 -10
28 -15 33 -12 4 3 8 1 8 -4 0 -6 11 -13 25 -16 14 -4 38 -17 53 -31 59 -52 75
-65 82 -65 4 0 18 -10 31 -22 14 -13 49 -34 79 -48 29 -14 69 -41 89 -61 20
-20 63 -54 96 -74 33 -21 62 -41 65 -45 3 -4 16 -11 30 -15 25 -7 77 -42 153
-104 23 -18 65 -43 93 -56 28 -12 77 -43 110 -69 32 -25 111 -80 174 -122 63
-42 131 -87 150 -101 116 -82 284 -199 298 -208 8 -5 25 -18 38 -28 25 -21 37
-29 317 -220 111 -75 270 -184 352 -242 83 -57 157 -108 165 -112 8 -4 20 -11
25 -15 12 -11 297 -212 345 -244 19 -13 80 -56 135 -94 55 -39 125 -87 155
-108 30 -20 62 -42 70 -49 8 -7 48 -37 89 -68 l73 -56 37 14 c56 23 110 28
183 19 37 -5 65 -5 62 -1 -2 4 -143 100 -312 212 -169 113 -359 241 -422 285
-63 45 -180 126 -260 181 -80 55 -194 135 -255 177 -60 42 -175 122 -255 177
-80 55 -174 121 -210 145 -36 25 -141 98 -235 161 -93 64 -195 135 -225 157
-30 22 -161 115 -290 206 -129 91 -291 205 -360 253 -69 49 -219 155 -335 235
-115 81 -259 182 -318 226 -165 121 -257 184 -267 184 -5 0 -14 -18 -20 -41z"/>
<path d="M4654 8918 l-19 -23 23 19 c21 18 27 26 19 26 -2 0 -12 -10 -23 -22z"/>
<path d="M9603 8775 c-24 -14 -43 -22 -43 -20 0 3 -13 -7 -29 -22 -37 -36
-232 -188 -396 -310 -71 -53 -135 -102 -143 -109 -7 -8 -16 -14 -20 -15 -35
-4 -53 -16 -101 -66 -38 -39 -42 -44 -11 -16 25 23 62 49 83 58 32 13 146 95
324 235 261 204 325 245 355 229 34 -18 -4 -72 -71 -101 -24 -10 -41 -21 -38
-24 10 -10 90 38 139 84 38 35 48 52 46 71 -4 35 -41 38 -95 6z"/>
<path d="M4399 8723 c-13 -16 -12 -17 4 -4 9 7 17 15 17 17 0 8 -8 3 -21 -13z"/>
<path d="M5212 8660 c-41 -39 -167 -137 -280 -219 -114 -83 -229 -168 -257
-191 -27 -22 -88 -68 -134 -103 -46 -34 -138 -103 -205 -152 -67 -50 -173
-128 -236 -173 -63 -45 -137 -99 -165 -120 -27 -22 -140 -106 -250 -187 -389
-289 -505 -375 -965 -719 -256 -191 -544 -406 -640 -479 -96 -73 -231 -173
-300 -222 -69 -49 -174 -125 -235 -170 -120 -89 -234 -165 -248 -165 -19 0
-457 315 -457 329 0 4 14 15 31 25 17 10 28 20 26 23 -8 7 -39 -12 -66 -41
l-24 -25 14 -223 c20 -320 18 -379 -18 -478 -6 -17 -13 -75 -13 -105 0 -11 0
-35 0 -54 0 -19 7 -42 15 -51 9 -10 15 -24 14 -32 -3 -23 1 -42 7 -35 10 10
63 -21 60 -35 -1 -7 -9 -24 -19 -38 -13 -18 -14 -26 -4 -32 11 -7 3 -12 -16
-9 -4 0 -7 -4 -7 -9 0 -6 4 -10 9 -10 6 0 5 -15 -1 -36 -5 -20 -7 -42 -4 -50
3 -8 0 -14 -7 -14 -24 -1 127 -112 155 -114 4 -1 31 -22 60 -48 93 -82 101
-88 110 -88 5 0 42 -31 81 -69 82 -77 147 -120 88 -57 -50 52 -28 44 31 -11
27 -27 55 -48 62 -48 7 0 24 -8 37 -18 15 -12 18 -16 6 -13 -9 3 -17 1 -17 -4
0 -6 3 -10 8 -10 4 0 30 -21 57 -46 65 -60 157 -131 187 -144 33 -14 116 -75
163 -119 72 -67 203 -157 214 -146 3 4 -3 13 -14 21 -11 8 -27 20 -36 27 -15
12 -30 22 -79 54 -14 9 -38 32 -55 52 -24 30 -25 32 -4 14 14 -13 28 -23 32
-23 16 0 173 -118 207 -155 l25 -28 -33 17 c-17 9 -32 12 -32 7 0 -13 55 -42
64 -34 3 4 6 2 6 -4 0 -5 10 -21 23 -34 28 -30 147 -122 147 -114 0 4 7 0 15
-7 35 -32 45 -38 45 -29 0 5 -14 20 -31 33 -16 13 -47 38 -68 56 -21 17 -41
32 -43 32 -9 0 -80 71 -76 75 5 6 158 -107 237 -174 30 -25 63 -59 74 -76 10
-16 16 -22 13 -12 -9 27 53 -13 188 -120 61 -48 142 -109 181 -134 38 -26 106
-78 150 -116 44 -38 107 -86 140 -106 33 -21 47 -27 31 -15 -16 13 -74 60
-130 106 -55 45 -128 101 -161 124 -33 23 -109 80 -170 128 -60 48 -144 111
-185 140 -41 30 -123 92 -181 139 -59 47 -195 151 -304 231 -108 80 -260 193
-337 253 -137 104 -164 121 -155 95 2 -7 8 -13 13 -13 19 0 99 -71 102 -90 3
-17 -2 -14 -30 13 -19 18 -36 31 -39 29 -2 -2 -22 16 -43 40 -27 30 -33 42
-20 37 17 -5 18 -4 2 8 -9 7 -67 49 -129 93 -62 44 -136 101 -163 126 -28 25
-64 55 -80 67 -16 12 -25 22 -20 22 5 0 63 -41 129 -91 66 -50 152 -113 192
-139 39 -26 106 -75 150 -108 43 -34 182 -138 308 -232 127 -94 278 -208 336
-253 59 -45 196 -147 304 -227 344 -253 567 -418 670 -499 165 -129 438 -331
810 -601 194 -141 402 -301 636 -489 105 -84 175 -150 219 -205 25 -31 48 -56
52 -56 4 0 5 33 2 74 -8 91 -4 111 41 169 27 35 54 56 110 82 41 20 75 38 75
39 0 2 -17 15 -38 28 -21 14 -89 67 -152 118 -63 50 -164 128 -225 172 -100
72 -185 136 -533 405 -63 49 -142 107 -175 131 -34 24 -78 58 -97 77 -19 18
-76 60 -126 92 -50 32 -145 99 -210 148 -65 50 -128 97 -140 105 -107 74 -303
218 -276 205 20 -10 14 0 -20 31 -18 16 -26 21 -19 12 7 -10 11 -18 8 -18 -15
0 -231 164 -286 218 -60 58 -101 84 -70 45 13 -16 12 -17 -3 -4 -10 7 -15 17
-13 22 3 4 -14 20 -37 35 -24 15 -66 45 -95 67 -29 21 -56 36 -61 33 -4 -2
-21 7 -38 20 l-29 26 35 -22 35 -22 -31 29 c-17 15 -52 46 -78 67 -25 22 -46
45 -46 52 0 12 -42 44 -57 44 -4 -1 1 -8 12 -18 12 -9 39 -37 60 -61 44 -49
18 -41 -29 8 -17 17 -34 31 -39 31 -16 0 -192 159 -184 166 2 2 30 -18 63 -44
59 -47 104 -76 104 -68 0 2 -35 30 -77 62 -43 32 -99 77 -125 100 -26 23 -100
81 -165 130 -65 49 -139 107 -164 129 -72 61 -121 100 -154 120 -43 27 -23 8
90 -85 55 -45 106 -90 113 -99 7 -9 16 -16 20 -16 4 0 6 -3 5 -7 -2 -4 3 -5
11 -2 7 3 19 -2 26 -11 10 -12 10 -15 -1 -15 -7 0 -3 -11 12 -27 13 -15 -11 4
-53 41 -43 38 -78 65 -78 61 0 -4 -7 -2 -15 5 -9 7 -13 15 -11 18 6 5 -19 32
-29 32 -3 0 -3 -4 0 -10 3 -6 -1 -7 -9 -4 -9 3 -16 10 -16 16 0 5 5 6 12 2 7
-4 8 -3 4 5 -4 6 -12 9 -17 6 -5 -3 -19 4 -31 15 -13 12 -41 30 -63 41 -22 10
-59 37 -83 58 -42 39 -43 39 -51 18 -10 -25 -85 -98 -122 -117 -67 -36 -225
-52 -285 -30 -24 9 -25 9 -14 -5 9 -11 10 -15 0 -15 -6 0 -14 8 -17 19 -4 16
-20 28 -67 49 -5 3 -5 -1 0 -9 7 -12 5 -12 -9 0 -9 7 -15 17 -12 21 2 4 -4 15
-15 25 -11 10 -20 15 -20 11 0 -4 -12 2 -26 13 -15 11 -30 18 -35 16 -4 -3
-15 5 -23 17 -18 29 -31 72 -20 65 5 -3 10 11 12 32 3 54 6 64 24 90 20 28 14
58 -8 40 -12 -9 -13 -9 -8 4 3 8 12 18 20 21 9 3 12 1 9 -4 -3 -6 -2 -10 2
-10 5 0 14 9 20 19 29 46 225 111 335 111 136 0 298 -127 298 -234 0 -42 10
-55 79 -103 36 -26 86 -63 111 -83 25 -21 117 -91 205 -157 88 -66 207 -159
265 -207 58 -48 141 -113 185 -144 44 -31 134 -97 200 -147 66 -51 140 -105
165 -121 49 -31 99 -68 395 -290 110 -83 229 -171 265 -195 36 -24 291 -213
567 -419 429 -321 793 -591 1036 -770 34 -25 96 -78 139 -117 43 -40 86 -73
97 -73 11 0 26 -3 35 -6 9 -3 32 10 58 33 24 22 59 50 78 63 19 13 64 49 101
79 36 31 96 79 133 106 37 28 113 86 168 130 55 44 128 99 162 123 60 43 116
92 86 77 -8 -4 16 22 53 59 37 36 83 73 103 81 40 16 234 159 314 231 76 68
179 151 336 269 367 277 609 459 699 525 100 73 296 226 474 369 101 82 335
263 581 448 85 65 181 139 213 165 65 54 87 60 87 24 0 -35 -104 -125 -455
-391 -71 -54 -175 -135 -230 -180 -128 -104 -653 -513 -810 -630 -204 -152
-506 -390 -785 -616 -74 -60 -175 -141 -287 -231 -43 -34 -109 -90 -148 -123
-89 -78 -624 -493 -733 -569 l-82 -58 35 -18 c57 -29 104 -69 133 -113 23 -35
28 -54 32 -136 l5 -95 102 97 c57 53 129 118 162 144 32 26 117 97 187 156 71
60 170 139 219 176 50 38 147 115 216 173 70 57 137 111 150 120 17 11 23 23
21 43 -2 22 1 26 15 21 10 -4 14 -4 10 0 -4 4 -2 14 5 21 8 11 9 16 1 21 -8 5
-8 12 1 24 8 11 17 14 27 7 8 -5 19 -9 24 -9 6 0 4 4 -4 9 -10 7 -11 12 -1 27
10 16 11 16 6 1 -3 -9 -1 -17 5 -17 7 0 10 14 7 35 -5 43 7 45 30 5 17 -29 32
-39 32 -21 0 5 -3 11 -7 13 -5 2 -15 17 -25 33 -14 25 -14 33 -3 48 12 17 14
16 24 -10 10 -26 10 -25 5 10 -5 30 -3 37 10 37 9 0 16 -4 16 -9 0 -5 9 -11
20 -14 11 -3 18 0 17 7 -1 6 4 10 11 8 8 -1 11 2 7 8 -3 6 -11 8 -16 5 -5 -4
-9 4 -9 17 0 18 2 20 10 8 9 -13 10 -13 10 0 0 12 2 12 9 2 6 -11 9 -9 14 7 3
13 0 21 -11 23 -13 3 -12 5 3 18 11 9 16 10 11 3 -4 -7 -4 -13 1 -13 12 0 35
16 34 24 -3 22 2 28 9 11 5 -11 9 -14 9 -8 1 21 34 53 53 53 10 0 18 5 18 11
0 5 -5 7 -11 3 -7 -4 -10 -1 -7 7 3 8 10 13 16 12 6 -2 13 6 17 16 3 11 12 22
20 25 8 3 15 12 15 20 0 10 6 13 15 9 9 -3 15 -2 13 3 -1 5 12 29 30 53 17 24
32 39 32 32 0 -7 5 -9 10 -6 6 4 9 14 8 22 -2 9 4 18 12 20 13 4 13 3 0 -6 -8
-6 -10 -11 -5 -11 12 0 43 20 32 20 -5 0 -1 7 8 17 13 13 19 13 25 4 5 -9 10
-10 14 -2 4 6 4 16 0 23 -4 7 -3 8 4 4 6 -4 17 2 24 14 7 11 21 20 30 20 12 0
18 8 18 23 0 16 3 18 9 9 6 -11 11 -10 25 3 9 9 14 20 12 23 -2 4 2 13 10 20
11 10 14 10 15 0 0 -7 5 -3 11 10 6 13 17 21 24 18 8 -3 11 3 8 19 -3 19 -1
23 11 19 9 -4 15 0 15 9 0 10 8 13 28 10 23 -3 24 -2 7 6 -19 9 -19 10 3 10
12 1 22 5 22 10 0 5 9 11 21 14 12 3 18 10 14 16 -3 6 2 14 12 18 10 4 27 17
38 30 11 13 25 23 30 23 6 0 16 9 23 21 8 12 19 18 28 15 8 -3 14 1 14 9 0 19
37 39 42 23 3 -7 7 -5 11 6 4 9 3 15 -2 11 -5 -3 -13 0 -17 6 -4 7 -3 9 3 6 6
-4 30 8 54 25 48 35 74 58 64 58 -3 0 11 15 32 33 21 17 46 40 57 49 10 10 23
15 28 12 4 -3 8 1 8 9 0 13 11 22 32 26 5 0 20 11 34 24 14 12 29 22 32 22 4
0 24 17 44 38 21 20 41 38 45 38 21 3 33 12 33 25 0 8 7 14 15 14 7 0 19 8 24
18 6 9 11 13 11 7 0 -5 9 1 20 15 17 21 21 23 30 10 9 -13 10 -13 10 1 0 18
50 69 68 69 7 0 15 7 18 15 4 8 13 15 21 15 8 0 11 4 8 10 -3 6 1 7 9 4 10 -4
16 -1 16 7 0 7 3 10 6 6 8 -8 65 44 58 54 -5 8 10 13 29 10 4 0 7 5 7 12 0 12
27 40 43 45 4 1 7 5 6 8 0 3 13 15 28 27 15 12 30 25 31 29 2 5 8 8 13 8 9 0
43 27 80 62 9 9 20 13 24 10 3 -4 3 1 -1 11 -4 13 -1 17 15 17 12 0 30 9 41
20 12 12 26 18 33 14 31 -18 55 -48 52 -65 -2 -11 -1 -17 3 -15 4 3 16 -8 27
-24 33 -48 54 -52 121 -20 33 15 61 26 65 25 16 -10 336 256 356 296 17 32 16
122 -1 162 -20 46 -84 104 -135 122 -56 19 -165 19 -222 0 -60 -20 -116 -76
-125 -123 -7 -37 9 -119 27 -137 6 -6 6 1 0 18 -18 47 -13 71 22 104 49 47
138 73 212 61 64 -10 151 -52 166 -80 5 -10 16 -18 25 -18 22 0 27 -23 14 -70
-14 -53 -95 -141 -155 -170 -37 -18 -50 -20 -102 -11 -143 23 -217 63 -268
145 -25 42 -30 59 -29 111 2 125 75 210 218 252 28 8 54 20 58 26 4 7 17 5 40
-6 18 -8 51 -18 73 -22 85 -14 139 -38 188 -83 54 -52 67 -56 103 -37 23 11
24 14 7 17 -10 2 -31 1 -48 -4 l-30 -7 24 19 c25 22 41 26 41 10 0 -5 7 -10
16 -10 11 0 14 6 9 21 -5 14 -3 19 3 15 6 -3 12 2 15 11 3 15 6 14 14 -6 6
-16 12 -20 17 -13 4 7 12 10 17 7 5 -4 9 -4 9 0 0 5 -46 27 -62 29 -18 2 -19
16 -1 16 11 0 28 11 37 24 14 22 14 27 1 40 -13 13 -13 15 7 22 21 6 21 7 2
22 -19 14 -19 14 2 10 19 -5 21 -1 19 32 -2 31 1 37 14 33 13 -4 14 -3 2 5
-17 12 -25 95 -8 85 6 -4 7 7 2 33 -4 21 -11 42 -17 45 -12 7 -2 153 12 180
14 25 13 52 -1 43 -9 -5 -10 41 -5 177 4 101 9 192 12 202 3 10 0 17 -9 17
-22 0 -126 -71 -196 -133 -60 -54 -193 -147 -257 -180 -29 -15 -32 -14 -79 13
-46 27 -117 80 -240 180 -27 23 -114 87 -192 143 -77 56 -194 140 -259 187
-352 255 -1032 735 -1384 978 -176 122 -519 368 -755 542 -49 37 -144 105
-210 152 -290 205 -471 332 -623 437 -89 62 -188 140 -220 172 -31 32 -64 59
-72 59 -8 -1 -48 -32 -88 -70z m48 -410 c-10 -19 -60 -57 -120 -90 -14 -8 -46
-31 -71 -52 -91 -75 -158 -127 -299 -231 -80 -59 -161 -120 -180 -135 -19 -16
-66 -51 -105 -77 -38 -27 -115 -84 -170 -127 -55 -43 -104 -82 -110 -86 -5 -4
-77 -59 -158 -122 -82 -63 -169 -130 -195 -149 -26 -18 -67 -50 -92 -70 -25
-21 -76 -59 -115 -86 -67 -46 -134 -97 -290 -221 -38 -30 -124 -96 -190 -146
-66 -50 -159 -122 -206 -160 -48 -37 -89 -68 -93 -68 -3 0 0 11 6 25 6 14 16
25 21 25 6 0 25 16 44 35 19 19 36 35 39 35 13 0 64 45 64 57 0 7 4 13 8 13 5
0 19 9 32 20 13 11 29 20 37 20 8 0 12 4 9 8 -3 5 6 16 19 26 14 10 22 22 19
27 -3 5 0 9 5 9 6 0 30 19 53 43 52 51 112 97 129 97 7 0 10 3 6 6 -10 10 118
118 179 152 33 17 81 52 107 77 26 25 51 45 56 45 5 0 35 25 67 56 66 61 128
108 160 118 11 3 50 34 87 69 38 34 88 78 113 97 24 19 59 48 77 64 17 15 63
49 100 75 38 25 88 60 112 76 23 17 75 52 114 79 40 27 93 70 119 96 47 46
107 91 159 120 46 26 118 73 123 80 3 4 34 24 70 45 125 70 185 108 193 122 5
7 12 11 18 8 5 -4 9 -1 9 4 0 6 11 11 25 11 23 0 24 -2 15 -20z m250 -107 c25
-15 70 -44 100 -66 56 -39 193 -134 418 -290 70 -48 172 -117 227 -154 55 -37
102 -70 105 -73 11 -13 295 -215 382 -272 51 -33 113 -77 138 -98 25 -20 115
-85 200 -144 141 -97 225 -156 410 -289 36 -26 92 -65 125 -88 33 -23 103 -74
155 -114 52 -39 129 -95 170 -123 41 -28 98 -68 127 -89 28 -21 88 -65 133
-98 46 -33 108 -79 139 -103 31 -24 94 -68 141 -99 75 -49 172 -125 329 -257
53 -44 221 -206 221 -213 0 -3 -24 12 -52 33 -29 21 -102 72 -163 113 -60 41
-135 96 -165 121 -31 25 -129 97 -219 160 -90 63 -225 160 -300 216 -75 55
-165 120 -201 144 -36 24 -117 82 -181 129 -168 125 -239 177 -358 261 -59 41
-185 134 -281 206 -96 72 -195 143 -220 159 -25 15 -79 53 -120 84 -41 30
-104 75 -140 99 -35 24 -97 71 -138 103 -41 33 -106 80 -145 106 -40 26 -107
73 -149 105 -43 32 -121 88 -175 124 -54 37 -109 76 -123 88 -26 23 -28 24
-185 131 -140 96 -263 185 -299 218 l-31 28 40 -16 c22 -9 60 -28 85 -42z
m-310 -136 c-45 -41 -191 -154 -274 -213 -155 -111 -411 -298 -456 -335 -25
-20 -137 -106 -250 -191 -382 -288 -425 -320 -455 -348 -16 -15 -113 -93 -215
-172 -314 -244 -899 -706 -974 -771 -28 -23 -100 -80 -162 -127 -61 -47 -185
-143 -275 -214 -138 -109 -336 -250 -374 -265 -32 -13 34 41 120 99 55 37 168
122 250 189 83 66 204 162 270 213 66 50 174 137 240 193 128 108 561 456 710
570 127 98 351 281 410 335 28 25 79 66 115 90 68 46 203 147 280 210 25 21
81 64 126 96 45 32 114 85 153 117 40 32 107 84 150 115 43 31 112 82 152 113
41 31 110 80 154 110 44 29 103 72 130 94 93 77 246 157 175 92z m187 -31 c60
-41 83 -57 170 -123 45 -34 122 -89 170 -122 48 -33 138 -99 198 -146 194
-151 239 -172 356 -161 l66 6 89 -65 c378 -274 642 -459 668 -469 18 -6 19
-17 12 -296 -5 -189 -3 -296 3 -308 9 -16 3 -24 -40 -53 -83 -57 -152 -90
-163 -79 -5 5 -18 10 -28 10 -10 0 -18 4 -18 10 0 12 11 21 80 68 l55 38 0
288 0 289 -154 104 c-85 58 -180 124 -210 147 -31 23 -105 80 -166 126 -60 46
-112 87 -115 91 -12 15 -50 28 -86 29 -81 3 -323 -13 -319 -21 3 -4 -50 -6
-117 -4 -68 2 -364 5 -659 7 l-535 3 -40 -26 c-21 -15 -132 -100 -245 -190
-113 -90 -233 -185 -266 -210 l-60 -47 2 -181 c0 -99 -2 -181 -6 -181 -15 0
-19 39 -19 199 l0 167 28 25 c15 14 54 45 87 69 33 24 156 120 273 213 177
142 211 173 206 190 -4 12 -2 17 4 13 12 -7 35 28 25 38 -3 3 11 6 32 6 30 0
46 8 81 40 42 38 64 49 64 32 0 -5 -9 -19 -20 -32 -23 -26 -25 -36 -9 -45 20
-13 56 5 110 54 48 45 109 80 109 64 0 -3 26 19 58 49 32 30 73 63 91 73 19 9
52 35 74 56 28 27 50 39 70 39 32 0 146 -71 324 -202 167 -123 201 -139 287
-136 40 2 71 8 73 14 4 13 -167 145 -307 237 -94 63 -141 96 -261 186 -44 34
-90 61 -101 61 -20 0 -55 -23 -108 -70 -39 -35 -112 -80 -130 -80 -27 0 -71
-26 -130 -76 -67 -57 -326 -229 -357 -237 -37 -9 -26 8 30 46 28 20 93 65 142
100 50 35 136 95 192 135 57 39 120 87 141 107 22 19 55 48 74 63 19 15 58 46
87 69 58 47 66 47 138 -1z m-62 -690 c308 -2 655 -1 770 3 l210 7 45 -34 c25
-18 83 -63 130 -100 86 -68 206 -155 363 -262 l87 -61 0 -247 0 -247 -68 -48
c-37 -26 -89 -66 -117 -88 -27 -22 -87 -65 -131 -95 -45 -30 -97 -71 -117 -91
-23 -23 -50 -38 -75 -43 -21 -4 -151 -8 -288 -9 -137 -1 -260 -5 -273 -8 -17
-4 -22 -2 -17 6 4 6 14 11 22 11 7 0 69 48 135 108 67 59 170 146 230 194 59
48 110 92 114 98 8 14 22 340 14 340 -4 0 -37 22 -74 49 l-68 50 -788 -2
c-605 -2 -791 -5 -800 -14 -13 -13 -14 -66 -3 -209 l6 -81 -288 1 -289 2 -1
172 -2 172 97 67 c53 36 150 110 216 164 66 53 158 123 205 154 83 55 86 56
140 50 30 -3 307 -7 615 -9z m-1495 -414 c0 -24 -13 -37 -82 -87 -45 -32 -120
-91 -167 -130 -48 -39 -133 -107 -191 -150 -58 -43 -166 -129 -240 -190 -74
-61 -175 -142 -224 -181 -49 -38 -157 -123 -240 -189 -83 -67 -185 -145 -226
-174 -41 -30 -111 -84 -155 -121 -153 -127 -456 -350 -475 -350 -23 0 -6 18
57 60 64 43 231 170 408 310 45 36 110 88 145 115 35 28 109 88 164 134 56 46
113 91 128 100 15 10 91 70 170 134 179 146 673 541 781 625 45 34 95 76 112
92 16 17 31 30 32 30 2 0 3 -13 3 -28z m-285 -8 c-16 -14 -65 -57 -107 -95
-42 -38 -80 -69 -84 -69 -14 0 201 189 216 189 3 0 -8 -11 -25 -25z m3433
-178 c2 -73 1 -186 -3 -250 l-7 -116 -131 -99 c-73 -55 -175 -134 -227 -176
-52 -42 -107 -83 -122 -91 -21 -11 -74 -14 -250 -12 l-223 2 215 6 215 5 88
65 c49 36 162 119 250 186 l162 121 3 258 c2 196 5 256 14 247 7 -7 13 -63 16
-146z m-3061 72 c-2 -13 -4 -5 -4 17 -1 22 1 32 4 23 2 -10 2 -28 0 -40z m881
25 c-26 -2 -71 -2 -100 0 -29 2 -8 3 47 3 55 0 79 -1 53 -3z m1482 -34 l61
-42 -3 -153 c-2 -84 -7 -158 -13 -163 -7 -7 -9 42 -7 146 3 151 3 156 -20 180
-35 38 -77 57 -143 64 l-60 6 61 1 c57 2 67 -1 124 -39z m-2440 -2 c0 -15 -11
-29 -32 -42 -18 -10 -93 -66 -167 -124 -73 -58 -168 -133 -211 -166 -43 -33
-142 -114 -221 -181 -174 -145 -360 -287 -500 -381 -57 -39 -149 -108 -204
-154 -55 -46 -129 -106 -165 -134 -36 -27 -133 -104 -217 -171 -83 -68 -162
-128 -175 -134 -25 -13 -24 -12 112 104 118 101 513 415 765 608 127 97 277
217 335 268 58 50 157 130 220 177 63 48 160 124 216 170 122 102 226 182 237
183 4 0 7 -10 7 -23z m3545 -139 c50 -36 183 -134 297 -219 114 -85 226 -167
249 -182 22 -16 39 -31 36 -33 -7 -7 -230 143 -352 236 -90 69 -237 176 -349
253 -66 46 -75 61 -21 34 28 -14 91 -54 140 -89z m-1099 -4 c2 -110 -9 -194
-27 -205 -21 -13 -41 -11 -33 4 6 9 5 9 -8 -1 -13 -10 -15 -8 -13 20 1 18 2
74 3 124 2 74 6 96 22 117 11 14 28 24 38 23 14 -3 17 -15 18 -82z m-2971 66
c-3 -5 -16 -15 -28 -21 -19 -9 -19 -8 3 10 28 23 34 26 25 11z m1425 -16 c13
-13 15 -178 15 -1412 0 -1376 0 -1397 -20 -1419 -11 -13 -27 -23 -37 -23 -10
0 -18 -8 -19 -17 0 -13 -3 -11 -10 6 -12 30 -3 2537 9 2570 4 13 5 51 1 85 -4
33 -10 101 -14 150 l-7 89 33 -7 c19 -3 41 -13 49 -22z m2466 -2 c89 -58 244
-169 354 -252 127 -96 287 -204 398 -269 39 -24 72 -46 71 -50 -1 -12 -124
-109 -496 -391 -76 -57 -175 -136 -221 -175 -101 -85 -153 -125 -161 -124 -3
0 -17 14 -30 30 l-24 31 44 39 c24 21 80 67 123 101 44 35 107 87 140 117 34
29 88 72 121 94 33 23 106 77 162 122 56 44 122 92 147 107 25 15 46 31 46 35
0 4 -35 32 -78 61 -145 100 -380 267 -458 328 -44 33 -101 76 -129 94 -27 19
-53 38 -57 44 -10 14 -10 86 0 86 4 0 26 -13 48 -28z m-3392 -34 c-3 -7 -36
-38 -74 -68 -38 -30 -72 -60 -74 -67 -3 -7 -48 -44 -100 -83 -53 -39 -141
-113 -196 -165 -55 -51 -155 -135 -223 -186 -67 -51 -169 -131 -227 -178 -58
-47 -139 -112 -180 -145 -144 -117 -315 -259 -352 -294 -21 -20 -40 -33 -43
-30 -16 15 311 292 855 726 69 55 164 136 213 179 48 44 115 96 150 116 34 20
87 62 117 93 47 48 125 114 136 114 2 0 1 -6 -2 -12z m3323 -75 c-2 -16 -4 -5
-4 22 0 28 2 40 4 28 2 -13 2 -35 0 -50z m-3952 28 c-33 -30 -135 -111 -135
-106 0 11 126 115 139 115 3 0 1 -4 -4 -9z m-171 -145 c-6 -15 -48 -46 -61
-46 -7 1 57 60 64 60 1 0 0 -6 -3 -14z m4334 -119 c192 -141 278 -200 306
-210 15 -6 8 -15 -45 -55 -106 -80 -296 -230 -432 -342 -188 -154 -203 -165
-219 -151 -7 6 -22 18 -33 26 -19 13 -19 15 25 60 25 26 104 92 175 148 314
243 369 291 350 302 -10 5 -36 24 -59 40 -23 17 -86 61 -141 99 -55 38 -106
76 -112 84 -7 9 -13 42 -13 75 0 47 3 58 14 54 8 -3 91 -62 184 -130z m-1168
79 c0 -2 -7 -7 -16 -10 -8 -3 -12 -2 -9 4 6 10 25 14 25 6z m-2502 -59 c-80
-49 -219 -151 -309 -224 -112 -91 -372 -296 -434 -343 -33 -24 -124 -99 -203
-165 -124 -104 -207 -169 -337 -266 l-30 -23 25 29 c38 45 40 46 120 110 41
32 134 109 205 170 72 61 189 157 260 213 72 56 162 127 200 158 39 31 95 72
125 91 65 42 173 133 166 141 -3 3 -13 -1 -23 -9 -9 -8 -14 -9 -10 -2 11 17
90 61 122 67 15 3 35 12 44 19 22 20 124 77 136 77 6 0 -20 -20 -57 -43z m927
32 c4 -5 7 -611 7 -1347 1 -1093 3 -1254 9 -882 5 250 8 854 6 1342 -1 487 1
884 6 881 9 -5 8 -2334 -2 -2585 -7 -204 -13 -219 -63 -172 -18 17 -60 51 -93
76 -148 111 -296 219 -365 266 -41 28 -86 63 -100 78 -34 37 -20 28 172 -110
92 -67 197 -141 233 -166 35 -25 77 -58 92 -72 34 -31 92 -62 101 -53 15 14
-57 72 -344 275 l-211 150 -1 1003 c-1 1369 0 1307 -13 1307 -7 0 -9 -344 -7
-1154 3 -924 1 -1153 -9 -1149 -10 4 -13 241 -13 1158 l0 1154 23 4 c50 9 566
6 572 -4z m1665 -3 c0 -3 -60 -53 -132 -112 -73 -59 -151 -124 -174 -143 -128
-112 -165 -142 -156 -125 14 26 75 82 217 200 176 146 245 197 245 180z
m-3530 -40 c0 -2 -7 -7 -16 -10 -8 -3 -12 -2 -9 4 6 10 25 14 25 6z m-53 -42
c-3 -3 -12 -4 -19 -1 -8 3 -5 6 6 6 11 1 17 -2 13 -5z m94 -22 c-19 -15 -64
-53 -100 -85 -61 -54 -145 -119 -111 -85 32 31 177 156 205 176 43 30 47 26 6
-6z m874 -55 c-17 -12 -48 -38 -70 -58 -69 -63 -186 -149 -202 -149 -8 0 -27
-12 -41 -28 -15 -15 -43 -39 -62 -54 -101 -78 -387 -301 -452 -353 -42 -33
-137 -107 -213 -165 -76 -58 -143 -110 -149 -115 -6 -6 -47 -38 -91 -72 -44
-34 -97 -78 -119 -98 -26 -24 -44 -34 -55 -30 -13 6 -12 9 8 16 14 5 31 18 38
29 16 23 183 160 313 257 52 39 122 94 155 122 33 28 119 98 190 155 72 58
164 132 205 165 41 34 127 100 190 148 63 47 159 119 212 160 93 70 157 107
168 96 3 -2 -9 -14 -25 -26z m3487 16 c-6 -9 -27 -29 -48 -44 -94 -68 -184
-129 -184 -125 0 2 43 37 96 76 53 40 103 81 112 91 20 23 36 25 24 2z m-1221
-35 c0 -7 2 -21 4 -30 2 -9 -3 -22 -11 -29 -12 -10 -13 -9 -8 5 3 9 1 16 -5
16 -6 0 -11 -4 -11 -10 0 -5 -7 -10 -15 -10 -8 0 -15 6 -15 14 0 18 26 39 39
31 7 -3 8 0 5 9 -3 9 -1 16 5 16 6 0 11 -6 12 -12z m-3386 -24 c-34 -26 -55
-36 -55 -25 0 5 9 13 20 16 11 3 20 11 20 16 0 5 8 9 18 9 15 -1 15 -2 -3 -16z
m3425 1 c-7 -8 -18 -15 -24 -15 -6 0 -2 7 8 15 25 19 32 19 16 0z m-128 -74
c10 -16 15 -18 28 -8 8 6 6 1 -5 -13 -37 -45 -50 -57 -74 -70 -13 -7 -49 -32
-78 -56 -49 -40 -59 -44 -108 -44 -55 0 -74 13 -34 23 11 3 25 18 31 34 7 18
25 36 49 47 22 11 62 39 90 63 55 47 82 53 101 24z m1586 13 c40 -11 21 -27
-56 -49 -23 -7 -23 -6 -7 24 16 32 24 35 63 25z m692 -70 c12 -13 5 -23 -47
-73 -34 -32 -75 -64 -92 -71 -17 -7 -31 -17 -31 -22 0 -6 -7 -7 -16 -4 -8 3
-13 2 -10 -2 3 -4 -4 -13 -15 -20 -15 -10 -19 -10 -19 2 0 10 -9 13 -32 9
l-33 -5 30 23 c17 13 32 26 35 29 3 3 34 28 69 55 35 28 75 60 90 72 31 26 54
29 71 7z m69 -1 c9 -10 23 -19 31 -21 8 -2 56 -30 107 -63 50 -32 94 -59 98
-59 11 0 119 -77 139 -99 23 -25 2 -30 -25 -5 -17 15 -20 14 -51 -7 -18 -12
-67 -52 -108 -89 -80 -71 -283 -235 -390 -315 -36 -27 -112 -87 -170 -135 -58
-47 -149 -119 -203 -159 -53 -41 -148 -116 -210 -168 -153 -129 -237 -177
-237 -136 0 12 12 23 33 31 18 6 123 83 234 169 253 198 568 447 653 516 249
203 380 305 396 309 17 3 16 5 -6 26 -31 29 -51 28 -81 -4 -25 -27 -340 -281
-552 -444 -68 -52 -161 -126 -207 -165 -45 -38 -117 -97 -159 -130 -42 -33
-113 -89 -158 -125 -106 -84 -143 -107 -143 -86 0 15 37 56 51 56 9 0 174 131
303 240 115 98 378 308 476 380 61 46 130 105 130 113 0 12 51 57 65 57 14 0
177 134 183 150 2 4 -19 20 -45 36 -88 51 -203 144 -178 144 4 0 15 -8 24 -17z
m-5693 -12 c-3 -4 -31 -28 -63 -52 -32 -24 -128 -100 -213 -169 -128 -104
-358 -276 -453 -340 -19 -13 -21 -13 -10 0 11 14 80 67 315 239 59 44 143 110
185 149 62 56 227 180 241 182 2 0 1 -4 -2 -9z m2594 -17 c58 -3 116 -7 130
-9 14 -2 92 -4 173 -4 109 -1 148 -4 145 -13 -3 -7 -34 -13 -82 -15 -44 -1
-81 -5 -84 -7 -2 -3 -13 -1 -23 5 -11 5 -19 6 -19 1 0 -15 -290 -23 -320 -9
-13 6 -16 0 -17 -30 -2 -90 -14 -331 -19 -360 -4 -27 -7 -31 -18 -20 -8 6 -14
14 -13 17 1 3 -4 21 -11 40 -7 21 -13 114 -15 231 l-3 196 35 -8 c20 -5 83
-11 141 -15z m4700 -23 c0 -5 -7 -12 -16 -15 -24 -9 -28 -7 -14 9 14 17 30 20
30 6z m-3941 -65 c-2 -2 -29 -6 -59 -10 -38 -4 -50 -3 -40 4 13 9 109 15 99 6z
m836 -72 c-77 -69 -88 -59 -11 13 32 30 61 51 65 48 3 -4 -21 -31 -54 -61z
m1540 29 c33 -20 63 -41 67 -47 9 -14 0 -26 -19 -26 -23 0 -123 78 -123 95 0
21 8 19 75 -22z m-4415 -26 c0 -46 0 -46 -314 -292 -56 -44 -155 -125 -220
-180 -65 -55 -154 -129 -198 -165 -44 -36 -103 -84 -131 -107 -29 -24 -58 -43
-66 -43 -8 0 -43 -15 -77 -34 -54 -30 -64 -33 -75 -20 -10 12 -7 20 17 46 68
73 186 172 364 305 74 55 187 144 250 198 250 211 428 348 442 339 4 -3 8 -24
8 -47z m1221 46 c6 -73 4 -553 -2 -553 -9 0 -11 55 -13 367 -1 106 2 193 7
193 4 0 7 -3 8 -7z m1505 -46 c31 -28 73 -63 93 -77 20 -13 66 -47 103 -75 37
-27 81 -59 97 -70 17 -11 83 -57 146 -102 63 -46 119 -83 124 -83 20 0 43 -49
39 -80 -3 -16 -2 -30 2 -30 3 0 4 -114 2 -252 -2 -177 0 -249 7 -238 9 12 11
11 11 -7 0 -12 -4 -24 -8 -27 -5 -3 -7 -64 -6 -136 l3 -131 -39 -25 c-24 -16
-44 -23 -52 -18 -22 14 -57 12 -51 -3 4 -9 0 -11 -12 -6 -16 6 -16 9 7 28 14
12 30 31 36 41 7 13 8 147 3 399 -4 209 -7 393 -7 409 1 23 -8 35 -50 65 -50
36 -155 113 -368 274 -60 45 -121 95 -135 111 -32 35 -94 67 -124 65 -12 -1
-33 -1 -47 0 -19 1 -22 3 -11 10 8 5 52 10 97 10 l83 1 57 -53z m-1166 15 c0
-5 36 -7 79 -4 l80 4 3 -43 c3 -38 6 -44 33 -51 53 -15 404 -20 635 -10 253
11 248 12 320 -63 48 -51 85 -68 40 -19 l-35 38 43 -33 c23 -18 40 -37 37 -42
-4 -5 0 -6 8 -3 8 3 28 -10 47 -32 18 -21 58 -58 89 -83 31 -24 79 -65 106
-90 103 -93 124 -108 133 -99 13 13 20 -116 26 -462 l6 -266 -103 -84 c-56
-47 -174 -143 -262 -213 -88 -71 -182 -151 -210 -177 -27 -26 -72 -64 -99 -84
l-48 -37 -302 5 c-165 3 -451 5 -633 5 l-333 1 0 250 c0 148 4 250 9 250 6 0
11 -98 13 -234 2 -129 6 -238 10 -242 4 -4 276 -9 605 -12 l598 -4 52 35 c29
19 112 84 185 144 73 60 171 138 218 174 153 115 265 218 270 247 3 15 3 169
-1 342 l-5 315 -2 -331 -2 -332 -57 -43 c-32 -23 -87 -68 -123 -99 -36 -31
-119 -99 -185 -150 -125 -97 -206 -165 -284 -237 l-46 -43 -196 0 c-108 0
-378 3 -602 7 l-406 6 -5 61 c-4 34 -7 136 -9 227 l-2 166 574 1 574 0 74 46
c42 25 79 46 84 46 10 0 10 5 11 384 l0 268 -68 43 -69 44 -185 0 c-102 0
-260 5 -350 10 -91 6 -272 13 -402 14 -131 2 -240 6 -243 8 -3 3 -8 112 -12
243 -5 201 -4 236 8 232 11 -5 272 7 302 13 4 0 7 -3 7 -7z m3154 -113 c-10
-11 -28 -25 -39 -30 -11 -6 -4 4 15 21 40 35 52 39 24 9z m1256 6 c-7 -8 -17
-15 -22 -15 -6 0 -5 7 2 15 7 8 17 15 22 15 6 0 5 -7 -2 -15z m-1150 -10 l25
-13 -30 -12 c-43 -16 -144 -78 -195 -120 -25 -20 -88 -68 -140 -105 -52 -38
-144 -110 -205 -160 -60 -50 -157 -126 -215 -170 -58 -43 -136 -105 -175 -137
-403 -330 -473 -384 -488 -369 -8 8 -5 18 11 33 15 15 22 18 22 9 0 -9 10 -5
28 12 82 78 290 247 587 477 103 80 224 176 269 213 45 38 101 83 126 100 25
17 90 67 145 111 55 45 104 80 109 78 11 -4 86 48 86 59 0 12 11 11 40 -6z
m95 -58 c17 -13 16 -14 -12 -20 -17 -3 -61 -29 -99 -57 -37 -29 -119 -88 -181
-132 -62 -44 -148 -107 -192 -141 -43 -34 -170 -132 -282 -217 -112 -85 -272
-209 -355 -275 -83 -66 -186 -147 -229 -180 -43 -33 -92 -72 -110 -87 -38 -33
-45 -34 -38 -10 2 9 43 46 90 82 80 61 166 129 339 268 39 31 106 84 149 117
43 33 169 132 279 220 111 87 248 193 306 234 58 40 119 85 135 98 17 13 35
27 40 31 34 27 121 82 130 82 6 0 19 -6 30 -13z m-4742 -374 l-10 -268 0 325
c0 243 2 311 9 268 7 -37 7 -152 1 -325z m-193 323 c0 -8 -17 -28 -39 -43 -60
-43 -202 -167 -236 -204 -34 -39 -25 -32 90 67 39 34 98 79 132 102 59 39 63
40 73 22 14 -26 -19 -62 -193 -212 -143 -124 -241 -200 -391 -303 -48 -33 -94
-65 -103 -71 -13 -9 -7 -17 38 -49 204 -147 561 -421 598 -458 38 -39 45 -53
49 -98 4 -43 2 -50 -10 -43 -16 10 -174 131 -403 309 -88 68 -222 171 -299
229 -76 58 -134 106 -130 106 5 0 41 30 79 68 39 37 117 104 175 149 58 44
145 118 195 163 99 91 171 148 285 227 81 57 90 61 90 39z m4995 5 c3 -5 -40
-42 -96 -83 -56 -40 -152 -112 -214 -159 -61 -47 -140 -106 -176 -129 -35 -24
-109 -80 -164 -125 -55 -44 -148 -115 -207 -158 -104 -74 -266 -201 -472 -370
-112 -91 -214 -162 -223 -154 -9 10 6 24 85 81 42 31 104 80 138 109 88 75
353 284 464 364 52 38 141 105 197 150 56 45 146 113 200 152 54 39 175 129
268 201 94 71 175 129 182 130 6 0 14 -4 18 -9z m76 -55 c-11 -14 -75 -63
-396 -306 -77 -59 -234 -178 -349 -266 -115 -87 -252 -192 -305 -231 -53 -40
-136 -106 -186 -147 -124 -102 -190 -154 -255 -201 -30 -21 -76 -56 -102 -78
-46 -37 -48 -38 -48 -15 0 35 11 68 22 68 25 0 180 104 296 197 70 56 276 216
457 355 778 595 834 636 859 637 15 1 16 -2 7 -13z m85 -49 c4 -4 2 -7 -4 -7
-6 0 -41 -26 -79 -58 -37 -32 -115 -94 -173 -137 -58 -43 -141 -108 -185 -145
-44 -36 -152 -121 -240 -188 -284 -216 -399 -305 -521 -403 -65 -52 -157 -125
-204 -161 -47 -36 -143 -116 -215 -177 -148 -128 -215 -179 -152 -116 20 20
37 43 37 50 0 26 90 108 275 250 50 39 176 138 280 221 105 82 264 206 355
274 91 67 206 155 255 194 157 125 308 241 355 273 25 17 73 55 106 85 57 51
91 65 110 45z m64 -46 c0 -13 -88 -91 -215 -189 -60 -47 -148 -118 -195 -157
-47 -40 -139 -113 -205 -163 -66 -50 -151 -116 -190 -146 -38 -30 -138 -108
-221 -173 -84 -65 -263 -208 -399 -318 -136 -110 -304 -242 -373 -293 -70 -52
-137 -103 -149 -115 -13 -11 -25 -19 -27 -16 -5 4 176 170 244 224 21 17 116
94 211 172 223 182 403 325 559 444 263 201 399 307 499 389 57 47 156 125
220 174 64 49 138 109 166 133 47 41 75 54 75 34z m420 -5 c0 -2 -25 -22 -55
-45 -30 -23 -55 -38 -55 -33 0 12 22 31 69 59 42 25 41 24 41 19z m-416 -145
c-34 -32 -108 -93 -165 -136 -57 -43 -142 -110 -189 -150 -47 -40 -132 -107
-190 -150 -58 -43 -139 -106 -180 -140 -41 -33 -122 -96 -180 -140 -58 -43
-143 -111 -190 -150 -47 -39 -155 -126 -240 -192 -85 -66 -191 -151 -235 -188
-44 -37 -107 -85 -140 -108 -33 -22 -105 -77 -160 -122 -55 -44 -121 -95 -147
-113 -58 -40 -364 -288 -519 -422 -64 -54 -165 -139 -225 -187 -60 -48 -117
-94 -128 -103 -10 -8 -57 -49 -105 -90 -105 -92 -249 -205 -441 -348 -230
-171 -235 -173 -254 -166 -10 4 -89 64 -176 133 -87 69 -198 154 -247 188
-111 78 -247 191 -251 208 -6 24 69 -12 139 -66 35 -27 111 -84 168 -127 57
-42 165 -128 240 -189 74 -62 139 -113 143 -113 10 0 132 85 208 144 36 29
110 84 165 123 55 40 148 114 206 165 123 108 185 158 289 235 78 58 118 91
280 228 52 45 116 96 141 115 26 19 97 78 158 131 61 53 153 128 204 167 50
39 108 85 127 102 19 17 89 72 154 123 66 51 149 117 185 148 36 30 129 104
206 164 77 59 178 141 225 180 47 40 130 105 185 145 55 41 129 99 165 129 35
30 125 99 198 154 74 54 157 120 185 145 120 108 436 346 446 336 3 -3 -21
-32 -55 -63z m-7299 1 c-6 -6 -55 30 -55 40 0 5 13 -1 29 -14 15 -13 27 -24
26 -26z m451 -14 c-45 -38 -96 -72 -96 -65 0 6 121 97 129 97 3 0 -12 -15 -33
-32z m3779 2 c116 -6 105 -7 -65 -2 -113 2 -344 8 -515 12 -307 8 -307 8 65 3
206 -3 438 -8 515 -13z m3129 -72 c-33 -33 -113 -101 -179 -151 -66 -50 -155
-120 -198 -156 -43 -36 -132 -106 -197 -156 -181 -138 -383 -297 -505 -396
-108 -88 -260 -208 -499 -392 -65 -51 -158 -124 -205 -162 -47 -39 -117 -93
-156 -120 -64 -45 -513 -400 -525 -415 -3 -3 -54 -48 -115 -99 -60 -51 -119
-100 -130 -110 -19 -17 -110 -88 -181 -141 -18 -14 -68 -54 -111 -89 -96 -79
-103 -85 -103 -78 0 8 229 208 300 262 67 51 80 62 292 242 267 226 387 325
518 424 74 56 151 116 170 134 19 18 105 87 190 153 347 270 469 366 540 425
41 34 106 86 145 116 38 30 131 103 205 161 74 59 178 141 232 181 53 41 201
159 329 262 228 184 300 225 183 105z m-2774 24 l65 -37 -3 -307 c-2 -307 -2
-307 -25 -319 -19 -10 -20 -10 -11 2 8 10 13 109 15 312 l4 298 -25 20 c-47
37 -85 53 -140 60 l-55 6 55 1 c47 1 65 -4 120 -36z m-4260 -47 c-7 -8 -20
-15 -29 -15 -11 1 -8 5 9 15 32 18 35 18 20 0z m-263 -86 c29 -23 53 -43 53
-44 0 -11 -42 13 -80 45 -60 52 -41 51 27 -1z m3776 14 c-7 -2 -21 -2 -30 0
-10 3 -4 5 12 5 17 0 24 -2 18 -5z m310 -10 c-34 -2 -93 -2 -130 0 -37 2 -9 3
62 3 72 0 102 -1 68 -3z m-4213 -58 c14 -19 14 -19 -2 -6 -10 7 -18 18 -18 24
0 6 1 8 3 6 1 -2 9 -13 17 -24z m4611 -100 c5 4 9 -5 9 -19 0 -43 19 -29 23
17 2 23 3 -43 3 -148 0 -127 -2 -165 -6 -115 l-6 75 -2 -76 c-2 -60 -5 -76
-17 -76 -8 0 -15 5 -16 11 0 6 -3 20 -5 31 -10 39 -16 354 -8 372 6 13 9 5 12
-30 2 -26 7 -45 13 -42z m36 63 c-3 -8 -6 -5 -6 6 -1 11 2 17 5 13 3 -3 4 -12
1 -19z m-4332 -58 c3 -6 -1 -7 -9 -4 -18 7 -21 14 -7 14 6 0 13 -4 16 -10z
m6963 -22 c-19 -29 -86 -82 -208 -163 -52 -35 -133 -96 -180 -135 -47 -40
-114 -92 -150 -116 -36 -23 -137 -103 -225 -176 -89 -73 -179 -145 -200 -159
-22 -15 -79 -60 -126 -100 -48 -41 -172 -137 -275 -214 -104 -77 -198 -148
-209 -157 -11 -9 -50 -39 -87 -65 -77 -55 -223 -168 -253 -196 -11 -10 -40
-30 -65 -45 -25 -14 -53 -32 -62 -40 -11 -9 -18 -10 -18 -4 0 6 43 41 96 79
52 37 118 89 145 116 28 26 54 47 59 47 5 0 67 46 137 103 70 56 144 114 163
127 19 13 89 68 155 120 66 53 153 120 193 149 40 29 134 105 210 168 75 63
166 135 202 161 36 25 103 78 150 117 135 110 508 389 526 391 9 1 18 5 22 8
13 14 13 4 0 -16z m-6870 -45 c37 -26 110 -81 162 -123 53 -42 141 -107 195
-145 55 -38 152 -112 215 -165 63 -52 153 -122 200 -154 81 -57 187 -134 405
-297 54 -41 140 -103 191 -139 174 -124 303 -225 319 -252 9 -16 12 -28 7 -28
-5 0 -71 46 -148 102 -76 56 -178 129 -225 162 -114 80 -713 532 -809 611 -41
33 -138 108 -215 165 -206 152 -395 310 -370 310 3 0 36 -21 73 -47z m697 -82
c-3 -3 -18 8 -33 23 l-27 29 32 -23 c18 -13 30 -26 28 -29z m3225 -217 c33
-28 41 -22 13 9 -17 19 -17 19 2 16 12 -3 21 -14 23 -27 4 -29 22 -29 22 1 0
15 3 18 8 9 7 -9 16 -10 41 -1 32 11 46 7 46 -14 0 -6 18 -13 40 -15 22 -2 44
-7 48 -11 11 -11 -754 -12 -818 -2 -38 6 -43 9 -20 10 40 3 60 6 125 19 30 6
77 8 104 5 31 -4 47 -2 43 4 -4 6 22 10 65 11 40 1 73 4 76 6 2 3 37 5 78 5
64 0 77 -3 104 -25z m-1000 -26 c10 2 20 -1 23 -5 4 -7 -2 -68 -17 -178 -3
-16 -5 -52 -6 -80 l-2 -50 -9 45 c-14 73 -20 79 -34 40 -13 -33 -14 -30 -14
60 -1 52 2 119 6 149 6 49 7 52 20 35 8 -10 22 -18 33 -16z m-2647 -41 c33
-26 54 -47 49 -47 -10 0 -132 99 -132 108 0 5 4 2 83 -61z m2967 30 c0 -5 -11
-6 -25 -3 -14 4 -25 2 -25 -4 0 -5 -4 -10 -10 -10 -5 0 -10 7 -10 15 0 12 9
15 35 13 19 -1 35 -6 35 -11z m1010 9 c0 -2 -19 -15 -42 -30 l-43 -27 35 30
c32 27 50 38 50 27z m-4200 -102 c19 -17 49 -39 65 -47 33 -16 74 -57 58 -57
-5 0 -18 9 -27 19 -10 11 -31 25 -47 31 -16 7 -29 17 -29 22 0 6 -7 8 -14 5
-11 -4 -13 -1 -9 10 5 12 1 14 -14 9 -13 -4 -25 0 -34 11 -11 15 -11 16 1 6 8
-7 19 -13 24 -13 6 0 -12 21 -39 46 -46 42 -47 43 -10 18 22 -15 56 -42 75
-60z m4038 39 c-10 -2 -26 -2 -35 0 -10 3 -2 5 17 5 19 0 27 -2 18 -5z m49 1
c-3 -3 -12 -4 -19 -1 -8 3 -5 6 6 6 11 1 17 -2 13 -5z m-605 -11 c-40 -2 -103
-2 -140 0 -37 2 -4 3 73 3 77 0 107 -2 67 -3z m1588 -46 c0 -2 -12 -14 -27
-28 l-28 -24 24 28 c23 25 31 32 31 24z m-4975 -88 c16 -19 13 -18 -17 5 -21
16 -38 30 -38 33 0 8 36 -16 55 -38z m4824 -48 c-107 -94 -269 -220 -269 -209
0 2 41 37 92 78 50 41 116 96 147 122 67 57 93 65 30 9z m-2076 -258 c6 -9 3
-11 -7 -7 -13 5 -16 25 -14 118 l1 111 6 -105 c4 -58 10 -111 14 -117z m-1419
201 c9 -3 16 -12 16 -19 0 -7 6 -16 13 -18 6 -3 8 -6 2 -6 -5 0 -23 11 -40 24
-29 24 -25 32 9 19z m-1744 -104 c25 -23 38 -38 30 -34 -30 14 -118 86 -124
100 -8 20 32 -8 94 -66z m1200 -120 c19 -17 26 -26 15 -21 -30 16 -71 51 -60
51 6 0 26 -14 45 -30z m3600 -75 c0 -7 -156 -122 -184 -137 l-21 -10 20 20
c17 18 174 131 183 132 1 0 2 -2 2 -5z m230 -235 c-55 -49 -143 -111 -115 -82
22 23 147 121 155 121 3 0 -15 -18 -40 -39z m-1931 -89 c36 -38 84 -73 136
-101 44 -24 112 -64 150 -90 39 -26 88 -58 110 -72 l41 -25 79 48 c80 49 210
98 223 84 12 -12 -272 -255 -298 -255 -5 0 -101 69 -213 153 -113 83 -227 168
-254 187 -44 33 -48 39 -51 83 -2 32 1 47 9 47 7 0 38 -26 68 -59z m-1299 -48
c0 -7 -39 17 -46 28 -3 6 5 3 20 -6 14 -10 26 -19 26 -22z m3254 -244 c-20
-22 -118 -99 -144 -114 -27 -14 24 33 90 84 72 56 82 61 54 30z m-584 -84 c-7
-8 -17 -15 -23 -15 -6 0 -2 7 9 15 25 19 30 19 14 0z m-1210 -96 c0 -13 -31 4
-55 31 l-20 22 38 -22 c20 -12 37 -26 37 -31z m1100 17 c0 -2 -35 -30 -77 -62
-43 -32 -94 -72 -114 -89 -46 -39 -58 -48 -154 -122 -44 -34 -110 -86 -147
-115 -36 -29 -111 -88 -166 -131 -55 -43 -110 -89 -123 -103 -12 -13 -28 -24
-36 -24 -31 0 -8 33 70 100 98 85 105 90 112 90 11 0 171 127 235 186 73 68
130 109 207 147 28 15 53 30 55 34 5 12 80 67 108 80 30 14 30 14 30 9z
m-1030 -67 c24 -20 23 -20 -17 2 -24 12 -43 27 -43 31 0 10 26 -4 60 -33z
m115 -49 c55 -12 83 -14 158 -10 15 1 25 6 22 11 -4 5 -1 9 5 9 6 0 8 5 5 10
-3 6 -2 10 3 10 6 0 12 -7 15 -14 9 -23 -117 -110 -147 -102 -29 7 -136 94
-136 110 0 8 2 8 8 0 4 -6 34 -17 67 -24z m1155 -105 c-13 -14 -28 -25 -34
-25 -6 0 3 11 19 25 39 31 45 32 15 0z m330 -311 c0 -8 -19 -13 -24 -6 -3 5 1
9 9 9 8 0 15 -2 15 -3z m-900 -19 c-7 -8 -17 -15 -23 -15 -5 0 -27 -16 -48
-35 -22 -19 -44 -35 -51 -35 -14 0 -10 4 55 57 52 42 93 59 67 28z"/>
<path d="M5271 7609 c-14 -5 -68 -40 -120 -78 -53 -38 -107 -74 -120 -81 -19
-10 -21 -14 -10 -21 41 -22 589 -22 589 1 0 20 -243 174 -290 184 -14 3 -36 1
-49 -5z"/>
<path d="M4702 4120 c0 -79 1 -82 11 -42 7 28 7 56 0 85 -10 39 -11 36 -11
-43z"/>
<path d="M4230 5833 c-93 -47 -131 -130 -110 -237 15 -74 29 -96 82 -126 121
-68 308 16 338 152 10 44 9 59 -4 89 -36 84 -108 137 -200 146 -42 4 -60 0
-106 -24z m65 -158 c128 -1 185 -13 185 -36 0 -24 -34 -50 -87 -65 -73 -21
-145 -6 -202 42 -35 30 -41 41 -40 72 1 31 2 33 8 13 7 -24 8 -25 136 -26z
m245 -9 c0 -26 -6 -18 -14 19 -5 22 -4 26 4 15 5 -8 10 -24 10 -34z"/>
<path d="M6610 5607 c0 -3 12 -12 26 -22 15 -9 23 -12 20 -6 -7 11 -46 35 -46
28z"/>
<path d="M6068 4613 c7 -3 16 -2 19 1 4 3 -2 6 -13 5 -11 0 -14 -3 -6 -6z"/>
<path d="M4319 8663 c-13 -16 -12 -17 4 -4 9 7 17 15 17 17 0 8 -8 3 -21 -13z"/>
<path d="M9540 8610 c-8 -5 -22 -7 -31 -5 -9 3 -51 -21 -99 -57 -46 -35 -93
-70 -104 -78 -12 -8 -22 -18 -24 -22 -2 -5 -8 -8 -13 -8 -9 0 -126 -88 -157
-117 -7 -7 -46 -32 -85 -55 -40 -23 -117 -84 -171 -136 -54 -52 -126 -112
-160 -134 -34 -21 -91 -67 -127 -101 -66 -62 -222 -185 -308 -243 -25 -17 -81
-54 -123 -82 -55 -37 -84 -64 -98 -92 -25 -50 -25 -54 5 -70 23 -12 28 -11 53
12 34 32 175 145 222 178 19 13 46 35 60 47 14 13 47 40 74 61 26 20 74 60
105 88 57 51 173 143 202 160 9 5 41 30 70 55 71 62 128 107 180 144 23 17 71
56 107 87 44 40 79 62 115 73 28 8 53 12 56 9 8 -8 -22 -24 -33 -17 -5 3 -6 1
-2 -5 3 -6 -18 -30 -46 -54 -53 -44 -68 -55 -143 -105 -22 -14 -85 -65 -140
-113 -55 -47 -125 -104 -155 -125 -53 -38 -139 -106 -168 -133 -8 -7 -30 -24
-50 -39 -21 -15 -73 -61 -117 -103 -44 -42 -107 -96 -140 -120 -33 -24 -84
-68 -113 -99 -49 -51 -51 -55 -36 -73 23 -24 44 -23 74 5 49 44 143 122 178
150 20 15 61 51 91 80 67 63 214 186 292 244 30 22 84 66 120 98 35 31 95 72
133 91 37 20 87 53 110 76 38 37 85 71 211 154 28 18 61 42 75 54 14 11 35 23
48 26 12 3 22 12 22 20 0 14 12 19 22 8 12 -11 -77 -94 -222 -210 -175 -138
-225 -171 -236 -153 -5 8 -3 9 6 4 9 -5 11 -4 6 3 -10 17 -26 15 -26 -3 0 -8
-6 -15 -13 -15 -8 0 -19 -10 -26 -22 -16 -28 -155 -143 -276 -228 -49 -35
-126 -98 -170 -140 -44 -43 -116 -109 -160 -148 -44 -38 -100 -91 -125 -117
l-45 -46 24 -20 c13 -10 31 -19 40 -19 9 0 46 30 81 66 64 65 208 174 229 174
6 0 11 4 11 9 0 5 9 13 20 16 11 3 20 11 20 16 0 10 36 49 46 49 3 0 38 33 79
73 102 100 230 208 295 247 30 19 63 40 73 48 25 22 22 -3 -5 -34 -29 -33
-188 -170 -248 -213 -25 -18 -68 -53 -95 -79 -72 -67 -153 -133 -205 -167 -25
-17 -91 -77 -148 -133 -113 -113 -113 -115 -41 -147 39 -18 42 -18 51 -2 5 10
16 23 24 30 50 42 73 68 78 85 8 23 72 83 80 75 3 -4 6 -2 6 4 0 6 13 16 29
23 16 6 78 60 138 118 60 59 151 143 203 187 52 43 135 117 184 163 52 48 102
86 118 89 15 3 25 9 22 14 -3 5 -1 9 5 9 31 0 13 -97 -27 -148 -18 -22 -63
-61 -100 -85 -82 -54 -153 -111 -246 -198 -39 -36 -91 -80 -116 -99 -25 -19
-53 -41 -62 -49 -9 -9 -23 -21 -30 -26 -18 -14 -184 -159 -230 -201 -21 -19
-38 -40 -38 -47 0 -6 25 -29 56 -50 59 -42 82 -43 121 -10 12 10 31 25 43 33
12 8 33 23 45 33 13 9 28 17 33 17 6 0 23 15 38 33 15 17 29 31 31 29 3 -2 15
8 28 23 14 14 28 26 32 27 20 2 39 14 59 35 12 13 26 23 32 23 5 0 15 14 21
31 8 23 15 30 27 25 12 -4 15 -2 11 9 -4 8 3 21 16 30 12 8 21 18 20 20 -9 16
0 25 25 25 16 0 22 3 15 8 -9 5 -7 16 9 40 11 17 23 32 28 32 4 0 29 20 56 45
27 25 56 51 64 58 63 55 103 129 94 170 -5 24 -10 28 -30 23 -29 -8 -31 5 -4
29 11 10 20 24 20 32 0 7 4 13 9 13 5 0 11 11 13 25 3 14 1 22 -5 18 -5 -3 -6
3 -2 16 5 16 1 26 -11 35 -24 18 -46 10 -85 -30 -36 -37 -65 -48 -32 -11 39
42 55 74 42 83 -8 4 -9 3 -5 -4 5 -8 -1 -12 -14 -12 -11 0 -42 -20 -67 -45
-44 -44 -75 -56 -38 -15 18 19 17 20 -2 20 -11 0 -37 -13 -58 -30 -21 -16 -43
-30 -48 -30 -19 0 54 58 128 102 129 77 283 206 311 261 22 41 11 44 -28 8
-64 -60 -50 -30 18 37 81 81 115 135 96 154 -11 11 -28 -3 -90 -68 -72 -76
-218 -192 -229 -181 -2 3 29 30 69 61 91 70 105 82 146 129 38 44 42 63 10 46
-13 -6 -2 10 25 37 27 27 47 53 45 59 -10 31 -108 -24 -213 -119 -63 -58 -148
-110 -167 -104 -6 2 13 18 44 35 30 18 84 56 118 85 34 29 88 72 118 96 69 52
98 82 80 82 -7 0 -20 -5 -28 -10z m-7 -104 c11 -29 -210 -202 -232 -181 -4 5
122 129 169 167 40 31 55 34 63 14z m47 -100 c0 -3 -4 -8 -10 -11 -5 -3 -10
-1 -10 4 0 6 5 11 10 11 6 0 10 -2 10 -4z"/>
<path d="M4189 8563 c-13 -16 -12 -17 4 -4 9 7 17 15 17 17 0 8 -8 3 -21 -13z"/>
<path d="M6450 8556 c0 -2 8 -10 18 -17 15 -13 16 -12 3 4 -13 16 -21 21 -21
13z"/>
<path d="M9130 8458 c-25 -17 -78 -54 -119 -81 -41 -28 -69 -53 -63 -55 21 -7
108 52 237 160 25 21 -15 4 -55 -24z"/>
<path d="M3869 8323 c-13 -16 -12 -17 4 -4 9 7 17 15 17 17 0 8 -8 3 -21 -13z"/>
<path d="M9585 8308 c-16 -17 -43 -47 -58 -67 -16 -20 -46 -55 -67 -77 -22
-23 -36 -44 -33 -48 4 -3 1 -6 -5 -6 -21 0 -13 -27 10 -33 17 -5 35 8 87 60
l66 66 -64 -57 c-43 -39 -66 -54 -71 -46 -14 23 2 50 67 110 60 57 92 71 85
39 -5 -21 14 0 32 35 11 22 12 33 4 43 -15 18 -19 17 -53 -19z"/>
<path d="M3829 8293 c-13 -16 -12 -17 4 -4 9 7 17 15 17 17 0 8 -8 3 -21 -13z"/>
<path d="M7835 7990 c3 -5 -1 -10 -9 -10 -9 0 -16 -4 -16 -8 0 -4 -23 -26 -52
-47 -78 -60 -189 -166 -182 -176 10 -17 25 -9 93 54 37 34 98 89 134 121 63
56 74 76 41 76 -8 0 -12 -4 -9 -10z"/>
<path d="M7540 7840 c-25 -22 -40 -40 -35 -40 6 1 30 19 55 40 25 22 41 40 35
40 -5 -1 -30 -19 -55 -40z"/>
<path d="M3179 7813 c-13 -16 -12 -17 4 -4 16 13 21 21 13 21 -2 0 -10 -8 -17
-17z"/>
<path d="M3018 7703 c-10 -2 -18 -8 -18 -12 0 -4 -16 -16 -35 -27 -19 -10 -35
-22 -35 -26 0 -5 -5 -8 -10 -8 -10 0 -21 -8 -54 -37 -8 -7 -25 -15 -40 -19
-14 -3 -26 -12 -26 -19 0 -8 -8 -16 -17 -19 -10 -3 -34 -21 -53 -39 -19 -18
-75 -62 -125 -97 -49 -35 -94 -70 -98 -77 -5 -7 -12 -11 -18 -8 -5 4 -9 2 -9
-3 0 -9 -90 -81 -215 -172 -42 -30 -121 -91 -176 -135 -55 -44 -135 -104 -177
-133 -103 -72 -493 -361 -512 -380 -24 -24 41 22 220 154 91 68 220 162 287
211 67 48 163 120 215 160 162 125 687 518 819 613 75 54 113 85 97 79 -2 -1
-11 -3 -20 -6z"/>
<path d="M982 6950 c0 -14 2 -19 5 -12 2 6 2 18 0 25 -3 6 -5 1 -5 -13z"/>
<path d="M1010 6890 c0 -5 5 -10 10 -10 6 0 10 5 10 10 0 6 -4 10 -10 10 -5 0
-10 -4 -10 -10z"/>
<path d="M8800 6876 c0 -2 11 -11 25 -20 25 -17 25 -16 13 4 -11 17 -38 29
-38 16z"/>
<path d="M9050 6711 c0 -6 4 -13 10 -16 6 -3 7 1 4 9 -7 18 -14 21 -14 7z"/>
<path d="M1263 6402 c-59 -43 -144 -102 -188 -132 -79 -54 -96 -67 -145 -110
-20 -18 -17 -17 10 2 19 14 87 61 151 105 64 44 145 102 180 129 36 27 76 57
89 66 14 9 22 17 18 17 -3 1 -55 -34 -115 -77z"/>
<path d="M9540 6366 c0 -2 20 -17 45 -35 25 -18 45 -28 45 -23 0 5 -11 14 -25
20 -14 6 -25 16 -25 21 0 5 -9 11 -20 14 -11 3 -20 4 -20 3z"/>
<path d="M9199 6287 c-85 -45 -133 -157 -89 -207 21 -25 21 -25 10 -1 -16 31
-5 83 23 107 43 38 78 49 153 48 65 -1 83 -6 159 -44 75 -37 86 -46 81 -64 -4
-17 1 -14 24 12 17 18 30 39 30 47 0 8 -16 29 -34 48 -76 73 -266 102 -357 54z"/>
<path d="M9657 6279 c7 -7 15 -10 18 -7 3 3 -2 9 -12 12 -14 6 -15 5 -6 -5z"/>
<path d="M1112 6180 l-47 -36 2 -68 c2 -50 7 -74 20 -88 31 -35 101 -79 156
-97 52 -17 52 -17 114 7 36 13 84 43 113 69 43 38 50 50 50 81 0 40 -29 96
-63 125 -48 39 -88 48 -195 45 -100 -3 -104 -4 -150 -38z"/>
<path d="M9355 5993 c-27 -7 -69 -12 -92 -10 -24 3 -43 3 -43 1 0 -1 13 -12
29 -24 l30 -20 65 26 c37 14 69 30 72 35 6 11 3 10 -61 -8z"/>
<path d="M9790 5456 c0 -2 7 -7 16 -10 8 -3 12 -2 9 4 -6 10 -25 14 -25 6z"/>
<path d="M445 5380 c3 -5 11 -10 16 -10 6 0 7 5 4 10 -3 6 -11 10 -16 10 -6 0
-7 -4 -4 -10z"/>
<path d="M450 5286 c0 -8 5 -18 10 -21 6 -3 10 1 10 9 0 8 -4 18 -10 21 -5 3
-10 -1 -10 -9z"/>
<path d="M395 5280 c-3 -5 -1 -10 4 -10 6 0 11 5 11 10 0 6 -2 10 -4 10 -3 0
-8 -4 -11 -10z"/>
<path d="M9776 5282 c-3 -5 1 -9 9 -9 8 0 12 4 9 9 -3 4 -7 8 -9 8 -2 0 -6 -4
-9 -8z"/>
<path d="M381 5234 c0 -11 3 -14 6 -6 3 7 2 16 -1 19 -3 4 -6 -2 -5 -13z"/>
<path d="M9795 5189 c-4 -6 -4 -13 -1 -16 3 -4 6 -1 6 5 0 6 8 13 18 15 15 4
15 5 0 6 -9 0 -20 -4 -23 -10z"/>
<path d="M406 5157 c3 -10 9 -15 12 -12 3 3 0 11 -7 18 -10 9 -11 8 -5 -6z"/>
<path d="M436 5143 c-6 -14 -5 -15 5 -6 7 7 10 15 7 18 -3 3 -9 -2 -12 -12z"/>
<path d="M1167 5129 c-109 -26 -186 -117 -187 -219 0 -86 79 -141 216 -148
109 -6 180 16 239 73 131 128 34 307 -165 304 -36 -1 -82 -5 -103 -10z"/>
<path d="M9720 5110 c0 -5 10 -10 23 -10 18 0 19 2 7 10 -19 13 -30 13 -30 0z"/>
<path d="M9728 5073 c7 -3 16 -2 19 1 4 3 -2 6 -13 5 -11 0 -14 -3 -6 -6z"/>
<path d="M9666 5047 c3 -10 9 -15 12 -12 3 3 0 11 -7 18 -10 9 -11 8 -5 -6z"/>
<path d="M9776 5044 c-8 -20 -8 -24 2 -24 4 0 8 9 9 20 2 24 -3 26 -11 4z"/>
<path d="M4 4860 c0 -69 1 -97 3 -62 2 34 2 90 0 125 -2 34 -3 6 -3 -63z"/>
<path d="M9700 4950 c13 -24 40 -45 40 -31 0 6 -7 14 -16 18 -8 3 -13 11 -11
18 3 6 -1 12 -8 12 -10 0 -11 -5 -5 -17z"/>
<path d="M310 4941 c0 -6 4 -13 10 -16 6 -3 7 1 4 9 -7 18 -14 21 -14 7z"/>
<path d="M952 4905 c0 -16 2 -22 5 -12 2 9 2 23 0 30 -3 6 -5 -1 -5 -18z"/>
<path d="M9840 4926 c0 -2 8 -10 18 -17 15 -13 16 -12 3 4 -13 16 -21 21 -21
13z"/>
<path d="M812 4883 c-6 -21 -14 -67 -17 -103 -6 -61 -16 -80 -40 -80 -5 1 -1
7 9 15 18 14 18 15 2 15 -9 0 -14 5 -11 10 4 6 3 10 -2 9 -20 -3 -34 2 -28 11
4 6 11 7 17 4 6 -4 8 -2 4 4 -3 6 -15 10 -26 9 -10 -1 -16 -5 -14 -9 7 -11 -4
-10 -27 2 -14 8 -19 7 -19 -2 0 -8 11 -15 26 -16 34 -3 66 -21 61 -35 -2 -7
-11 -11 -21 -9 -9 2 -16 -1 -16 -6 0 -16 13 -22 26 -11 9 7 20 2 42 -19 17
-17 29 -32 27 -34 -3 -2 -5 -28 -6 -56 -1 -30 -7 -52 -13 -52 -6 0 -5 -4 3 -9
7 -5 14 -20 14 -35 0 -14 4 -26 9 -26 5 0 2 -7 -6 -16 -9 -8 -14 -20 -11 -24
3 -5 5 -44 5 -87 -1 -102 -2 -113 -12 -113 -5 0 -4 -8 1 -18 12 -23 -3 -42
-34 -43 -14 0 -16 -2 -5 -6 23 -9 30 -26 17 -42 -9 -11 -9 -15 1 -18 6 -3 12
-9 12 -14 0 -4 -8 -6 -17 -2 -15 5 -16 3 -5 -8 16 -18 15 -29 -3 -29 -8 0 -15
-4 -15 -10 0 -5 7 -7 15 -4 8 4 15 1 15 -5 0 -6 -6 -11 -12 -11 -9 0 -8 -4 2
-10 14 -9 13 -11 -9 -14 -5 0 -13 -5 -18 -10 -4 -5 -3 -6 4 -3 6 4 18 0 27 -8
12 -13 13 -20 4 -34 -9 -15 -8 -22 6 -36 12 -13 14 -21 6 -30 -7 -8 -7 -15 -1
-19 5 -3 12 0 14 6 3 7 6 1 6 -14 1 -28 21 -40 21 -13 0 8 4 15 10 15 6 0 6
-9 0 -25 -7 -18 -6 -23 4 -19 7 3 18 -5 24 -18 l12 -23 -6 25 c-6 22 -5 23 10
8 9 -9 13 -23 10 -31 -7 -20 26 -17 44 3 11 13 13 11 8 -15 -3 -16 -3 -24 0
-17 7 14 24 16 24 2 0 -10 36 -50 44 -50 2 0 2 8 -1 18 -3 13 1 19 12 19 12 0
15 -6 11 -21 -5 -21 -5 -21 9 -2 11 14 15 16 15 5 0 -12 2 -12 10 1 8 13 10
13 10 -2 0 -10 11 -20 26 -24 16 -4 23 -12 20 -20 -5 -13 12 -19 38 -15 5 1 5
-6 2 -16 -4 -9 -4 -14 0 -10 4 4 16 -1 27 -10 10 -10 26 -18 35 -18 10 0 16
-6 15 -12 -2 -7 2 -13 8 -13 5 0 8 -3 6 -7 -3 -5 1 -14 9 -21 8 -7 14 -8 14
-2 0 5 5 10 11 10 5 0 7 -4 4 -10 -3 -5 5 -21 19 -35 15 -14 26 -34 26 -43 0
-9 5 -24 11 -32 9 -12 10 -10 6 8 -5 19 -3 21 9 11 7 -6 11 -16 7 -22 -3 -5
-1 -7 5 -3 6 3 13 2 17 -4 4 -6 11 -7 17 -4 7 5 9 1 5 -9 -6 -16 -4 -16 16 -2
21 13 24 13 39 -4 14 -17 15 -20 2 -25 -9 -3 -12 -11 -8 -17 5 -8 9 -7 14 2 6
8 12 -2 21 -29 12 -42 31 -59 24 -22 -5 23 1 25 20 6 8 -7 11 -17 7 -21 -4 -4
2 -5 13 -3 15 2 20 -2 19 -19 0 -12 3 -20 8 -17 4 3 8 -2 8 -10 0 -15 17 -21
49 -17 7 2 10 -2 6 -8 -9 -16 17 -39 40 -34 16 4 17 3 5 -6 -17 -12 -17 -12
28 -16 19 -1 39 -8 45 -15 9 -10 9 -11 0 -6 -7 4 -13 2 -13 -3 0 -6 5 -11 10
-11 6 0 17 -6 24 -12 14 -13 13 -14 -146 -128 -35 -24 -67 -50 -71 -57 -4 -7
-15 -13 -23 -13 -8 0 -17 -7 -20 -15 -4 -8 -13 -15 -21 -15 -8 0 -11 -4 -8
-10 3 -5 0 -10 -7 -10 -7 0 -33 -18 -58 -41 -24 -22 -57 -47 -72 -55 -70 -36
-198 -136 -261 -202 -70 -75 -86 -133 -32 -112 15 6 27 6 30 -1 4 -5 12 -6 18
-3 7 4 -8 -12 -33 -35 -43 -41 -43 -42 -15 -36 29 7 30 7 8 -9 -22 -17 -66
-35 -96 -41 -22 -5 -106 -75 -161 -134 -23 -24 -48 -51 -57 -61 -11 -11 -14
-23 -8 -31 5 -8 9 -9 9 -4 0 6 4 3 9 -5 8 -12 17 -10 60 10 28 13 51 26 51 30
0 3 17 14 37 24 51 24 29 -1 -45 -51 -31 -21 -77 -54 -102 -73 -25 -19 -47
-36 -49 -37 -2 -2 -2 -6 1 -9 4 -3 39 8 79 25 76 32 105 34 49 4 -18 -10 -40
-26 -49 -35 -8 -10 -20 -18 -25 -18 -16 0 -101 -85 -98 -98 2 -8 -1 -11 -6 -8
-9 5 -52 -37 -52 -52 0 -4 -14 -16 -30 -27 -16 -11 -30 -28 -30 -37 0 -10 -4
-18 -10 -18 -5 0 -10 -7 -10 -15 0 -8 5 -15 10 -15 6 0 10 5 10 10 0 6 5 10
11 10 12 0 46 25 99 74 43 39 152 116 165 116 11 0 -34 -40 -85 -75 -42 -28
-190 -169 -190 -180 0 -4 -10 -16 -22 -26 -20 -18 -20 -19 -2 -19 19 1 56 23
55 34 -4 34 25 59 39 35 5 -7 12 -5 21 7 8 11 34 35 59 54 25 19 47 38 48 42
2 4 9 8 16 8 6 0 34 18 61 40 83 66 103 80 110 80 14 0 -11 -23 -109 -103
-207 -166 -306 -260 -306 -289 0 -20 30 -14 59 13 11 11 37 31 58 45 21 14 56
42 78 63 37 35 181 139 215 155 24 12 -33 -36 -95 -79 -31 -22 -60 -44 -63
-50 -4 -5 -34 -32 -67 -59 -72 -60 -99 -86 -88 -86 4 -1 -12 -18 -36 -39 -26
-23 -41 -43 -36 -50 4 -8 19 -1 44 22 21 19 64 53 97 77 32 24 65 50 72 57 7
7 17 13 22 13 7 0 60 41 140 108 14 12 47 39 73 62 27 22 51 40 55 40 14 -1
-107 -108 -257 -230 -31 -25 -63 -52 -71 -60 -8 -9 -31 -26 -51 -38 -44 -27
-129 -116 -129 -136 0 -21 34 -9 74 28 19 17 56 42 83 56 26 14 59 36 73 48
36 34 61 47 54 27 -4 -8 -9 -15 -13 -15 -4 0 -39 -32 -79 -70 -39 -39 -76 -70
-81 -70 -6 0 -14 -6 -18 -14 -4 -8 -29 -25 -55 -38 -45 -23 -47 -25 -32 -44 8
-10 13 -14 10 -8 -5 10 7 20 34 29 31 10 59 26 65 35 4 6 15 14 25 18 18 7 98
71 140 112 14 13 48 44 75 68 28 24 61 54 75 66 14 12 45 36 70 53 25 17 61
45 80 62 19 17 43 33 53 37 9 3 17 9 17 14 0 4 8 11 18 14 23 8 -45 -51 -153
-133 -49 -38 -133 -109 -185 -158 -52 -50 -117 -108 -143 -129 -27 -22 -71
-60 -98 -86 l-50 -46 43 6 c52 7 111 49 304 219 134 117 284 239 284 230 0 -3
-42 -40 -92 -83 -109 -93 -153 -131 -182 -160 -12 -11 -57 -52 -101 -90 -44
-38 -86 -76 -95 -85 -8 -9 -45 -40 -82 -69 -37 -29 -69 -59 -72 -66 -7 -18 18
-18 36 0 27 26 126 104 164 129 22 14 60 45 85 69 25 24 74 65 110 91 95 71
125 96 198 163 180 167 232 210 311 249 30 15 72 41 93 58 56 44 56 26 0 -20
-56 -46 -113 -82 -166 -107 -21 -10 -80 -57 -130 -105 -116 -110 -172 -160
-273 -244 -94 -78 -131 -122 -109 -131 7 -2 25 4 38 15 14 10 28 19 31 19 3 0
16 9 28 19 13 10 84 69 158 129 74 61 182 153 239 206 57 53 115 99 128 102
12 4 23 10 23 15 0 5 4 9 9 9 5 0 37 18 71 41 77 51 89 46 16 -7 -30 -21 -55
-45 -56 -53 0 -8 -3 -12 -6 -8 -3 3 -20 -8 -36 -24 -17 -16 -38 -28 -47 -27
-10 2 -17 -5 -19 -20 -3 -23 -54 -57 -66 -44 -4 3 -30 -17 -59 -46 -43 -42
-124 -112 -217 -185 -121 -96 -152 -123 -183 -159 -20 -24 -32 -45 -26 -47 6
-2 14 1 18 6 3 5 52 41 109 81 56 39 118 86 139 104 79 71 89 79 208 176 33
27 67 53 76 58 17 9 72 52 123 95 17 14 47 34 66 45 19 10 45 27 57 38 13 11
25 17 28 14 3 -3 -20 -25 -52 -49 -32 -24 -76 -61 -98 -82 -22 -22 -51 -47
-65 -56 -32 -20 -315 -249 -353 -285 -16 -15 -40 -34 -54 -43 -18 -12 -21 -18
-11 -25 10 -6 7 -10 -9 -14 -23 -6 -33 -44 -13 -44 6 0 10 4 10 8 0 5 12 15
28 23 15 8 33 22 40 32 7 9 18 17 24 17 6 0 41 25 77 55 151 126 178 147 270
213 25 19 57 42 71 53 179 134 280 207 280 201 0 -4 -12 -16 -27 -27 -66 -49
-128 -114 -117 -125 11 -11 74 5 74 20 0 4 13 10 29 13 30 6 32 8 99 86 24 28
59 56 77 62 18 7 40 25 49 41 10 15 21 28 25 28 4 0 30 21 58 48 27 26 67 62
89 81 21 19 68 61 104 94 36 33 85 73 110 89 l45 30 -35 -33 c-206 -189 -330
-323 -330 -355 0 -8 3 -14 6 -14 10 0 79 54 145 115 59 53 102 87 188 149 14
10 -10 -16 -54 -58 -44 -41 -83 -76 -87 -76 -4 0 -5 -7 -2 -15 4 -9 0 -15 -8
-15 -7 0 -21 -12 -30 -27 -9 -16 -30 -41 -47 -58 -17 -16 -31 -35 -31 -42 0
-6 -8 -18 -19 -25 -19 -14 -37 -54 -32 -77 1 -7 -2 -10 -7 -7 -12 7 -62 -31
-62 -49 0 -7 10 -15 22 -18 22 -6 56 11 54 28 0 6 16 11 36 13 25 2 42 10 48
22 6 11 26 22 44 26 19 3 37 12 40 20 3 8 12 14 20 14 9 0 20 9 26 20 6 11 36
39 68 62 31 24 60 47 63 52 4 4 8 3 10 -3 5 -15 62 14 127 65 27 21 58 45 68
52 11 7 12 10 4 7 -8 -4 -6 1 4 9 11 9 25 16 32 16 7 0 16 9 19 20 3 11 15 20
26 20 10 0 19 5 19 10 0 6 5 10 11 10 6 0 33 16 59 35 33 24 50 31 58 23 7 -7
14 -4 24 11 15 24 28 27 28 6 0 -20 32 -35 61 -29 16 4 20 3 11 -3 -9 -7 -6
-13 13 -23 14 -7 25 -17 25 -22 0 -4 11 -8 25 -8 13 0 29 -8 34 -17 8 -14 11
-15 11 -3 0 8 7 1 16 -17 9 -17 25 -33 36 -36 14 -4 18 -11 13 -25 -5 -17 -2
-19 15 -15 14 4 28 -3 43 -21 12 -14 31 -26 40 -26 10 0 28 -11 40 -23 31 -33
60 -47 77 -37 20 12 33 1 19 -16 -9 -11 -7 -14 11 -14 18 0 22 -4 18 -25 -5
-21 -2 -25 14 -19 22 7 71 -37 87 -78 7 -18 20 -28 43 -33 18 -4 44 -18 57
-31 22 -22 35 -28 54 -25 4 0 7 -5 7 -12 1 -18 47 -67 65 -67 8 0 15 -8 15
-17 0 -14 2 -15 9 -5 6 10 11 5 21 -17 8 -19 20 -31 31 -31 14 0 19 -7 19 -30
0 -16 4 -30 10 -30 5 0 9 5 7 11 -1 6 4 14 12 17 10 3 12 0 8 -10 -6 -18 30
-38 68 -38 28 0 32 -12 10 -34 -18 -17 -19 -26 -4 -26 6 0 22 -9 36 -20 14
-11 29 -17 34 -14 5 3 9 -1 9 -8 0 -7 13 -22 29 -33 16 -10 29 -24 28 -30 -1
-5 11 -11 27 -13 22 -3 26 -6 15 -13 -11 -7 -9 -9 9 -9 12 0 22 -6 22 -14 0
-8 11 -17 25 -20 14 -4 23 -11 20 -16 -4 -6 7 -10 23 -10 20 0 37 -9 54 -29
13 -17 36 -35 51 -40 15 -6 27 -17 27 -24 0 -18 112 -123 141 -132 34 -10 90
-55 84 -66 -4 -5 -2 -9 4 -9 5 0 13 5 16 11 4 6 17 -4 31 -25 13 -19 33 -37
44 -41 23 -7 26 -21 8 -28 -10 -4 -10 -6 -1 -6 6 -1 15 4 18 9 13 21 34 8 51
-30 12 -27 25 -41 38 -42 47 -3 51 -4 48 -17 -2 -8 4 -10 18 -6 16 5 29 -1 51
-24 16 -17 35 -31 42 -32 97 -6 140 -3 157 13 13 13 20 14 23 5 4 -9 6 -9 6 1
1 6 9 12 19 12 10 0 24 9 32 20 8 11 20 20 28 20 23 0 41 26 38 53 -2 15 0 24
5 22 4 -3 11 0 15 6 5 8 9 8 14 -2 7 -10 11 -9 22 2 8 8 31 23 51 34 28 14 37
26 39 50 2 22 9 31 26 33 16 3 22 10 22 30 1 25 2 26 15 9 13 -18 14 -18 25 2
6 12 16 19 21 15 6 -3 9 2 7 12 -2 14 9 24 39 38 23 10 44 27 46 37 4 14 14
19 41 19 29 0 36 4 36 20 0 11 7 20 15 20 8 0 15 5 15 10 0 6 9 10 20 10 15 0
22 9 27 30 4 21 11 30 24 30 12 0 19 7 19 20 0 11 7 20 15 20 8 0 20 9 27 20
8 12 24 20 40 20 17 0 29 7 33 19 3 11 24 26 45 35 31 12 40 21 40 39 0 23 40
67 61 67 7 0 19 8 28 18 9 10 26 19 38 19 21 2 73 40 73 54 0 4 5 20 11 36 10
26 12 27 20 8 8 -19 8 -19 15 2 4 15 14 23 29 23 12 0 41 17 64 39 29 27 41
34 41 22 1 -14 2 -14 11 2 5 9 17 17 26 17 18 0 63 48 63 68 0 6 5 12 10 12 6
0 10 7 10 16 0 20 24 44 44 44 8 0 18 9 21 21 5 16 12 19 31 15 14 -4 24 -2
24 4 0 5 8 18 18 28 9 10 22 27 28 38 6 10 20 23 32 29 11 5 23 17 25 27 3 10
13 18 24 18 10 1 36 23 58 50 33 41 46 50 73 50 43 0 67 13 85 47 8 16 21 41
30 57 13 24 97 76 97 59 0 -3 13 9 29 26 16 17 36 31 45 31 9 0 24 9 33 20 10
11 23 20 30 20 7 0 13 7 13 15 0 8 9 15 20 15 11 0 20 5 20 10 0 6 -4 10 -10
10 -5 0 -10 5 -10 10 0 6 7 10 15 10 8 0 15 7 15 15 0 8 4 15 9 15 5 0 17 7
26 16 15 15 17 15 29 -2 13 -17 14 -17 20 4 4 12 12 22 17 22 5 0 9 8 9 19 0
24 25 47 35 31 5 -8 13 -6 26 6 10 9 24 14 32 11 9 -3 19 7 27 29 13 33 40 51
59 39 6 -3 15 4 21 15 6 11 17 20 25 20 7 0 17 5 21 12 5 8 2 9 -9 5 -10 -3
-17 -2 -17 3 0 12 36 31 44 23 3 -3 6 -1 6 6 0 7 4 9 10 6 6 -3 7 1 4 10 -5
11 -2 14 10 9 11 -4 16 -1 16 10 0 9 7 16 16 16 11 0 15 6 11 20 -3 11 -1 18
4 14 5 -3 9 2 9 11 0 10 6 15 13 12 9 -3 13 3 13 17 -1 16 5 21 24 21 15 0 29
9 36 22 10 21 12 21 33 6 23 -15 23 -15 11 7 -9 16 -9 20 -1 15 7 -4 18 -1 26
5 8 7 15 9 15 4 0 -5 6 2 13 16 9 18 20 24 37 23 14 -1 19 0 13 3 -22 10 -14
19 18 20 17 1 35 6 41 12 8 8 5 9 -10 5 -16 -4 -21 -1 -19 15 1 16 4 18 20 8
14 -9 20 -8 28 7 6 9 18 17 27 17 18 0 79 69 74 83 -1 5 2 6 7 3 5 -4 12 3 16
14 6 18 23 24 63 23 8 -1 10 6 7 17 -4 14 -1 16 20 12 20 -3 25 0 25 16 0 26
26 48 34 30 3 -7 3 -3 0 10 -5 19 -2 23 13 22 33 -4 43 0 43 16 0 10 6 13 19
9 10 -3 24 1 31 10 7 8 16 13 20 10 5 -3 6 4 3 15 -4 14 0 20 12 20 15 0 15 2
4 16 -11 14 -10 15 7 12 10 -1 23 -7 27 -13 5 -6 7 -4 6 5 -2 25 1 44 10 59 8
12 12 12 25 2 11 -9 16 -10 16 -2 0 6 3 10 8 10 22 -4 34 3 29 15 -4 9 2 17
14 21 11 4 24 16 29 28 7 18 9 18 9 5 1 -10 5 -18 11 -18 5 0 7 7 3 16 -4 12
-2 15 8 12 8 -3 20 2 28 9 7 8 19 12 26 9 8 -3 11 2 8 15 -4 14 0 19 15 19 11
0 23 7 26 16 4 10 14 14 26 11 13 -3 20 0 20 10 0 8 -6 13 -13 10 -8 -3 -14 3
-14 14 -2 23 1 24 22 3 12 -13 19 -14 30 -4 8 7 15 18 15 25 0 15 27 28 40 20
5 -3 7 4 5 15 -4 23 -1 24 26 10 15 -8 19 -7 19 4 0 8 -6 16 -12 19 -7 3 -3 4
10 4 12 -1 22 -6 22 -11 0 -5 3 -7 6 -4 3 4 1 15 -5 26 -9 17 -8 19 9 15 11
-3 17 -10 14 -15 -3 -5 3 -4 14 3 16 10 18 18 12 40 -7 22 -5 27 6 22 8 -3 11
-9 8 -14 -3 -5 0 -9 6 -9 7 0 9 8 5 20 -5 15 -2 20 12 21 10 1 25 3 33 4 8 1
20 3 27 4 6 0 9 10 5 24 -5 22 -5 22 16 3 21 -18 22 -18 22 -1 0 14 3 15 14 6
11 -9 13 -6 11 13 -2 14 -7 31 -11 38 -6 10 -5 11 7 1 22 -18 58 -13 54 8 -2
12 1 16 10 13 18 -7 30 15 16 29 -16 16 -14 30 4 23 8 -3 15 -1 15 4 0 6 9 10
21 10 14 0 19 5 16 15 -4 8 -1 17 5 21 7 4 8 3 4 -4 -12 -19 3 -14 27 9 12 12
16 19 9 15 -7 -4 -12 -1 -12 7 0 10 7 13 19 10 13 -3 21 2 26 16 3 11 12 20
18 18 7 -1 11 4 9 11 -1 6 3 12 9 12 5 0 8 4 5 9 -4 5 5 8 19 6 19 -2 23 1 15
10 -12 14 -3 25 21 25 13 0 16 6 11 22 -3 15 -2 19 7 14 6 -4 11 -4 10 1 -3
10 12 46 21 53 4 3 13 18 21 35 8 16 28 38 44 50 29 19 30 23 30 97 0 43 4 78
8 78 5 0 6 4 2 9 -3 5 -1 12 5 16 5 3 10 16 10 28 -1 18 -3 17 -14 -9 -8 -17
-28 -41 -46 -55 -17 -13 -55 -45 -83 -70 -81 -72 -217 -173 -275 -204 -30 -16
-64 -41 -76 -55 -12 -14 -51 -46 -86 -70 -36 -24 -89 -63 -118 -87 -30 -24
-58 -43 -63 -43 -5 0 -8 -6 -7 -12 2 -7 -3 -12 -11 -10 -8 2 -26 -8 -40 -21
-23 -21 -84 -66 -181 -136 l-35 -25 30 31 c17 17 125 101 240 187 473 353 723
553 743 593 4 10 7 44 6 76 -1 32 4 64 10 70 15 17 18 37 6 37 -5 0 -10 4 -10
9 0 6 8 8 18 6 11 -2 19 3 19 10 0 7 -6 11 -12 8 -16 -6 -28 23 -30 70 -1 20
-7 43 -14 50 -9 8 -11 9 -9 0 2 -6 -49 -52 -112 -102 -63 -51 -151 -120 -195
-155 -44 -35 -168 -129 -275 -209 -107 -80 -273 -206 -368 -282 -166 -130
-353 -275 -622 -483 -69 -53 -203 -160 -299 -237 -95 -77 -199 -160 -231 -185
-32 -25 -111 -88 -176 -141 -66 -53 -144 -114 -174 -136 -30 -22 -129 -100
-220 -174 -91 -74 -194 -157 -230 -185 -36 -27 -135 -105 -220 -172 -85 -68
-182 -144 -215 -170 -33 -25 -87 -69 -120 -97 -33 -28 -89 -73 -125 -100 -36
-27 -95 -74 -131 -104 -79 -66 -91 -76 -364 -279 -116 -86 -241 -181 -278
-210 l-67 -54 -34 30 c-18 16 -57 43 -87 61 -30 17 -88 58 -129 91 -41 33
-113 87 -160 120 -47 33 -121 90 -166 127 -44 38 -109 88 -144 113 -34 25
-142 108 -240 185 -98 77 -218 169 -266 205 -102 76 -398 299 -494 374 -36 28
-164 125 -285 216 -121 91 -247 186 -280 211 -33 25 -134 101 -225 168 -91 67
-223 166 -295 221 -71 55 -160 121 -197 147 -97 69 -348 258 -437 329 -42 33
-116 89 -166 124 -49 35 -112 82 -140 105 -27 23 -106 83 -175 135 -127 95
-182 137 -318 246 -43 33 -123 95 -179 138 -57 43 -103 82 -103 87 0 6 4 8 8
5 5 -3 9 8 10 24 1 39 -2 38 -16 -7z m8968 -151 c0 -4 -35 -32 -77 -62 -42
-30 -122 -91 -177 -135 -56 -45 -162 -127 -236 -183 -74 -56 -184 -141 -245
-188 -206 -159 -337 -259 -380 -289 -49 -34 -262 -201 -523 -410 -96 -77 -202
-160 -235 -184 -34 -24 -120 -91 -193 -150 -277 -223 -507 -401 -517 -401 -21
0 203 185 314 260 35 24 85 64 111 88 57 53 228 188 304 238 30 20 58 43 64
53 5 9 10 13 10 9 0 -4 12 4 28 19 43 40 209 173 297 238 44 32 108 83 143
112 82 70 208 163 221 163 5 0 11 3 13 8 4 9 170 141 278 222 47 34 126 95
175 135 50 40 122 95 160 122 39 26 111 81 160 120 118 95 288 223 298 223 4
0 7 -4 7 -8z m-160 -557 c0 -8 -4 -15 -10 -15 -5 0 -7 7 -4 15 4 8 8 15 10 15
2 0 4 -7 4 -15z m-380 -355 c0 -5 -2 -10 -4 -10 -3 0 -8 5 -11 10 -3 6 -1 10
4 10 6 0 11 -4 11 -10z m-490 -64 c0 -2 -12 -11 -27 -20 l-28 -17 24 20 c23
21 31 25 31 17z m387 -28 c-3 -8 -6 -5 -6 6 -1 11 2 17 5 13 3 -3 4 -12 1 -19z
m-397 -2 c0 -2 -21 -21 -47 -42 -27 -21 -39 -28 -29 -16 11 12 16 22 12 22 -6
0 -84 -54 -133 -93 -7 -5 -13 -7 -13 -4 0 3 36 33 80 66 43 34 77 54 73 45 -5
-14 -3 -15 15 -5 11 6 24 16 27 21 6 10 15 14 15 6z m-300 -223 c0 -9 -62 -63
-72 -63 -5 0 -14 -4 -21 -10 -37 -30 -133 -104 -214 -164 -51 -37 -93 -72 -93
-76 0 -5 -12 -15 -27 -23 -16 -7 -27 -19 -25 -26 1 -7 -1 -10 -6 -7 -8 5 -43
-21 -240 -183 -52 -42 -108 -85 -126 -96 -18 -11 -58 -43 -89 -71 -31 -28 -91
-79 -134 -114 -43 -34 -96 -76 -117 -94 -21 -17 -51 -38 -65 -47 -14 -9 -100
-78 -191 -154 -91 -75 -176 -145 -190 -154 -34 -22 -224 -168 -275 -211 -22
-19 -58 -48 -80 -65 -21 -16 -61 -48 -89 -70 -148 -117 -276 -214 -297 -225
-12 -7 -43 -32 -68 -55 -49 -45 -253 -210 -291 -235 -61 -40 -229 -170 -304
-234 -86 -75 -92 -78 -106 -61 -14 16 -7 23 97 98 82 59 308 234 455 352 54
44 147 117 206 163 127 98 261 205 311 248 20 17 86 68 146 114 214 162 361
275 441 340 45 36 125 99 179 140 167 129 317 248 385 303 36 30 103 82 150
117 47 35 150 116 229 180 79 63 192 151 250 195 58 45 139 107 180 138 71 54
91 65 91 50z m130 -198 c0 -8 -7 -15 -15 -15 -13 0 -14 3 -3 15 16 18 18 18
18 0z m-6420 -28 c0 -4 -80 -70 -235 -196 -44 -36 -109 -90 -145 -121 -138
-118 -313 -241 -329 -230 -9 5 -8 10 4 20 8 7 15 23 15 36 0 12 5 26 10 29 6
4 8 11 5 16 -4 5 3 9 13 9 11 0 23 7 26 16 3 8 10 12 16 9 5 -3 10 -1 10 4 0
6 11 11 25 11 14 0 35 9 47 20 12 10 24 17 29 15 4 -3 5 3 2 13 -4 18 22 50
33 40 3 -3 31 20 62 51 31 31 77 72 101 91 25 19 63 51 85 70 60 52 105 82
134 89 30 8 92 13 92 8z m-6 -185 c-133 -121 -200 -176 -289 -243 -55 -41
-138 -105 -185 -142 -89 -72 -264 -193 -318 -221 -25 -13 -32 -14 -32 -3 0 15
32 46 110 105 30 22 102 80 160 127 58 48 148 119 200 158 52 39 118 92 146
118 95 86 159 129 192 129 17 0 34 5 37 11 4 6 10 7 13 4 4 -4 -11 -23 -34
-43z m142 -31 c-4 -5 -1 -11 6 -13 9 -3 8 -9 -2 -21 -20 -23 -404 -329 -559
-444 -35 -27 -84 -66 -110 -87 -25 -22 -82 -63 -126 -91 -44 -29 -114 -79
-155 -112 -84 -68 -207 -146 -230 -146 -8 0 -18 -5 -22 -11 -6 -8 -8 -8 -8 0
0 15 46 60 99 99 23 17 68 53 100 80 32 28 111 86 175 130 174 119 353 255
541 411 50 41 133 106 185 144 89 65 119 83 106 61z m81 -146 c-38 -36 -103
-89 -145 -119 -66 -46 -297 -233 -357 -289 -28 -26 -345 -246 -409 -283 -50
-30 -53 -30 -49 -10 3 11 29 39 60 61 30 22 62 48 71 58 9 9 22 17 28 17 7 0
14 3 16 8 2 4 35 29 73 56 116 81 177 128 230 178 150 140 497 389 539 388 6
-1 -20 -30 -57 -65z m143 -40 c0 -8 -39 -47 -87 -87 -47 -40 -129 -111 -182
-157 -53 -45 -132 -108 -176 -139 -44 -30 -107 -81 -140 -112 -64 -60 -106
-90 -227 -163 -95 -57 -125 -62 -71 -11 21 20 54 47 74 59 19 13 64 50 100 84
35 34 106 94 157 134 52 39 138 108 192 153 133 110 334 253 358 254 1 0 2 -7
2 -15z m5431 -38 c-10 -9 -11 -8 -5 6 3 10 9 15 12 12 3 -3 0 -11 -7 -18z
m-5290 -16 c-18 -33 -166 -165 -318 -284 -81 -64 -186 -148 -233 -187 -77 -65
-260 -205 -335 -257 -16 -11 -41 -24 -54 -28 l-24 -7 22 30 c12 17 65 66 119
109 53 42 120 98 147 123 28 26 75 64 105 85 30 21 109 82 175 136 280 227
375 299 396 299 6 0 6 -8 0 -19z m88 -105 c-102 -93 -298 -262 -349 -301 -81
-61 -197 -156 -314 -255 -222 -187 -376 -303 -376 -282 0 11 154 159 220 212
30 24 71 59 90 76 74 67 308 262 364 304 33 24 94 73 135 110 42 36 109 92
150 123 65 50 76 56 84 42 6 -12 5 -21 -4 -29z m4381 -48 c-82 -75 -253 -209
-258 -203 -7 7 60 72 128 126 54 43 163 119 170 119 3 -1 -15 -19 -40 -42z
m-4216 -1 c-5 -13 -111 -105 -194 -168 -112 -85 -254 -200 -355 -289 -161
-141 -271 -230 -284 -230 -6 0 -11 -4 -11 -10 0 -5 -6 -10 -14 -10 -7 0 -19
-7 -26 -15 -7 -8 -17 -15 -23 -15 -17 0 163 180 268 268 33 28 110 94 170 146
161 140 263 222 352 282 74 51 128 70 117 41z m19 -158 c-29 -28 -57 -47 -63
-44 -5 3 -10 2 -10 -3 0 -5 -7 -9 -15 -9 -8 0 -15 2 -15 4 0 9 59 63 90 82 61
37 67 23 13 -30z m-1641 -65 c-16 -16 -62 -56 -103 -88 -111 -89 -104 -85 -88
-58 8 12 17 22 22 22 4 0 6 4 3 9 -8 12 75 90 121 114 63 33 68 35 71 32 2 -1
-10 -15 -26 -31z m5427 -98 c-38 -36 -175 -146 -182 -146 -30 0 143 142 182
149 2 1 2 -1 0 -3z m-5319 -150 c0 -8 -17 -28 -37 -43 -21 -15 -44 -34 -51
-41 -8 -7 -18 -10 -23 -6 -5 3 -8 1 -7 -3 3 -11 -118 -116 -144 -126 -10 -3
-18 -2 -18 3 0 6 5 10 10 10 6 0 10 7 10 15 0 9 7 18 15 22 9 3 33 22 53 42
21 20 51 46 68 59 120 92 124 94 124 68z m56 -151 c-8 -8 -19 -15 -25 -15 -5
0 -13 -5 -17 -12 -5 -7 -2 -9 7 -4 18 10 -46 -48 -91 -82 -19 -14 -59 -44 -88
-65 -29 -22 -55 -37 -58 -34 -10 9 72 91 153 153 105 79 102 77 116 91 19 17
22 -14 3 -32z m4834 -45 c-71 -64 -129 -105 -137 -96 -3 3 -4 7 -2 9 2 1 31
25 63 52 110 92 169 119 76 35z m-4640 9 c0 -7 -10 -21 -22 -31 -63 -55 -106
-88 -117 -88 -6 0 -11 -5 -11 -11 0 -5 -4 -8 -9 -4 -6 3 -19 -4 -30 -17 -12
-12 -24 -18 -28 -15 -11 11 86 105 147 142 61 37 70 40 70 24z m4210 -344 c-7
-9 -15 -13 -17 -11 -7 7 7 26 19 26 6 0 6 -6 -2 -15z m-310 -234 c0 -5 -7 -12
-16 -15 -14 -5 -15 -4 -4 9 14 17 20 19 20 6z m137 -437 c-3 -3 -12 -4 -19 -1
-8 3 -5 6 6 6 11 1 17 -2 13 -5z"/>
<path d="M1435 2239 c-4 -6 -4 -13 -1 -16 3 -4 6 -1 6 5 0 6 8 13 18 15 15 4
15 5 0 6 -9 0 -20 -4 -23 -10z"/>
<path d="M960 4860 c1 -8 7 -24 15 -34 19 -25 19 -16 0 20 -8 16 -15 22 -15
14z"/>
<path d="M775 4849 c-4 -6 -5 -12 -2 -15 2 -3 7 2 10 11 7 17 1 20 -8 4z"/>
<path d="M390 4846 c0 -2 7 -7 16 -10 8 -3 12 -2 9 4 -6 10 -25 14 -25 6z"/>
<path d="M360 4829 c0 -5 5 -7 10 -4 6 3 10 8 10 11 0 2 -4 4 -10 4 -5 0 -10
-5 -10 -11z"/>
<path d="M632 4806 c7 -8 15 -12 17 -11 5 6 -10 25 -20 25 -5 0 -4 -6 3 -14z"/>
<path d="M770 4800 c0 -6 -4 -8 -10 -5 -5 3 -10 1 -10 -4 0 -13 27 -14 35 -2
3 5 1 12 -5 16 -5 3 -10 1 -10 -5z"/>
<path d="M394 4786 c11 -9 24 -16 30 -16 12 0 7 5 -24 19 -24 11 -24 11 -6 -3z"/>
<path d="M446 4768 c3 -5 10 -6 15 -3 13 9 11 12 -6 12 -8 0 -12 -4 -9 -9z"/>
<path d="M418 4743 c6 -2 9 -10 6 -15 -4 -7 -2 -8 4 -4 18 11 14 26 -5 25 -11
0 -13 -3 -5 -6z"/>
<path d="M646 4732 c6 -4 15 -16 21 -26 9 -17 11 -16 11 7 0 21 -5 27 -22 27
-12 0 -16 -3 -10 -8z"/>
<path d="M2 4710 c0 -14 2 -19 5 -12 2 6 2 18 0 25 -3 6 -5 1 -5 -13z"/>
<path d="M346 4715 c4 -8 8 -15 10 -15 2 0 4 7 4 15 0 8 -4 15 -10 15 -5 0 -7
-7 -4 -15z"/>
<path d="M508 4678 c5 -5 16 -8 23 -6 8 3 3 7 -10 11 -17 4 -21 3 -13 -5z"/>
<path d="M587 4675 c-4 -8 -2 -17 3 -20 6 -4 10 3 10 14 0 25 -6 27 -13 6z"/>
<path d="M539 4653 c-13 -17 -13 -17 6 -3 11 8 22 16 24 17 2 2 0 3 -6 3 -6 0
-17 -8 -24 -17z"/>
<path d="M710 4665 c0 -5 5 -17 10 -25 5 -8 10 -10 10 -5 0 6 -5 17 -10 25 -5
8 -10 11 -10 5z"/>
<path d="M749 4654 c-12 -16 -12 -17 3 -11 9 3 19 1 21 -6 2 -7 8 -9 13 -4 4
4 1 14 -7 23 -14 13 -17 13 -30 -2z"/>
<path d="M650 4653 c0 -24 2 -28 14 -25 8 2 7 0 -1 -9 -10 -10 -15 -9 -28 1
-22 18 -19 4 5 -20 16 -16 20 -17 20 -5 0 8 7 15 15 15 9 0 12 6 8 17 -5 12
-3 14 7 8 9 -5 11 -4 6 4 -4 6 -12 8 -18 5 -6 -4 -14 0 -19 7 -6 10 -9 11 -9
2z"/>
<path d="M357 4639 c7 -7 15 -10 18 -7 3 3 -2 9 -12 12 -14 6 -15 5 -6 -5z"/>
<path d="M511 4634 c0 -11 3 -14 6 -6 3 7 2 16 -1 19 -3 4 -6 -2 -5 -13z"/>
<path d="M3 4585 c0 -33 2 -45 4 -27 2 18 2 45 0 60 -2 15 -4 0 -4 -33z"/>
<path d="M445 4620 c3 -5 11 -10 16 -10 6 0 7 5 4 10 -3 6 -11 10 -16 10 -6 0
-7 -4 -4 -10z"/>
<path d="M750 4620 c0 -5 5 -10 11 -10 5 0 7 5 4 10 -3 6 -8 10 -11 10 -2 0
-4 -4 -4 -10z"/>
<path d="M550 4601 c0 -11 -5 -22 -10 -24 -6 -3 -5 -4 1 -3 15 3 32 46 19 46
-6 0 -10 -9 -10 -19z"/>
<path d="M9876 4612 c-3 -5 1 -9 9 -9 8 0 12 4 9 9 -3 4 -7 8 -9 8 -2 0 -6 -4
-9 -8z"/>
<path d="M603 4592 c1 -12 6 -18 15 -15 7 3 10 9 5 12 -4 3 -11 10 -15 15 -4
4 -6 -1 -5 -12z"/>
<path d="M780 4600 c0 -5 -8 -7 -17 -4 -14 5 -15 4 -4 -4 7 -5 10 -15 7 -21
-4 -6 0 -11 8 -11 10 0 16 9 16 25 0 14 -2 25 -5 25 -3 0 -5 -4 -5 -10z"/>
<path d="M322 4584 c-7 -8 -8 -14 -3 -14 10 0 25 19 20 25 -2 1 -10 -3 -17
-11z"/>
<path d="M480 4592 c0 -5 7 -9 15 -9 8 0 15 4 15 9 0 4 -7 8 -15 8 -8 0 -15
-4 -15 -8z"/>
<path d="M575 4590 c3 -5 8 -10 11 -10 2 0 4 5 4 10 0 6 -5 10 -11 10 -5 0 -7
-4 -4 -10z"/>
<path d="M410 4585 c0 -5 5 -17 10 -25 5 -8 10 -10 10 -5 0 6 -5 17 -10 25 -5
8 -10 11 -10 5z"/>
<path d="M456 4577 c3 -10 9 -15 12 -12 3 3 0 11 -7 18 -10 9 -11 8 -5 -6z"/>
<path d="M667 4553 c5 -12 3 -14 -7 -8 -8 5 -11 4 -6 -3 4 -6 13 -9 22 -5 11
4 12 9 3 19 -15 19 -20 18 -12 -3z"/>
<path d="M480 4549 c0 -5 5 -7 10 -4 6 3 10 8 10 11 0 2 -4 4 -10 4 -5 0 -10
-5 -10 -11z"/>
<path d="M561 4553 c-1 -6 4 -15 10 -19 8 -4 7 -9 -2 -16 -11 -8 -11 -9 1 -5
8 2 17 12 18 22 2 10 0 15 -6 11 -6 -3 -13 0 -15 6 -4 9 -6 10 -6 1z"/>
<path d="M713 4546 c0 -8 6 -12 14 -9 7 3 10 9 7 14 -8 14 -21 11 -21 -5z"/>
<path d="M530 4530 c0 -5 5 -10 10 -10 6 0 10 5 10 10 0 6 -4 10 -10 10 -5 0
-10 -4 -10 -10z"/>
<path d="M9129 4497 c-79 -60 -209 -167 -209 -173 0 -3 54 37 121 88 66 51
128 99 136 105 9 7 15 15 12 17 -2 3 -29 -14 -60 -37z"/>
<path d="M360 4519 c-12 -8 -10 -9 7 -4 12 3 24 1 28 -5 3 -5 11 -10 18 -10 6
0 2 7 -9 15 -23 17 -25 18 -44 4z"/>
<path d="M606 4521 c-3 -5 1 -11 9 -14 9 -4 12 -1 8 9 -6 16 -10 17 -17 5z"/>
<path d="M753 4516 c24 -18 4 -31 -22 -14 -23 14 -40 3 -23 -14 9 -9 12 -9 12
1 0 7 5 9 10 6 6 -4 8 -11 4 -16 -3 -5 0 -8 8 -7 8 2 12 -4 10 -15 -2 -14 1
-14 20 5 l24 23 -24 23 c-13 12 -26 22 -30 22 -4 0 1 -7 11 -14z m27 -30 c0
-3 -4 -8 -10 -11 -5 -3 -10 -1 -10 4 0 6 5 11 10 11 6 0 10 -2 10 -4z"/>
<path d="M4 4220 c0 -168 2 -236 3 -152 2 83 2 221 0 305 -1 83 -3 15 -3 -153z"/>
<path d="M300 4510 c-8 -5 -11 -12 -7 -16 4 -4 13 -2 19 4 15 15 7 24 -12 12z"/>
<path d="M653 4512 c-8 -5 -9 -13 -3 -22 8 -13 10 -13 10 2 0 9 6 19 13 21 6
3 8 6 2 6 -5 0 -15 -3 -22 -7z"/>
<path d="M556 4484 c-5 -14 -4 -15 9 -4 17 14 19 20 6 20 -5 0 -12 -7 -15 -16z"/>
<path d="M445 4474 c9 -9 19 -13 23 -10 3 4 0 11 -8 16 -24 15 -33 11 -15 -6z"/>
<path d="M498 4483 c7 -3 16 -2 19 1 4 3 -2 6 -13 5 -11 0 -14 -3 -6 -6z"/>
<path d="M9049 4473 c-13 -16 -12 -17 4 -4 9 7 17 15 17 17 0 8 -8 3 -21 -13z"/>
<path d="M9800 4486 c0 -2 7 -7 16 -10 8 -3 12 -2 9 4 -6 10 -25 14 -25 6z"/>
<path d="M490 4465 c0 -5 5 -17 10 -25 5 -8 10 -10 10 -5 0 6 -5 17 -10 25 -5
8 -10 11 -10 5z"/>
<path d="M563 4455 c-16 -18 -16 -25 0 -25 7 0 13 9 14 20 2 23 2 24 -14 5z"/>
<path d="M710 4461 c0 -10 19 -25 25 -20 1 2 -3 10 -11 17 -8 7 -14 8 -14 3z"/>
<path d="M638 4453 c6 -2 9 -10 6 -15 -4 -7 -2 -8 4 -4 18 11 14 26 -5 25 -11
0 -13 -3 -5 -6z"/>
<path d="M776 4444 c-5 -14 -4 -15 9 -4 17 14 19 20 6 20 -5 0 -12 -7 -15 -16z"/>
<path d="M435 4440 c-3 -5 1 -10 10 -10 9 0 13 5 10 10 -3 6 -8 10 -10 10 -2
0 -7 -4 -10 -10z"/>
<path d="M276 4413 c-6 -14 -5 -15 5 -6 7 7 10 15 7 18 -3 3 -9 -2 -12 -12z"/>
<path d="M712 4414 c10 -10 20 -16 22 -13 3 3 -5 11 -17 18 -21 13 -21 12 -5
-5z"/>
<path d="M505 4412 c4 -9 0 -15 -15 -19 -15 -4 -18 -8 -9 -13 7 -5 19 -2 27 7
12 11 12 17 2 26 -10 9 -11 9 -5 -1z"/>
<path d="M571 4403 c12 -15 12 -16 -3 -10 -12 4 -15 2 -11 -9 4 -11 8 -12 19
-3 11 9 11 15 3 25 -6 8 -14 14 -16 14 -3 0 1 -8 8 -17z"/>
<path d="M610 4409 c0 -5 5 -7 10 -4 6 3 10 8 10 11 0 2 -4 4 -10 4 -5 0 -10
-5 -10 -11z"/>
<path d="M645 4411 c-3 -5 -2 -12 3 -15 5 -3 9 1 9 9 0 17 -3 19 -12 6z"/>
<path d="M355 4380 c3 -5 8 -10 11 -10 2 0 4 5 4 10 0 6 -5 10 -11 10 -5 0 -7
-4 -4 -10z"/>
<path d="M404 4378 c-5 -8 -2 -9 9 -5 9 3 19 2 22 -3 4 -6 11 -10 18 -10 11 0
-23 29 -35 30 -4 0 -10 -5 -14 -12z"/>
<path d="M602 4370 c0 -14 2 -19 5 -12 2 6 2 18 0 25 -3 6 -5 1 -5 -13z"/>
<path d="M702 4374 c-6 -11 -11 -13 -16 -5 -9 14 -26 14 -26 0 0 -5 5 -7 10
-4 6 3 10 1 10 -4 0 -18 19 -12 30 9 13 24 5 27 -8 4z"/>
<path d="M290 4361 c0 -5 -9 -13 -21 -16 -11 -4 -18 -9 -16 -12 3 -2 18 2 33
10 17 9 23 17 15 21 -6 4 -11 3 -11 -3z"/>
<path d="M530 4359 c0 -5 -6 -7 -12 -3 -10 6 -10 5 -1 -8 7 -8 9 -19 5 -23 -4
-5 -1 -5 6 -1 7 4 10 12 7 17 -4 5 1 9 10 9 9 0 13 5 10 10 -8 13 -25 13 -25
-1z"/>
<path d="M225 4350 c-3 -5 -1 -10 4 -10 6 0 11 5 11 10 0 6 -2 10 -4 10 -3 0
-8 -4 -11 -10z"/>
<path d="M412 4321 c13 -15 25 -27 26 -25 6 4 -32 53 -41 54 -5 0 2 -13 15
-29z"/>
<path d="M475 4329 c6 -32 13 -34 13 -4 0 14 -4 25 -9 25 -4 0 -6 -10 -4 -21z"/>
<path d="M205 4319 c-4 -6 -5 -12 -2 -15 2 -3 7 2 10 11 7 17 1 20 -8 4z"/>
<path d="M637 4310 c19 -22 26 -21 17 4 -3 9 -12 16 -20 16 -11 0 -10 -4 3
-20z"/>
<path d="M1580 4326 c0 -2 8 -10 18 -17 15 -13 16 -12 3 4 -13 16 -21 21 -21
13z"/>
<path d="M555 4310 c-4 -6 -11 -8 -16 -5 -5 4 -9 2 -9 -4 0 -19 16 -19 28 0 7
10 10 19 8 19 -3 0 -8 -5 -11 -10z"/>
<path d="M8778 4222 c-149 -114 -250 -191 -350 -267 -40 -30 -93 -73 -118 -96
l-45 -41 55 42 c270 203 590 450 590 456 0 7 0 7 -132 -94z"/>
<path d="M405 4279 c10 -32 21 -43 21 -20 0 10 -7 24 -14 31 -12 11 -13 9 -7
-11z"/>
<path d="M610 4290 c-8 -26 -7 -41 2 -32 6 6 8 16 5 24 -3 7 -6 11 -7 8z"/>
<path d="M317 4269 c7 -7 15 -10 18 -7 3 3 -2 9 -12 12 -14 6 -15 5 -6 -5z"/>
<path d="M357 4269 c7 -7 15 -10 18 -7 3 3 -2 9 -12 12 -14 6 -15 5 -6 -5z"/>
<path d="M564 4266 c-3 -8 -12 -12 -20 -9 -8 3 -14 -1 -14 -8 0 -7 3 -9 7 -6
3 4 13 1 22 -5 9 -7 13 -9 9 -4 -4 5 -3 17 3 27 5 11 7 19 4 19 -3 0 -8 -6
-11 -14z"/>
<path d="M471 4257 c2 -1 13 -9 24 -17 19 -14 19 -14 6 3 -7 9 -18 17 -24 17
-6 0 -8 -1 -6 -3z"/>
<path d="M443 4226 c-3 -6 -3 -8 2 -4 4 4 16 3 26 -3 14 -7 17 -6 13 4 -6 16
-32 18 -41 3z"/>
<path d="M333 4208 c2 -15 0 -29 -5 -32 -5 -2 -3 -3 3 -2 16 3 20 29 7 47 -7
10 -8 6 -5 -13z"/>
<path d="M220 4199 c0 -5 5 -7 10 -4 6 3 10 8 10 11 0 2 -4 4 -10 4 -5 0 -10
-5 -10 -11z"/>
<path d="M300 4199 c0 -5 5 -7 10 -4 6 3 10 8 10 11 0 2 -4 4 -10 4 -5 0 -10
-5 -10 -11z"/>
<path d="M360 4200 c0 -6 7 -10 15 -10 8 0 15 2 15 4 0 2 -7 6 -15 10 -8 3
-15 1 -15 -4z"/>
<path d="M416 4201 c-3 -5 1 -14 9 -21 8 -7 12 -16 9 -21 -3 -5 -2 -9 3 -8 4
1 14 1 21 0 20 -2 3 -21 -19 -21 -10 0 -19 5 -19 10 0 6 -4 10 -10 10 -21 0
-9 -19 19 -28 23 -8 32 -7 42 4 10 13 8 19 -16 38 -16 13 -25 28 -21 34 4 7 3
12 -3 12 -5 0 -12 -4 -15 -9z"/>
<path d="M9905 4200 c3 -5 8 -10 11 -10 2 0 4 5 4 10 0 6 -5 10 -11 10 -5 0
-7 -4 -4 -10z"/>
<path d="M10030 4199 c0 -5 5 -7 10 -4 6 3 10 8 10 11 0 2 -4 4 -10 4 -5 0
-10 -5 -10 -11z"/>
<path d="M254 4189 c-3 -6 -3 -13 0 -16 3 -4 6 -1 6 5 0 6 7 9 15 6 8 -4 15
-4 15 -1 0 11 -30 16 -36 6z"/>
<path d="M550 4180 c0 -5 5 -10 11 -10 5 0 7 5 4 10 -3 6 -8 10 -11 10 -2 0
-4 -4 -4 -10z"/>
<path d="M385 4169 c-10 -15 3 -25 16 -12 7 7 7 13 1 17 -6 3 -14 1 -17 -5z"/>
<path d="M244 4145 c-4 -10 -15 -13 -33 -10 -14 3 -19 2 -11 -1 8 -4 24 -11
35 -17 11 -5 17 -6 13 -2 -4 4 -3 16 3 26 5 11 7 19 4 19 -3 0 -8 -7 -11 -15z"/>
<path d="M301 4144 c5 -6 5 -14 1 -19 -4 -4 3 -1 16 6 28 18 28 24 -2 24 -16
0 -21 -4 -15 -11z"/>
<path d="M525 4149 c-4 -6 -5 -12 -2 -15 2 -3 7 2 10 11 7 17 1 20 -8 4z"/>
<path d="M350 4124 c0 -14 2 -15 17 -3 15 12 16 12 10 -3 -4 -12 -2 -15 9 -11
11 4 12 9 3 19 -16 19 -39 18 -39 -2z"/>
<path d="M497 4119 c7 -7 15 -10 18 -7 3 3 -2 9 -12 12 -14 6 -15 5 -6 -5z"/>
<path d="M283 4085 c-8 -17 -8 -27 -1 -32 6 -3 8 -2 5 4 -4 5 3 20 14 31 13
14 15 22 7 22 -7 0 -18 -11 -25 -25z"/>
<path d="M330 4090 c0 -5 5 -10 11 -10 5 0 7 5 4 10 -3 6 -8 10 -11 10 -2 0
-4 -4 -4 -10z"/>
<path d="M2631 4097 c2 -1 15 -11 29 -22 l25 -20 -19 23 c-11 12 -24 22 -29
22 -6 0 -8 -1 -6 -3z"/>
<path d="M10046 4083 c-6 -14 -5 -15 5 -6 7 7 10 15 7 18 -3 3 -9 -2 -12 -12z"/>
<path d="M9800 4081 c0 -6 4 -13 10 -16 6 -3 7 1 4 9 -7 18 -14 21 -14 7z"/>
<path d="M9970 4081 c0 -6 4 -13 10 -16 6 -3 7 1 4 9 -7 18 -14 21 -14 7z"/>
<path d="M363 4065 c0 -8 4 -12 9 -9 4 3 8 9 8 15 0 5 -4 9 -8 9 -5 0 -9 -7
-9 -15z"/>
<path d="M140 4066 c0 -2 7 -7 16 -10 8 -3 12 -2 9 4 -6 10 -25 14 -25 6z"/>
<path d="M247 4054 c-4 -10 -9 -24 -12 -30 -3 -6 2 -14 11 -18 14 -5 15 -4 5
8 -10 11 -9 15 2 18 10 2 12 10 7 22 -7 20 -7 20 -13 0z"/>
<path d="M320 4049 c0 -5 5 -7 10 -4 6 3 10 8 10 11 0 2 -4 4 -10 4 -5 0 -10
-5 -10 -11z"/>
<path d="M2729 4020 c24 -22 48 -40 54 -40 13 0 13 0 -48 44 l-50 37 44 -41z"/>
<path d="M9943 4053 c4 -3 1 -13 -6 -22 -11 -14 -10 -14 5 -2 16 12 16 31 1
31 -4 0 -3 -3 0 -7z"/>
<path d="M138 4033 c7 -3 16 -2 19 1 4 3 -2 6 -13 5 -11 0 -14 -3 -6 -6z"/>
<path d="M347 4031 c4 -3 10 -10 14 -14 3 -4 11 -2 17 5 8 10 5 13 -15 14 -13
1 -21 -1 -16 -5z"/>
<path d="M280 4020 c0 -5 5 -10 11 -10 5 0 7 5 4 10 -3 6 -8 10 -11 10 -2 0
-4 -4 -4 -10z"/>
<path d="M460 4000 c-12 -7 -10 -9 7 -7 12 0 19 5 17 9 -6 10 -6 10 -24 -2z"/>
<path d="M380 3980 c0 -6 7 -10 15 -10 8 0 15 2 15 4 0 2 -7 6 -15 10 -8 3
-15 1 -15 -4z"/>
<path d="M255 3950 c3 -5 8 -10 11 -10 2 0 4 5 4 10 0 6 -5 10 -11 10 -5 0 -7
-4 -4 -10z"/>
<path d="M9805 3951 c-3 -5 0 -13 6 -17 7 -4 9 -3 5 4 -3 5 0 13 6 15 9 4 10
6 1 6 -6 1 -14 -3 -18 -8z"/>
<path d="M10050 3950 c0 -6 7 -10 15 -10 8 0 15 2 15 4 0 2 -7 6 -15 10 -8 3
-15 1 -15 -4z"/>
<path d="M9416 3942 c-3 -5 1 -9 9 -9 8 0 12 4 9 9 -3 4 -7 8 -9 8 -2 0 -6 -4
-9 -8z"/>
<path d="M437 3915 c3 -8 9 -12 14 -9 12 7 11 11 -5 17 -10 4 -13 1 -9 -8z"/>
<path d="M9820 3896 c0 -16 -2 -17 -17 -5 -15 11 -16 11 -6 -1 14 -15 43 -23
43 -12 0 4 -5 14 -10 22 -8 13 -10 12 -10 -4z"/>
<path d="M10060 3900 c0 -5 5 -10 10 -10 6 0 10 5 10 10 0 6 -4 10 -10 10 -5
0 -10 -4 -10 -10z"/>
<path d="M360 3885 c-7 -9 -8 -15 -2 -15 5 0 12 7 16 15 3 8 4 15 2 15 -2 0
-9 -7 -16 -15z"/>
<path d="M2 3855 c0 -16 2 -22 5 -12 2 9 2 23 0 30 -3 6 -5 -1 -5 -18z"/>
<path d="M9870 3859 c0 -5 5 -7 10 -4 6 3 10 8 10 11 0 2 -4 4 -10 4 -5 0 -10
-5 -10 -11z"/>
<path d="M9925 3839 c-4 -6 -5 -12 -2 -15 2 -3 7 2 10 11 7 17 1 20 -8 4z"/>
<path d="M190 3831 c0 -6 4 -13 10 -16 6 -3 7 1 4 9 -7 18 -14 21 -14 7z"/>
<path d="M290 3830 c0 -5 7 -7 15 -4 8 4 15 8 15 10 0 2 -7 4 -15 4 -8 0 -15
-4 -15 -10z"/>
<path d="M9835 3830 c3 -5 8 -10 11 -10 2 0 4 5 4 10 0 6 -5 10 -11 10 -5 0
-7 -4 -4 -10z"/>
<path d="M9960 3832 c0 -5 7 -9 15 -9 8 0 12 4 9 9 -3 4 -9 8 -15 8 -5 0 -9
-4 -9 -8z"/>
<path d="M10170 3831 c0 -5 5 -13 10 -16 6 -3 10 -2 10 4 0 5 -4 13 -10 16 -5
3 -10 2 -10 -4z"/>
<path d="M10010 3821 c0 -13 28 -33 33 -23 3 4 -3 13 -14 20 -10 7 -19 8 -19
3z"/>
<path d="M2 3800 c0 -14 2 -19 5 -12 2 6 2 18 0 25 -3 6 -5 1 -5 -13z"/>
<path d="M3005 3800 c10 -11 20 -20 23 -20 3 0 -3 9 -13 20 -10 11 -20 20 -23
20 -3 0 3 -9 13 -20z"/>
<path d="M8239 3803 c-13 -16 -12 -17 4 -4 9 7 17 15 17 17 0 8 -8 3 -21 -13z"/>
<path d="M9965 3800 c3 -5 8 -10 11 -10 2 0 4 5 4 10 0 6 -5 10 -11 10 -5 0
-7 -4 -4 -10z"/>
<path d="M9477 3789 c7 -7 15 -10 18 -7 3 3 -2 9 -12 12 -14 6 -15 5 -6 -5z"/>
<path d="M9775 3780 c-10 -11 -25 -20 -33 -20 -9 0 -12 -3 -9 -7 9 -9 55 16
61 33 7 19 2 17 -19 -6z"/>
<path d="M3070 3756 c14 -15 39 -37 55 -49 l30 -21 -25 28 c-14 15 -38 37 -55
49 l-30 21 25 -28z"/>
<path d="M8179 3753 c-13 -16 -12 -17 4 -4 16 13 21 21 13 21 -2 0 -10 -8 -17
-17z"/>
<path d="M9807 3763 c-11 -11 -8 -20 7 -20 8 0 12 6 9 14 -6 15 -7 15 -16 6z"/>
<path d="M10200 3755 c-6 -8 -10 -19 -8 -24 1 -6 8 1 15 14 13 28 11 31 -7 10z"/>
<path d="M4 3535 c0 -126 2 -177 3 -112 2 65 2 168 0 230 -1 62 -3 9 -3 -118z"/>
<path d="M10160 3750 c0 -5 5 -10 11 -10 5 0 7 5 4 10 -3 6 -8 10 -11 10 -2 0
-4 -4 -4 -10z"/>
<path d="M10067 3724 c11 -18 11 -23 1 -27 -9 -4 -9 -6 -1 -6 18 -1 26 18 13
33 -8 11 -8 15 2 19 7 3 3 5 -8 4 -20 -1 -21 -3 -7 -23z"/>
<path d="M10125 3740 c3 -5 8 -10 11 -10 2 0 4 5 4 10 0 6 -5 10 -11 10 -5 0
-7 -4 -4 -10z"/>
<path d="M10026 3694 c-5 -14 -4 -15 9 -4 17 14 19 20 6 20 -5 0 -12 -7 -15
-16z"/>
<path d="M9819 3673 c-13 -16 -12 -17 4 -4 16 13 21 21 13 21 -2 0 -10 -8 -17
-17z"/>
<path d="M9970 3681 c0 -6 4 -13 10 -16 6 -3 7 1 4 9 -7 18 -14 21 -14 7z"/>
<path d="M8049 3653 c-13 -16 -12 -17 4 -4 16 13 21 21 13 21 -2 0 -10 -8 -17
-17z"/>
<path d="M9854 3661 c3 -5 16 -11 28 -14 22 -6 22 -5 4 8 -22 17 -40 20 -32 6z"/>
<path d="M10108 3663 c7 -3 16 -2 19 1 4 3 -2 6 -13 5 -11 0 -14 -3 -6 -6z"/>
<path d="M9963 3628 c0 -13 1 -17 4 -10 4 10 8 10 21 0 12 -9 11 -6 -2 10 -11
12 -20 22 -20 22 -1 0 -2 -10 -3 -22z"/>
<path d="M8009 3623 c-13 -16 -12 -17 4 -4 16 13 21 21 13 21 -2 0 -10 -8 -17
-17z"/>
<path d="M10115 3620 c3 -5 8 -10 11 -10 2 0 4 5 4 10 0 6 -5 10 -11 10 -5 0
-7 -4 -4 -10z"/>
<path d="M9860 3610 c0 -5 7 -7 15 -4 8 4 15 8 15 10 0 2 -7 4 -15 4 -8 0 -15
-4 -15 -10z"/>
<path d="M10010 3610 c0 -5 5 -10 10 -10 6 0 10 5 10 10 0 6 -4 10 -10 10 -5
0 -10 -4 -10 -10z"/>
<path d="M2510 3601 c0 -13 52 -53 59 -46 3 3 -8 17 -23 30 -32 28 -36 29 -36
16z"/>
<path d="M7969 3593 c-13 -16 -12 -17 4 -4 9 7 17 15 17 17 0 8 -8 3 -21 -13z"/>
<path d="M10040 3585 c-7 -8 -9 -15 -6 -15 4 0 14 7 22 15 9 8 11 15 6 15 -5
0 -15 -7 -22 -15z"/>
<path d="M9715 3580 c3 -5 8 -10 11 -10 2 0 4 5 4 10 0 6 -5 10 -11 10 -5 0
-7 -4 -4 -10z"/>
<path d="M9820 3583 c0 -5 13 -17 28 -27 l27 -19 -24 26 c-26 28 -31 32 -31
20z"/>
<path d="M10145 3550 c-3 -6 1 -7 9 -4 18 7 21 14 7 14 -6 0 -13 -4 -16 -10z"/>
<path d="M9920 3540 c0 -5 5 -10 11 -10 5 0 7 5 4 10 -3 6 -8 10 -11 10 -2 0
-4 -4 -4 -10z"/>
<path d="M10047 3539 c7 -7 15 -10 18 -7 3 3 -2 9 -12 12 -14 6 -15 5 -6 -5z"/>
<path d="M2597 3529 c7 -7 15 -10 18 -7 3 3 -2 9 -12 12 -14 6 -15 5 -6 -5z"/>
<path d="M9968 3533 c7 -3 16 -2 19 1 4 3 -2 6 -13 5 -11 0 -14 -3 -6 -6z"/>
<path d="M3384 3521 c4 -6 16 -16 28 -22 15 -8 18 -8 14 0 -4 6 -16 16 -28 22
-15 8 -18 8 -14 0z"/>
<path d="M8883 3523 c9 -2 23 -2 30 0 6 3 -1 5 -18 5 -16 0 -22 -2 -12 -5z"/>
<path d="M9865 3510 c4 -6 11 -8 16 -5 14 9 11 15 -7 15 -8 0 -12 -5 -9 -10z"/>
<path d="M9595 3500 c-6 -10 40 -30 51 -22 19 14 11 27 -17 28 -16 1 -32 -2
-34 -6z"/>
<path d="M9726 3467 c3 -10 9 -15 12 -12 3 3 0 11 -7 18 -10 9 -11 8 -5 -6z"/>
<path d="M9690 3450 c-9 -6 -10 -10 -3 -10 6 0 15 5 18 10 8 12 4 12 -15 0z"/>
<path d="M9770 3441 c0 -5 5 -13 10 -16 6 -3 10 -2 10 4 0 5 -4 13 -10 16 -5
3 -10 2 -10 -4z"/>
<path d="M7739 3413 c-13 -16 -12 -17 4 -4 9 7 17 15 17 17 0 8 -8 3 -21 -13z"/>
<path d="M9015 3420 c3 -5 8 -10 11 -10 2 0 4 5 4 10 0 6 -5 10 -11 10 -5 0
-7 -4 -4 -10z"/>
<path d="M9525 3400 c3 -5 8 -10 11 -10 2 0 4 5 4 10 0 6 -5 10 -11 10 -5 0
-7 -4 -4 -10z"/>
<path d="M9561 3396 c-7 -8 -8 -17 -3 -20 6 -3 13 1 16 10 9 23 2 28 -13 10z"/>
<path d="M8662 3380 c0 -14 2 -19 5 -12 2 6 2 18 0 25 -3 6 -5 1 -5 -13z"/>
<path d="M9466 3391 c-4 -5 3 -7 14 -4 23 6 26 13 6 13 -8 0 -17 -4 -20 -9z"/>
<path d="M1435 3380 c3 -5 8 -10 11 -10 2 0 4 5 4 10 0 6 -5 10 -11 10 -5 0
-7 -4 -4 -10z"/>
<path d="M9630 3381 c0 -10 19 -25 25 -20 1 2 -3 10 -11 17 -8 7 -14 8 -14 3z"/>
<path d="M10015 3370 c6 -10 3 -12 -13 -8 -12 4 -20 2 -16 -3 7 -12 31 -12 39
0 3 5 0 13 -6 17 -8 5 -9 3 -4 -6z"/>
<path d="M9544 3362 c3 -5 0 -13 -6 -15 -9 -4 -10 -6 -1 -6 17 -1 25 16 12 25
-7 4 -9 3 -5 -4z"/>
<path d="M9495 3330 c4 -6 11 -8 16 -5 14 9 11 15 -7 15 -8 0 -12 -5 -9 -10z"/>
<path d="M9655 3310 c3 -5 8 -10 11 -10 2 0 4 5 4 10 0 6 -5 10 -11 10 -5 0
-7 -4 -4 -10z"/>
<path d="M10020 3310 c0 -5 5 -10 11 -10 5 0 7 5 4 10 -3 6 -8 10 -11 10 -2 0
-4 -4 -4 -10z"/>
<path d="M9470 3306 c0 -2 7 -6 15 -10 8 -3 15 -1 15 4 0 6 -7 10 -15 10 -8 0
-15 -2 -15 -4z"/>
<path d="M9565 3300 c-3 -5 -1 -10 4 -10 6 0 11 5 11 10 0 6 -2 10 -4 10 -3 0
-8 -4 -11 -10z"/>
<path d="M9818 3303 c7 -3 16 -2 19 1 4 3 -2 6 -13 5 -11 0 -14 -3 -6 -6z"/>
<path d="M9994 3301 c4 -5 0 -11 -6 -14 -7 -3 -3 -4 9 -4 17 1 19 4 11 14 -12
15 -22 18 -14 4z"/>
<path d="M10070 3300 c0 -5 5 -10 11 -10 5 0 7 5 4 10 -3 6 -8 10 -11 10 -2 0
-4 -4 -4 -10z"/>
<path d="M9899 3263 c-13 -17 -13 -17 6 -3 11 8 22 16 24 17 2 2 0 3 -6 3 -6
0 -17 -8 -24 -17z"/>
<path d="M9486 3261 c-3 -5 2 -15 12 -22 15 -12 16 -12 5 2 -7 9 -10 19 -6 22
3 4 4 7 0 7 -3 0 -8 -4 -11 -9z"/>
<path d="M9620 3266 c0 -3 9 -10 20 -16 11 -6 20 -8 20 -6 0 3 -9 10 -20 16
-11 6 -20 8 -20 6z"/>
<path d="M9370 3243 c0 -18 27 -36 35 -23 4 6 4 14 1 17 -3 4 -6 0 -6 -8 -1
-10 -5 -8 -15 5 -8 11 -15 15 -15 9z"/>
<path d="M9975 3240 c3 -5 8 -10 11 -10 2 0 4 5 4 10 0 6 -5 10 -11 10 -5 0
-7 -4 -4 -10z"/>
<path d="M9578 3223 c7 -3 16 -2 19 1 4 3 -2 6 -13 5 -11 0 -14 -3 -6 -6z"/>
<path d="M9950 3225 c0 -5 5 -17 10 -25 5 -8 10 -10 10 -5 0 6 -5 17 -10 25
-5 8 -10 11 -10 5z"/>
<path d="M2 3175 c0 -16 2 -22 5 -12 2 9 2 23 0 30 -3 6 -5 -1 -5 -18z"/>
<path d="M9435 3190 c3 -5 8 -10 11 -10 2 0 4 5 4 10 0 6 -5 10 -11 10 -5 0
-7 -4 -4 -10z"/>
<path d="M9980 3180 c0 -5 5 -10 11 -10 5 0 7 5 4 10 -3 6 -8 10 -11 10 -2 0
-4 -4 -4 -10z"/>
<path d="M10047 3170 c7 -7 22 -14 33 -15 16 -1 17 1 8 13 -9 10 -13 11 -16 3
-3 -9 -8 -9 -20 1 -14 10 -15 10 -5 -2z"/>
<path d="M9547 3159 c7 -7 15 -10 18 -7 3 3 -2 9 -12 12 -14 6 -15 5 -6 -5z"/>
<path d="M9360 3140 c0 -5 5 -10 11 -10 5 0 7 5 4 10 -3 6 -8 10 -11 10 -2 0
-4 -4 -4 -10z"/>
<path d="M10025 3140 c-3 -5 1 -10 10 -10 9 0 13 5 10 10 -3 6 -8 10 -10 10
-2 0 -7 -4 -10 -10z"/>
<path d="M10110 3136 c0 -2 7 -7 16 -10 8 -3 12 -2 9 4 -6 10 -25 14 -25 6z"/>
<path d="M8315 3110 c-3 -5 -1 -10 4 -10 6 0 11 5 11 10 0 6 -2 10 -4 10 -3 0
-8 -4 -11 -10z"/>
<path d="M10105 3110 c3 -5 8 -10 11 -10 2 0 4 5 4 10 0 6 -5 10 -11 10 -5 0
-7 -4 -4 -10z"/>
<path d="M3220 3106 c0 -2 8 -10 18 -17 15 -13 16 -12 3 4 -13 16 -21 21 -21
13z"/>
<path d="M9925 3090 c-3 -5 0 -7 8 -4 8 3 18 1 22 -5 3 -6 12 -11 18 -11 7 0
3 7 -7 15 -23 18 -33 19 -41 5z"/>
<path d="M2 3060 c0 -14 2 -19 5 -12 2 6 2 18 0 25 -3 6 -5 1 -5 -13z"/>
<path d="M3305 3037 c52 -49 161 -134 152 -119 -4 6 -42 39 -85 73 -102 82
-116 91 -67 46z"/>
<path d="M9363 3054 c0 -17 2 -22 7 -13 5 6 6 18 3 26 -8 19 -10 16 -10 -13z"/>
<path d="M10015 3070 c-3 -5 1 -10 10 -10 9 0 13 5 10 10 -3 6 -8 10 -10 10
-2 0 -7 -4 -10 -10z"/>
<path d="M10064 3065 c-10 -8 -14 -15 -8 -15 6 0 17 7 24 15 16 19 9 19 -16 0z"/>
<path d="M10100 3056 c0 -7 40 -14 44 -7 3 4 -6 8 -20 9 -13 1 -24 0 -24 -2z"/>
<path d="M10145 3020 c-3 -5 -1 -10 4 -10 6 0 11 5 11 10 0 6 -2 10 -4 10 -3
0 -8 -4 -11 -10z"/>
<path d="M9175 3010 c3 -5 11 -10 16 -10 6 0 7 5 4 10 -3 6 -11 10 -16 10 -6
0 -7 -4 -4 -10z"/>
<path d="M9536 3003 c-6 -14 -5 -15 5 -6 7 7 10 15 7 18 -3 3 -9 -2 -12 -12z"/>
<path d="M9360 3005 c0 -8 29 -12 39 -5 9 5 4 8 -13 8 -14 0 -26 -2 -26 -3z"/>
<path d="M9325 2980 c3 -5 11 -10 16 -10 6 0 7 5 4 10 -3 6 -11 10 -16 10 -6
0 -7 -4 -4 -10z"/>
<path d="M10020 2950 c0 -5 5 -10 10 -10 6 0 10 5 10 10 0 6 -4 10 -10 10 -5
0 -10 -4 -10 -10z"/>
<path d="M9585 2940 c-3 -5 -1 -10 4 -10 6 0 11 5 11 10 0 6 -2 10 -4 10 -3 0
-8 -4 -11 -10z"/>
<path d="M9625 2940 c-3 -5 -1 -10 4 -10 6 0 11 5 11 10 0 6 -2 10 -4 10 -3 0
-8 -4 -11 -10z"/>
<path d="M9830 2940 c-9 -6 -10 -10 -3 -10 6 0 15 5 18 10 8 12 4 12 -15 0z"/>
<path d="M9675 2920 c-3 -6 1 -7 9 -4 18 7 21 14 7 14 -6 0 -13 -4 -16 -10z"/>
<path d="M3485 2890 c10 -11 20 -20 23 -20 3 0 -3 9 -13 20 -10 11 -20 20 -23
20 -3 0 3 -9 13 -20z"/>
<path d="M9130 2900 c-9 -6 -10 -10 -3 -10 6 0 15 5 18 10 8 12 4 12 -15 0z"/>
<path d="M9536 2891 c-16 -11 -35 -17 -42 -14 -8 3 -14 0 -14 -6 0 -6 5 -11
11 -11 12 0 79 39 79 46 0 6 -3 5 -34 -15z"/>
<path d="M9595 2900 c-3 -5 -1 -10 4 -10 6 0 11 5 11 10 0 6 -2 10 -4 10 -3 0
-8 -4 -11 -10z"/>
<path d="M9743 2892 c0 -12 5 -22 9 -22 11 0 10 12 -2 30 -7 12 -9 10 -7 -8z"/>
<path d="M9840 2900 c0 -5 5 -10 10 -10 6 0 10 5 10 10 0 6 -4 10 -10 10 -5 0
-10 -4 -10 -10z"/>
<path d="M9640 2889 c0 -5 5 -7 10 -4 6 3 10 8 10 11 0 2 -4 4 -10 4 -5 0 -10
-5 -10 -11z"/>
<path d="M9710 2890 c0 -5 5 -10 11 -10 5 0 7 5 4 10 -3 6 -8 10 -11 10 -2 0
-4 -4 -4 -10z"/>
<path d="M9685 2880 c-3 -5 -1 -10 4 -10 6 0 11 5 11 10 0 6 -2 10 -4 10 -3 0
-8 -4 -11 -10z"/>
<path d="M2 2850 c0 -19 2 -27 5 -17 2 9 2 25 0 35 -3 9 -5 1 -5 -18z"/>
<path d="M9460 2857 c15 -17 31 -26 42 -24 9 3 19 1 22 -4 2 -5 3 -4 2 2 -1 7
-12 13 -24 14 -12 1 -32 10 -44 21 -20 16 -20 15 2 -9z"/>
<path d="M9570 2866 c7 -7 13 -7 20 0 6 6 3 10 -10 10 -13 0 -16 -4 -10 -10z"/>
<path d="M6930 2860 c0 -5 5 -10 10 -10 6 0 10 5 10 10 0 6 -4 10 -10 10 -5 0
-10 -4 -10 -10z"/>
<path d="M9656 2855 c4 -8 10 -15 15 -15 4 0 6 7 3 15 -4 8 -10 15 -15 15 -4
0 -6 -7 -3 -15z"/>
<path d="M6875 2850 c-3 -5 -3 -21 1 -35 6 -24 -2 -30 -28 -26 -5 0 -8 -6 -8
-15 0 -14 2 -15 17 -3 42 33 69 65 65 77 -4 14 -38 16 -47 2z"/>
<path d="M9716 2843 c-6 -14 -5 -15 5 -6 7 7 10 15 7 18 -3 3 -9 -2 -12 -12z"/>
<path d="M9780 2850 c0 -5 5 -10 11 -10 5 0 7 5 4 10 -3 6 -8 10 -11 10 -2 0
-4 -4 -4 -10z"/>
<path d="M10192 2834 c10 -10 20 -16 22 -13 3 3 -5 11 -17 18 -21 13 -21 12
-5 -5z"/>
<path d="M9060 2819 c0 -5 5 -7 10 -4 6 3 10 8 10 11 0 2 -4 4 -10 4 -5 0 -10
-5 -10 -11z"/>
<path d="M9461 2819 c-1 -9 6 -22 14 -29 13 -11 14 -10 9 5 -6 14 -4 16 6 10
9 -5 11 -4 6 4 -4 6 -11 9 -16 6 -4 -3 -11 1 -13 7 -4 9 -6 7 -6 -3z"/>
<path d="M9580 2810 c0 -5 5 -10 10 -10 6 0 10 5 10 10 0 6 -4 10 -10 10 -5 0
-10 -4 -10 -10z"/>
<path d="M9986 2807 c3 -10 9 -15 12 -12 3 3 0 11 -7 18 -10 9 -11 8 -5 -6z"/>
<path d="M9738 2803 c7 -3 16 -2 19 1 4 3 -2 6 -13 5 -11 0 -14 -3 -6 -6z"/>
<path d="M10117 2799 c7 -7 15 -10 18 -7 3 3 -2 9 -12 12 -14 6 -15 5 -6 -5z"/>
<path d="M10010 2796 c0 -2 7 -7 16 -10 8 -3 12 -2 9 4 -6 10 -25 14 -25 6z"/>
<path d="M10180 2791 c0 -6 4 -13 10 -16 6 -3 7 1 4 9 -7 18 -14 21 -14 7z"/>
<path d="M1 2774 c0 -11 3 -14 6 -6 3 7 2 16 -1 19 -3 4 -6 -2 -5 -13z"/>
<path d="M9080 2780 c0 -5 5 -10 11 -10 5 0 7 5 4 10 -3 6 -8 10 -11 10 -2 0
-4 -4 -4 -10z"/>
<path d="M9400 2786 c0 -2 7 -7 16 -10 8 -3 12 -2 9 4 -6 10 -25 14 -25 6z"/>
<path d="M9470 2759 c0 -5 5 -7 10 -4 6 3 10 8 10 11 0 2 -4 4 -10 4 -5 0 -10
-5 -10 -11z"/>
<path d="M6810 2747 c-8 -7 -22 -21 -30 -32 -8 -11 0 -7 18 9 29 27 37 37 30
36 -2 0 -10 -6 -18 -13z"/>
<path d="M9500 2743 c0 -13 5 -23 10 -23 13 0 13 11 0 30 -8 12 -10 11 -10 -7z"/>
<path d="M10130 2740 c0 -5 5 -10 10 -10 6 0 10 5 10 10 0 6 -4 10 -10 10 -5
0 -10 -4 -10 -10z"/>
<path d="M9540 2730 c0 -6 7 -10 15 -10 8 0 15 2 15 4 0 2 -7 6 -15 10 -8 3
-15 1 -15 -4z"/>
<path d="M9930 2729 c0 -5 5 -7 10 -4 6 3 10 8 10 11 0 2 -4 4 -10 4 -5 0 -10
-5 -10 -11z"/>
<path d="M9360 2710 c18 -12 30 -13 30 -2 0 4 -10 9 -22 9 -18 2 -20 0 -8 -7z"/>
<path d="M1 2694 c0 -11 3 -14 6 -6 3 7 2 16 -1 19 -3 4 -6 -2 -5 -13z"/>
<path d="M6740 2685 c-11 -13 -10 -14 4 -9 9 3 16 10 16 15 0 13 -6 11 -20 -6z"/>
<path d="M10062 2666 c7 -8 15 -12 17 -11 5 6 -10 25 -20 25 -5 0 -4 -6 3 -14z"/>
<path d="M3 2610 c0 -30 2 -43 4 -27 2 15 2 39 0 55 -2 15 -4 2 -4 -28z"/>
<path d="M10166 2551 c-4 -5 3 -7 14 -4 23 6 26 13 6 13 -8 0 -17 -4 -20 -9z"/>
<path d="M3 2440 c0 -47 2 -66 4 -42 2 23 2 61 0 85 -2 23 -4 4 -4 -43z"/>
<path d="M7446 2404 c-9 -24 -7 -27 9 -10 17 17 19 26 6 26 -5 0 -12 -7 -15
-16z"/>
<path d="M7145 2180 c-10 -11 -13 -20 -8 -20 13 0 38 29 31 35 -3 3 -13 -4
-23 -15z"/>
<path d="M3 2100 c0 -30 2 -43 4 -27 2 15 2 39 0 55 -2 15 -4 2 -4 -28z"/>
<path d="M5270 2064 c-105 -20 -171 -69 -183 -135 -4 -19 -5 -68 -4 -109 2
-86 15 -110 88 -159 65 -45 108 -55 176 -41 42 9 66 22 100 53 54 50 68 75 83
153 20 99 -11 174 -89 213 -38 20 -128 32 -171 25z m139 -99 c61 -33 83 -59
88 -108 5 -43 3 -49 -26 -76 -55 -51 -178 -79 -246 -55 -21 7 -53 27 -71 45
-28 27 -34 40 -34 76 0 24 5 43 10 43 6 0 10 8 10 18 0 20 63 60 114 73 40 10
122 2 155 -16z"/>
<path d="M4 1870 c0 -91 2 -128 3 -82 2 45 2 119 0 165 -1 45 -3 8 -3 -83z"/>
<path d="M600 1650 c0 -5 5 -10 10 -10 6 0 10 5 10 10 0 6 -4 10 -10 10 -5 0
-10 -4 -10 -10z"/>
<path d="M1729 1634 c-12 -14 -11 -16 5 -13 11 2 21 10 24 17 5 17 -13 15 -29
-4z"/>
<path d="M4 1460 c0 -102 2 -143 3 -92 2 50 2 134 0 185 -1 50 -3 9 -3 -93z"/>
<path d="M3 1185 c0 -33 2 -45 4 -27 2 18 2 45 0 60 -2 15 -4 0 -4 -33z"/>
<path d="M870 1225 c-14 -16 -10 -18 14 -9 9 3 16 10 16 15 0 14 -16 11 -30
-6z"/>
<path d="M1055 1190 c3 -5 8 -10 11 -10 2 0 4 5 4 10 0 6 -5 10 -11 10 -5 0
-7 -4 -4 -10z"/>
<path d="M910 1159 c0 -5 5 -7 10 -4 6 3 10 8 10 11 0 2 -4 4 -10 4 -5 0 -10
-5 -10 -11z"/>
<path d="M4343 1113 c9 -9 20 -13 24 -9 4 4 1 11 -7 16 -25 16 -35 11 -17 -7z"/>
<path d="M1 1104 c0 -11 3 -14 6 -6 3 7 2 16 -1 19 -3 4 -6 -2 -5 -13z"/>
<path d="M699 1090 c-13 -16 -28 -30 -32 -30 -10 0 -67 -55 -67 -64 0 -17 25
0 80 54 33 33 60 63 60 65 0 14 -21 1 -41 -25z"/>
<path d="M552 1060 c-10 -17 -10 -20 3 -20 8 0 15 2 15 4 0 2 3 11 6 20 9 23
-9 20 -24 -4z"/>
<path d="M725 1010 c3 -5 11 -10 16 -10 6 0 7 5 4 10 -3 6 -11 10 -16 10 -6 0
-7 -4 -4 -10z"/>
<path d="M545 959 c-10 -15 3 -25 16 -12 7 7 7 13 1 17 -6 3 -14 1 -17 -5z"/>
<path d="M1 885 c0 -33 4 -69 8 -80 5 -12 7 9 4 50 -6 91 -11 105 -12 30z"/>
<path d="M555 890 c-3 -5 1 -10 9 -10 8 0 18 5 21 10 3 6 -1 10 -9 10 -8 0
-18 -4 -21 -10z"/>
<path d="M5387 736 c-4 -10 -1 -13 9 -9 15 6 19 23 5 23 -5 0 -11 -7 -14 -14z"/>
<path d="M21 714 c0 -11 3 -14 6 -6 3 7 2 16 -1 19 -3 4 -6 -2 -5 -13z"/>
<path d="M3 350 c0 -195 3 -337 7 -315 l7 40 2 -37 c0 -21 5 -38 11 -38 5 0 8
10 6 23 -3 12 -5 85 -6 162 -1 95 -5 132 -11 115 -5 -16 -7 29 -4 120 2 80 0
177 -4 215 -5 45 -8 -58 -8 -285z"/>
</g>
</svg>
