<?xml version="1.0" standalone="no"?>
<!DOCTYPE svg PUBLIC "-//W3C//DTD SVG 20010904//EN"
 "http://www.w3.org/TR/2001/REC-SVG-20010904/DTD/svg10.dtd">
<svg version="1.0" xmlns="http://www.w3.org/2000/svg"
 width="1024.000000pt" height="1024.000000pt" viewBox="0 0 1024.000000 1024.000000"
 preserveAspectRatio="xMidYMid meet">

<g transform="translate(0.000000,1024.000000) scale(0.100000,-0.100000)"
fill="#000000" stroke="none">
<path d="M2 7898 c2 -1289 4 -2215 5 -2058 7 725 7 4400 1 4400 -5 0 -7 -1054
-6 -2342z"/>
<path d="M5330 9356 c0 -2 8 -10 18 -17 15 -13 16 -12 3 4 -13 16 -21 21 -21
13z"/>
<path d="M5217 9160 c-86 -55 -100 -77 -112 -171 -6 -50 -4 -58 19 -86 40 -48
100 -66 194 -61 62 4 86 10 112 28 80 57 79 194 -2 266 -26 24 -110 74 -124
74 -5 0 -44 -22 -87 -50z"/>
<path d="M4969 9153 c-13 -16 -12 -17 4 -4 16 13 21 21 13 21 -2 0 -10 -8 -17
-17z"/>
<path d="M4929 9123 c-13 -16 -12 -17 4 -4 9 7 17 15 17 17 0 8 -8 3 -21 -13z"/>
<path d="M4889 9093 c-13 -16 -12 -17 4 -4 9 7 17 15 17 17 0 8 -8 3 -21 -13z"/>
<path d="M5830 8996 c0 -2 8 -10 18 -17 15 -13 16 -12 3 4 -13 16 -21 21 -21
13z"/>
<path d="M4865 8917 c-78 -68 -252 -202 -518 -400 -73 -53 -170 -125 -216
-160 -46 -34 -113 -82 -150 -107 -36 -25 -102 -72 -147 -105 -45 -33 -130 -96
-190 -139 -60 -44 -131 -96 -159 -116 -82 -61 -507 -369 -628 -455 -62 -44
-182 -132 -267 -195 -85 -64 -211 -156 -280 -204 -69 -49 -161 -117 -205 -151
-44 -34 -109 -81 -145 -105 -36 -23 -112 -78 -170 -120 -147 -108 -331 -237
-425 -299 -93 -62 -126 -91 -119 -102 3 -5 29 -9 58 -9 116 0 216 -54 270
-146 l30 -51 166 125 c91 69 190 147 220 172 30 26 111 89 180 140 69 52 168
128 220 170 52 41 142 111 200 155 58 43 128 97 155 120 28 23 97 76 155 118
58 42 182 135 275 207 94 71 266 203 383 292 117 90 252 193 300 230 48 38
107 82 132 100 25 18 69 51 98 75 29 24 56 43 60 43 4 0 23 15 44 33 20 17 89
70 153 117 103 74 251 192 265 211 9 12 216 164 276 203 32 21 107 69 166 106
100 63 117 80 79 80 -8 0 -34 10 -59 21 -52 26 -89 77 -111 157 l-16 58 -80
-69z"/>
<path d="M9266 8978 c-61 -13 -220 -95 -231 -120 -7 -15 -19 -22 -43 -22 -17
-1 -32 2 -32 7 0 29 -125 -27 -181 -82 -22 -23 -43 -41 -45 -41 -3 0 -23 -17
-46 -37 -22 -21 -51 -48 -65 -60 -13 -13 -28 -23 -32 -23 -4 0 -19 -10 -32
-21 -37 -33 -177 -139 -183 -139 -7 0 -74 -51 -183 -140 -137 -112 -251 -193
-413 -294 -58 -36 -121 -80 -140 -97 l-35 -31 50 34 c28 19 84 51 125 72 41
20 92 54 115 75 40 36 129 101 139 101 3 0 14 6 23 14 10 8 61 50 114 93 52
43 108 88 125 100 16 12 88 65 159 118 72 53 138 101 148 107 10 5 27 17 37
26 10 9 31 28 46 41 16 13 56 49 89 80 70 65 95 81 129 81 50 0 39 -23 -49
-104 -99 -91 -199 -172 -422 -341 -83 -63 -200 -158 -260 -212 -59 -53 -141
-120 -180 -150 -40 -29 -83 -64 -95 -76 -13 -12 -54 -48 -93 -79 -38 -31 -92
-79 -120 -108 -48 -49 -49 -52 -31 -66 11 -8 26 -14 34 -14 11 0 316 239 332
260 3 4 37 34 76 66 39 32 92 77 119 99 26 22 60 48 77 57 16 9 37 23 47 32
10 9 21 16 25 16 4 0 41 28 84 63 42 34 92 73 111 86 l33 24 -7 -24 c-12 -38
-51 -75 -195 -182 -74 -56 -180 -139 -235 -184 -55 -46 -104 -87 -110 -91 -5
-4 -48 -38 -94 -75 -46 -37 -95 -74 -110 -83 -41 -25 -102 -106 -90 -120 32
-39 72 -18 221 115 51 46 131 111 178 144 72 51 120 91 206 175 16 16 24 15
24 -1 0 -7 -19 -34 -42 -61 -24 -26 -56 -63 -72 -82 -16 -20 -64 -59 -105 -86
-104 -70 -301 -242 -301 -264 0 -5 13 -17 28 -26 28 -17 29 -17 103 32 69 47
108 63 94 40 -26 -42 86 34 187 127 45 41 107 92 139 114 32 21 84 63 116 92
32 30 83 72 114 94 85 63 154 125 154 139 0 8 29 43 65 79 40 41 58 65 48 65
-9 0 -31 -12 -48 -26 -17 -15 -33 -24 -35 -22 -8 7 45 51 100 82 71 41 257
165 277 185 9 9 31 27 49 41 88 66 179 169 179 203 0 7 -4 6 -10 -3 -5 -8 -10
-11 -10 -5 0 5 -5 4 -12 -3 -18 -18 -27 -15 -21 8 3 11 9 20 15 20 5 0 4 9 -2
20 -13 25 -32 25 -97 -3 -54 -23 -90 -49 -174 -129 -30 -28 -56 -45 -65 -41
-8 3 -14 9 -14 13 0 29 178 195 248 232 12 6 22 17 22 23 0 7 9 20 20 30 25
22 27 50 3 41 -9 -4 -19 -3 -22 2 -3 5 -23 5 -45 0z m-59 -100 c-2 -36 -84
-89 -99 -66 -16 26 -8 44 32 71 36 25 69 22 67 -5z m93 -133 c-13 -14 -30 -23
-37 -21 -7 3 -12 0 -10 -6 1 -7 -2 -12 -8 -13 -5 0 -25 -15 -44 -32 -39 -36
-76 -51 -62 -25 14 26 111 111 112 98 0 -7 3 -6 6 2 2 6 9 10 14 6 5 -3 9 0 9
5 0 6 10 11 22 11 l21 0 -23 -25z m55 -55 c-3 -5 -12 -10 -18 -10 -7 0 -6 4 3
10 19 12 23 12 15 0z m-39 -36 c-4 -9 -9 -15 -11 -12 -3 3 -3 13 1 22 4 9 9
15 11 12 3 -3 3 -13 -1 -22z m-59 -50 c-3 -3 -12 -4 -19 -1 -8 3 -5 6 6 6 11
1 17 -2 13 -5z m-137 -111 c0 -13 -187 -133 -207 -133 -13 0 -8 9 21 33 22 17
55 47 74 65 19 17 40 32 46 32 6 0 4 -5 -4 -10 -8 -5 -10 -10 -4 -10 6 0 17 7
24 15 13 15 50 21 50 8z m-342 -250 c-47 -49 -112 -93 -126 -84 -12 7 -7 15
38 70 8 10 38 33 65 50 42 27 51 29 53 15 2 -9 -11 -32 -30 -51z m-258 -217
c0 -20 -108 -116 -131 -116 -28 0 -23 13 19 51 81 75 112 93 112 65z"/>
<path d="M5640 8919 c-13 -48 -65 -108 -131 -151 -27 -17 -49 -34 -49 -38 0
-11 53 -46 110 -73 30 -14 71 -36 90 -48 l35 -22 -23 22 c-18 18 -20 26 -12
41 14 26 73 29 63 3 -4 -11 -3 -14 5 -9 7 4 12 2 12 -3 0 -6 5 -11 11 -11 5 0
7 6 3 13 -5 6 7 0 25 -16 18 -15 37 -25 42 -21 5 3 9 1 9 -4 0 -6 11 -13 25
-16 14 -4 38 -17 53 -31 59 -52 75 -65 82 -65 4 0 18 -10 31 -22 14 -13 49
-34 79 -48 29 -14 69 -41 89 -61 20 -20 63 -54 96 -74 33 -21 62 -41 65 -45 3
-4 16 -11 30 -15 14 -4 41 -20 60 -34 19 -15 46 -34 60 -43 14 -9 36 -26 50
-38 14 -12 48 -32 76 -45 27 -12 78 -44 113 -71 34 -27 80 -60 101 -74 101
-66 187 -123 201 -133 9 -7 81 -57 160 -111 79 -55 146 -104 147 -108 2 -4 10
-8 17 -8 7 0 15 -4 17 -9 4 -10 62 -52 333 -236 110 -74 268 -182 350 -240 83
-57 157 -108 165 -112 8 -4 20 -11 25 -15 13 -12 301 -215 345 -244 19 -13 55
-38 80 -56 62 -44 144 -101 210 -146 30 -20 60 -40 65 -44 6 -5 45 -36 88 -69
l78 -61 37 15 c57 23 111 28 184 19 37 -5 65 -5 62 -1 -2 4 -143 100 -312 212
-169 113 -359 241 -422 285 -63 45 -180 126 -260 181 -80 55 -194 135 -255
177 -60 42 -175 122 -255 177 -80 55 -174 121 -210 145 -36 25 -141 98 -235
161 -93 64 -195 135 -225 157 -30 22 -161 115 -290 206 -129 91 -291 205 -360
253 -69 49 -219 155 -335 235 -115 81 -259 182 -318 226 -165 121 -257 184
-267 184 -5 0 -14 -18 -20 -41z"/>
<path d="M4654 8918 l-19 -23 23 19 c21 18 27 26 19 26 -2 0 -12 -10 -23 -22z"/>
<path d="M9603 8775 c-24 -14 -43 -22 -43 -20 0 3 -13 -7 -29 -22 -37 -36
-229 -186 -396 -310 -71 -53 -136 -103 -143 -110 -7 -7 -16 -13 -20 -14 -34
-4 -52 -14 -91 -56 -25 -26 -30 -33 -11 -16 19 18 51 39 72 47 20 9 73 44 118
78 45 35 111 84 146 109 35 25 74 55 87 66 48 44 236 182 270 198 33 15 93 12
71 -4 -5 -3 -10 -13 -12 -21 -6 -25 -25 -42 -71 -62 -24 -10 -41 -21 -38 -24
10 -10 90 38 139 84 38 35 48 52 46 71 -4 35 -41 38 -95 6z"/>
<path d="M4399 8723 c-13 -16 -12 -17 4 -4 9 7 17 15 17 17 0 8 -8 3 -21 -13z"/>
<path d="M5212 8660 c-41 -39 -167 -137 -280 -219 -114 -83 -229 -168 -257
-191 -27 -22 -88 -68 -134 -103 -46 -34 -138 -103 -205 -152 -67 -50 -173
-128 -236 -173 -63 -45 -137 -99 -165 -120 -27 -22 -140 -106 -250 -187 -389
-289 -505 -375 -965 -719 -256 -191 -544 -406 -640 -479 -96 -73 -231 -173
-300 -222 -69 -49 -174 -125 -235 -170 -120 -89 -234 -165 -248 -165 -11 0
-171 110 -330 228 -114 84 -143 112 -119 112 12 1 58 40 46 40 -6 0 -28 -16
-49 -35 l-38 -34 7 -98 c4 -54 7 -120 6 -147 -1 -27 4 -100 11 -162 11 -114 0
-272 -22 -300 -5 -6 -9 -44 -10 -85 -2 -114 -2 -119 22 -119 17 0 20 -4 15
-24 -4 -18 1 -28 23 -45 32 -25 33 -35 8 -71 -13 -18 -14 -26 -4 -32 11 -7 3
-12 -16 -9 -11 2 -9 -17 3 -21 6 -2 6 -16 -1 -41 -5 -20 -7 -42 -4 -47 3 -6 0
-10 -7 -10 -25 -1 125 -112 154 -114 6 -1 42 -31 132 -110 16 -14 33 -26 38
-26 5 0 42 -31 81 -69 82 -77 147 -120 88 -57 -50 52 -28 44 31 -11 27 -27 55
-48 62 -48 7 0 24 -8 37 -18 15 -12 18 -16 6 -13 -9 3 -17 1 -17 -4 0 -6 3
-10 8 -10 4 0 30 -21 57 -46 65 -60 157 -131 187 -144 33 -14 116 -75 163
-119 72 -67 203 -157 214 -146 3 4 -3 13 -14 21 -11 8 -27 20 -36 27 -15 12
-30 22 -79 54 -14 9 -38 32 -55 52 -24 30 -25 32 -4 14 14 -13 28 -23 32 -23
16 0 173 -118 207 -155 l25 -28 -33 17 c-17 9 -32 12 -32 7 0 -13 55 -42 64
-34 3 4 6 2 6 -4 0 -5 10 -21 23 -34 27 -30 147 -122 147 -114 0 5 13 -4 45
-33 8 -7 15 -9 15 -3 0 5 -14 20 -31 33 -16 13 -47 38 -68 56 -21 17 -41 32
-43 32 -9 0 -80 71 -76 75 6 6 166 -112 245 -182 34 -29 65 -63 69 -75 4 -14
8 -17 14 -8 10 16 56 -14 191 -122 57 -46 136 -105 176 -131 40 -26 107 -78
150 -115 43 -38 105 -85 138 -105 33 -21 47 -27 31 -15 -16 13 -74 60 -130
106 -55 45 -128 101 -161 124 -33 23 -109 80 -170 128 -60 48 -144 111 -185
140 -41 30 -123 92 -181 139 -59 47 -195 151 -304 231 -108 80 -260 193 -337
253 -137 104 -164 121 -155 95 2 -7 8 -13 13 -13 19 0 99 -71 102 -90 3 -17
-2 -14 -30 13 -19 18 -36 31 -39 29 -2 -2 -22 16 -43 40 -27 30 -33 42 -20 37
17 -5 18 -4 2 8 -9 7 -67 49 -129 93 -62 44 -136 101 -163 126 -28 25 -64 55
-80 67 -16 12 -25 22 -20 22 5 0 63 -41 129 -91 66 -50 152 -113 192 -139 39
-26 106 -75 150 -108 43 -34 182 -138 308 -232 127 -94 278 -208 336 -253 59
-45 196 -147 304 -227 344 -253 567 -418 670 -499 165 -129 438 -331 810 -601
211 -153 443 -332 679 -524 54 -43 125 -111 158 -150 34 -39 65 -72 70 -74 4
-2 5 30 2 71 -8 92 -4 112 41 170 27 35 54 56 110 82 41 20 75 38 75 39 0 2
-17 15 -38 28 -21 14 -89 67 -152 118 -63 50 -164 128 -225 172 -100 72 -185
136 -533 405 -63 49 -142 107 -175 131 -34 24 -78 58 -97 77 -19 18 -76 60
-126 92 -50 32 -145 99 -210 148 -65 50 -128 97 -140 105 -107 74 -303 218
-276 205 20 -10 14 0 -20 31 -18 16 -26 21 -19 12 7 -10 11 -18 8 -18 -15 0
-231 164 -286 218 -60 58 -101 84 -70 45 13 -16 12 -17 -3 -4 -10 7 -15 17
-13 22 3 4 -14 20 -37 35 -24 15 -67 45 -96 67 -29 22 -55 37 -59 34 -8 -9
-64 33 -58 43 3 5 -17 28 -45 51 -27 23 -50 48 -50 54 0 7 -11 20 -25 29 -32
21 -46 20 -20 -2 12 -9 39 -37 60 -61 44 -49 18 -41 -29 8 -17 17 -34 31 -39
31 -16 0 -192 159 -184 166 2 2 30 -18 63 -44 58 -46 104 -76 104 -68 0 2 -26
23 -57 47 -32 24 -96 75 -143 114 -47 38 -137 109 -200 158 -63 48 -153 119
-200 157 -47 38 -89 70 -95 70 -5 0 8 -15 30 -32 74 -62 90 -77 77 -78 -7 0
-10 -4 -7 -10 3 -6 -1 -7 -9 -4 -9 3 -16 10 -16 16 0 5 5 6 12 2 7 -4 8 -3 4
4 -4 6 -14 8 -24 5 -9 -3 -14 -2 -10 2 8 8 -5 18 -77 54 -22 12 -59 39 -83 60
-42 39 -43 39 -51 18 -10 -25 -85 -98 -122 -117 -67 -36 -225 -52 -285 -30
-24 9 -25 9 -14 -5 9 -11 10 -15 0 -15 -6 0 -14 8 -17 19 -4 16 -20 28 -67 49
-5 3 -5 -1 0 -9 7 -12 5 -12 -9 0 -9 7 -15 17 -12 21 6 9 -29 42 -37 35 -3 -3
-11 1 -18 10 -7 8 -20 15 -30 15 -10 0 -24 10 -32 23 -17 24 -35 81 -20 59 6
-8 8 5 8 38 -1 27 3 50 8 50 5 0 6 3 3 6 -3 4 2 18 13 31 21 27 17 61 -5 43
-9 -7 -16 -5 -26 7 -13 16 -12 17 4 4 9 -7 17 -9 17 -3 0 5 7 13 16 16 8 3 12
2 9 -4 -3 -6 -2 -10 2 -10 5 0 14 9 20 19 29 46 225 111 335 111 136 0 298
-127 298 -234 0 -42 10 -55 79 -103 36 -26 86 -63 111 -83 25 -21 117 -91 205
-157 88 -66 207 -159 265 -207 58 -48 141 -113 185 -144 44 -31 134 -97 200
-147 66 -51 140 -105 165 -121 49 -31 99 -68 395 -290 110 -83 229 -171 265
-195 36 -24 291 -213 567 -419 429 -321 793 -591 1036 -770 34 -25 96 -78 139
-117 43 -40 86 -73 97 -73 11 0 26 -3 35 -6 9 -3 32 10 58 33 24 22 59 50 78
63 19 13 64 49 101 79 36 31 96 79 133 106 37 28 113 86 168 130 55 44 128 99
162 123 59 42 116 93 86 77 -8 -5 15 21 51 58 36 36 82 72 103 81 41 17 234
159 316 232 76 68 179 151 336 269 367 277 609 459 699 525 100 73 296 226
474 369 101 82 335 263 581 448 85 65 181 139 213 165 65 54 87 60 87 24 0
-35 -104 -125 -455 -391 -71 -54 -175 -135 -230 -180 -127 -103 -652 -512
-810 -630 -220 -164 -495 -380 -785 -616 -74 -60 -175 -141 -287 -231 -43 -34
-109 -90 -148 -123 -89 -78 -624 -493 -733 -569 l-82 -58 35 -18 c57 -29 104
-69 133 -113 23 -35 28 -54 32 -136 l5 -95 102 97 c57 53 129 118 162 144 32
26 117 97 187 156 71 60 163 134 204 165 41 31 136 106 211 167 74 62 147 120
162 130 24 15 41 45 18 30 -5 -3 -13 0 -17 6 -4 7 -3 9 3 6 6 -4 13 3 16 14 3
13 11 19 19 17 8 -4 14 3 15 20 0 15 -2 20 -7 13 -5 -10 -9 -8 -13 4 -4 9 -3
14 3 10 6 -4 17 9 25 27 8 19 14 25 15 16 0 -23 16 -23 24 -1 5 11 1 22 -10
30 -17 12 -16 13 3 13 14 0 23 -8 26 -22 4 -20 4 -20 6 4 0 14 -5 29 -11 31
-8 3 -6 6 4 6 9 1 24 -9 32 -21 11 -15 16 -17 16 -8 -1 25 -27 53 -42 44 -7
-4 -2 5 11 19 13 15 27 24 31 22 4 -3 10 5 13 16 3 12 10 18 16 14 6 -3 14 1
17 9 3 9 10 13 15 10 5 -3 9 1 9 8 0 9 3 9 10 -2 8 -12 10 -12 10 5 0 15 3 17
9 7 7 -11 9 -11 14 2 4 10 1 16 -8 16 -20 0 -19 16 1 24 8 3 12 2 9 -4 -3 -6
-3 -10 2 -10 12 0 35 16 34 24 -3 23 0 30 7 19 6 -9 13 -5 26 12 10 14 28 25
40 26 12 0 15 3 9 6 -19 7 -16 20 7 26 12 3 20 14 20 27 0 12 4 18 11 15 6 -4
13 2 16 13 3 13 11 18 19 15 10 -4 12 0 8 11 -3 9 -1 16 5 16 5 0 22 17 36 37
14 21 25 31 25 24 0 -8 3 -11 7 -7 4 4 8 15 8 23 0 9 7 18 15 20 13 4 13 3 0
-7 -13 -10 -12 -11 3 -6 10 3 21 6 23 6 3 0 3 4 -1 9 -3 5 4 16 15 24 11 7 17
17 14 20 -4 4 2 5 14 2 12 -2 28 6 41 21 12 14 26 22 31 19 6 -3 10 4 10 17 0
16 3 19 9 10 6 -11 11 -10 25 3 9 9 14 20 12 23 -2 4 2 13 10 20 11 10 14 10
15 0 0 -7 5 -3 11 10 6 13 17 21 24 18 8 -3 11 4 10 19 -2 16 1 22 10 18 8 -3
14 1 14 11 0 10 5 13 17 9 11 -4 14 -3 9 5 -5 8 0 12 12 12 11 0 22 7 26 15 3
8 11 14 18 13 7 -2 12 3 10 10 -1 7 6 15 15 19 10 4 27 17 38 30 11 13 25 23
30 23 6 0 16 9 23 21 8 12 19 18 28 15 8 -3 14 1 14 9 0 19 37 39 42 23 3 -7
7 -5 11 6 4 9 3 15 -2 11 -5 -3 -12 -1 -16 5 -3 5 2 10 11 10 9 0 33 12 53 27
43 32 65 53 56 53 -3 0 11 15 32 33 21 17 46 40 57 49 10 10 23 15 28 12 4 -3
8 1 8 9 0 13 11 22 32 26 5 0 20 11 34 24 14 12 29 22 32 22 4 0 24 17 44 38
21 20 41 38 45 38 21 3 33 12 33 25 0 8 7 14 15 14 7 0 19 8 24 18 6 9 11 13
11 7 0 -5 9 1 20 15 17 21 21 23 30 10 9 -13 10 -13 10 1 0 18 50 69 68 69 7
0 15 7 18 15 4 8 12 15 19 15 8 0 21 7 29 16 9 8 16 13 16 9 0 -3 13 6 29 22
16 15 27 31 24 36 -4 6 12 11 30 8 4 0 7 5 7 12 0 12 27 40 43 45 4 1 7 5 6 8
0 3 13 15 28 27 15 12 30 25 31 29 2 5 8 8 13 8 9 0 43 27 80 62 9 9 20 13 24
10 3 -4 3 1 -1 11 -4 13 -1 17 15 17 12 0 30 9 41 20 12 12 26 18 33 14 31
-18 55 -48 52 -65 -2 -11 -1 -17 3 -15 4 3 16 -8 27 -24 33 -48 54 -52 121
-20 33 15 61 26 65 25 16 -10 336 256 356 296 17 32 16 122 -1 162 -20 46 -84
104 -135 122 -56 19 -165 19 -222 0 -60 -20 -116 -76 -125 -123 -7 -37 9 -119
27 -137 6 -6 6 1 0 18 -6 16 -11 38 -11 51 0 34 58 82 128 105 53 17 71 19
117 10 74 -13 117 -33 151 -67 16 -15 37 -31 47 -35 58 -22 -45 -187 -148
-237 -37 -18 -50 -20 -102 -11 -143 23 -217 63 -268 145 -25 42 -30 59 -29
111 2 125 75 210 218 252 28 8 54 20 58 26 4 7 17 5 40 -6 18 -8 51 -18 73
-22 88 -15 140 -38 191 -87 47 -44 52 -47 65 -31 13 15 12 16 -9 11 -19 -5
-21 -4 -11 8 7 8 18 13 26 10 8 -3 11 -1 8 4 -3 6 -2 10 4 10 5 0 13 -4 16
-10 11 -18 26 -10 20 10 -3 11 -2 20 3 20 6 0 13 7 16 16 3 8 2 12 -3 9 -5 -3
-12 -1 -16 5 -3 5 3 10 15 10 31 0 46 47 23 73 -10 11 -13 18 -8 14 6 -3 17
-1 25 4 11 8 12 12 3 15 -9 4 -9 11 -1 29 6 14 15 22 21 18 5 -3 6 3 2 16 -5
17 -3 20 12 15 16 -5 16 -4 1 5 -18 12 -18 39 1 50 10 6 9 10 -3 14 -9 4 -16
11 -16 17 0 6 5 8 10 5 6 -4 8 7 4 32 -3 21 -10 41 -16 44 -13 8 0 165 15 191
9 16 9 22 0 25 -9 3 -13 32 -13 95 0 88 0 89 -22 82 -21 -6 -21 -5 -9 10 8 9
19 15 26 13 8 -4 12 22 14 82 1 47 4 94 7 104 3 10 0 17 -9 17 -22 0 -126 -71
-196 -133 -60 -54 -193 -147 -257 -180 -29 -15 -32 -14 -79 13 -46 27 -117 80
-240 180 -27 23 -114 87 -192 143 -77 56 -194 140 -259 187 -315 228 -1027
732 -1314 930 -69 48 -156 108 -195 135 -77 53 -487 350 -630 455 -49 37 -144
105 -210 152 -290 205 -471 332 -623 437 -89 62 -188 140 -220 172 -31 32 -64
59 -72 59 -8 -1 -48 -32 -88 -70z m48 -410 c-10 -19 -60 -57 -120 -90 -14 -8
-46 -31 -71 -52 -91 -75 -158 -127 -299 -231 -80 -59 -170 -127 -200 -150 -30
-24 -66 -50 -80 -59 -19 -12 -195 -145 -285 -216 -87 -68 -318 -245 -353 -271
-26 -18 -67 -50 -92 -70 -25 -21 -97 -74 -161 -120 -64 -45 -141 -102 -170
-127 -30 -25 -64 -52 -75 -62 -23 -18 -29 -23 -259 -199 -77 -58 -160 -122
-184 -140 -24 -19 -46 -32 -48 -29 -6 6 20 46 31 46 5 0 24 16 43 35 19 19 38
35 43 35 6 0 10 5 10 10 0 6 11 16 25 22 14 6 25 17 25 25 0 7 4 13 9 13 6 0
21 10 35 23 13 12 38 33 55 46 17 13 28 28 25 32 -3 5 0 9 5 9 6 0 30 20 53
44 24 24 65 58 92 75 28 17 47 31 43 31 -18 0 127 119 179 148 33 17 81 52
107 77 26 25 51 45 56 45 4 0 29 21 55 46 62 59 128 109 170 129 19 9 61 42
95 73 70 64 127 113 147 125 8 4 26 20 42 34 15 14 56 45 92 69 181 122 300
208 345 252 50 48 111 94 162 122 44 25 118 72 123 80 6 7 91 59 190 115 36
21 69 44 73 51 5 8 12 12 18 9 5 -4 9 -1 9 4 0 6 11 11 25 11 23 0 24 -2 15
-20z m227 -94 c26 -14 77 -46 113 -71 36 -26 117 -81 180 -123 63 -42 122 -85
132 -94 9 -9 62 -46 117 -82 55 -36 122 -82 149 -103 28 -21 76 -54 107 -73
32 -19 63 -40 69 -45 23 -22 299 -219 388 -277 51 -33 113 -77 138 -98 25 -20
115 -85 200 -144 141 -97 225 -156 410 -289 36 -26 92 -65 125 -88 33 -23 103
-74 155 -114 52 -39 129 -95 170 -123 41 -28 98 -68 127 -89 28 -21 88 -65
133 -98 46 -33 108 -79 139 -103 31 -24 94 -68 141 -99 75 -49 172 -125 329
-257 53 -44 221 -206 221 -213 0 -3 -24 12 -52 33 -29 21 -102 72 -163 113
-60 41 -135 96 -165 121 -31 25 -129 97 -219 160 -90 63 -225 160 -300 216
-75 55 -165 120 -201 144 -36 24 -117 82 -181 129 -168 125 -239 177 -358 261
-59 41 -185 134 -281 206 -96 72 -195 143 -220 159 -25 15 -79 53 -120 84 -41
30 -104 75 -140 99 -35 24 -97 71 -138 103 -41 33 -106 80 -145 106 -40 26
-107 73 -149 105 -43 32 -121 88 -175 124 -54 37 -109 76 -123 88 -26 23 -28
24 -185 131 -138 95 -262 185 -299 218 l-31 27 27 -9 c15 -6 48 -21 75 -35z
m-289 -149 c-35 -34 -181 -149 -272 -213 -155 -111 -411 -298 -456 -335 -25
-20 -137 -106 -250 -191 -351 -264 -424 -320 -460 -352 -19 -17 -143 -116
-275 -219 -318 -248 -471 -369 -718 -567 -114 -91 -264 -210 -335 -265 -71
-55 -203 -158 -293 -229 -138 -109 -337 -250 -374 -265 -32 -13 34 41 120 99
55 37 168 122 250 189 83 66 204 162 270 213 66 50 174 137 240 193 127 107
533 433 750 603 189 147 313 248 370 301 28 26 79 67 115 91 68 46 203 147
280 210 25 21 81 64 126 96 45 32 114 85 153 117 40 32 107 84 150 115 43 31
112 82 152 113 41 31 110 80 154 110 44 29 103 72 130 94 93 77 232 150 173
92z m189 -31 c60 -41 83 -57 170 -123 45 -34 122 -89 170 -122 48 -33 138 -99
198 -146 194 -151 239 -172 356 -161 l66 6 89 -65 c49 -35 157 -113 239 -173
83 -60 171 -122 195 -138 25 -16 81 -55 125 -88 44 -32 91 -62 104 -67 l24
-10 -7 -289 c-5 -193 -4 -295 3 -308 9 -17 3 -24 -40 -53 -83 -57 -152 -90
-163 -79 -5 5 -18 10 -28 10 -10 0 -18 4 -18 10 0 12 11 21 80 68 l55 38 0
289 0 289 -150 100 c-83 56 -178 122 -210 147 -33 25 -109 83 -170 129 -60 46
-112 87 -115 91 -16 20 -60 30 -126 30 -41 0 -79 -3 -84 -6 -5 -3 -52 -6 -105
-6 -57 0 -93 -4 -89 -10 3 -6 -45 -8 -128 -5 -73 3 -370 7 -659 8 l-525 3 -40
-26 c-21 -15 -132 -100 -245 -190 -113 -90 -233 -185 -266 -210 l-60 -47 2
-181 c0 -99 -2 -181 -6 -181 -15 0 -19 39 -19 199 l0 167 28 25 c15 14 54 45
87 69 33 25 156 121 273 214 171 135 211 172 207 187 -4 13 -1 19 9 19 14 0
20 12 17 33 0 4 15 7 35 7 29 0 46 9 80 40 45 41 90 58 63 23 -8 -10 -20 -24
-26 -31 -16 -16 -16 -29 -2 -37 20 -13 56 5 110 54 56 52 109 80 109 58 0 -6
8 -1 17 13 25 36 73 77 123 108 25 14 62 43 84 63 21 21 49 39 62 42 27 5 145
-68 331 -205 167 -123 201 -139 287 -136 40 2 71 8 73 14 4 12 -179 154 -282
219 -62 39 -87 57 -263 188 -57 42 -112 77 -124 77 -20 0 -55 -23 -108 -70
-39 -35 -112 -80 -130 -80 -27 0 -71 -26 -130 -76 -67 -57 -326 -229 -357
-237 -37 -9 -26 8 30 46 28 20 93 65 142 100 50 35 136 95 192 135 57 39 120
86 140 106 21 19 77 66 126 105 97 78 97 78 174 27z m-62 -690 c308 -2 655 -1
770 3 l210 7 45 -34 c25 -18 83 -63 130 -100 86 -68 206 -155 363 -262 l87
-61 0 -247 0 -247 -68 -48 c-37 -26 -89 -66 -117 -88 -27 -22 -87 -65 -131
-95 -45 -30 -97 -71 -117 -91 -23 -23 -50 -38 -75 -43 -21 -4 -151 -8 -288 -9
-137 -1 -260 -5 -273 -8 -17 -4 -22 -2 -17 6 4 6 14 11 22 11 7 0 69 48 135
108 67 59 170 146 230 194 59 48 110 92 114 98 8 14 22 340 14 340 -4 0 -37
22 -74 49 l-67 49 -789 -1 c-606 -2 -791 -5 -800 -14 -13 -13 -14 -66 -3 -209
l6 -81 -288 1 -289 2 -1 172 -2 172 97 67 c53 36 150 110 216 164 66 53 158
123 205 154 83 55 86 56 140 50 30 -3 307 -7 615 -9z m-1495 -414 c0 -24 -13
-37 -82 -87 -45 -32 -120 -91 -167 -130 -48 -39 -133 -107 -191 -150 -58 -43
-166 -129 -240 -190 -74 -61 -175 -142 -224 -181 -49 -38 -157 -123 -240 -189
-83 -67 -185 -145 -226 -174 -41 -30 -111 -84 -155 -121 -153 -127 -456 -350
-475 -350 -23 0 -6 18 57 60 64 43 231 170 408 310 45 36 110 88 145 115 35
28 109 88 164 134 56 46 113 91 128 100 15 10 91 70 170 134 179 146 673 541
781 625 45 34 95 76 112 92 16 17 31 30 32 30 2 0 3 -13 3 -28z m-285 -8 c-16
-14 -65 -57 -107 -95 -42 -38 -80 -69 -84 -69 -14 0 201 189 216 189 3 0 -8
-11 -25 -25z m3433 -178 c2 -73 1 -186 -3 -250 l-7 -116 -131 -99 c-73 -55
-175 -134 -227 -176 -52 -42 -107 -83 -122 -91 -21 -11 -74 -14 -250 -12
l-223 2 215 6 215 5 88 65 c49 36 162 119 250 186 l162 121 3 258 c2 196 5
256 14 247 7 -7 13 -63 16 -146z m-3061 72 c-2 -13 -4 -5 -4 17 -1 22 1 32 4
23 2 -10 2 -28 0 -40z m881 25 c-26 -2 -71 -2 -100 0 -29 2 -8 3 47 3 55 0 79
-1 53 -3z m1482 -34 l61 -42 -3 -153 c-2 -84 -7 -158 -13 -163 -7 -7 -9 42 -7
146 3 151 3 156 -20 180 -35 38 -77 57 -143 64 l-60 6 61 1 c57 2 67 -1 124
-39z m-2440 -2 c0 -15 -11 -29 -32 -42 -18 -10 -93 -66 -167 -124 -73 -58
-168 -133 -211 -166 -43 -33 -142 -114 -221 -181 -174 -145 -360 -287 -500
-381 -57 -39 -149 -108 -204 -154 -55 -46 -129 -106 -165 -134 -36 -27 -133
-104 -217 -171 -83 -68 -162 -128 -175 -134 -25 -13 -24 -12 112 104 118 101
513 415 765 608 127 97 277 217 335 268 58 50 157 130 220 177 63 48 160 124
216 170 122 102 226 182 237 183 4 0 7 -10 7 -23z m3500 -107 c30 -21 166
-120 302 -221 136 -101 266 -197 288 -212 23 -16 40 -31 37 -33 -7 -7 -230
143 -352 236 -90 69 -237 176 -349 253 -23 16 -48 36 -56 44 -22 22 65 -23
130 -67z m-1054 -36 c2 -110 -9 -194 -27 -205 -21 -13 -41 -11 -33 4 6 9 5 9
-8 -1 -13 -10 -15 -8 -13 20 1 18 2 74 3 124 2 74 6 96 22 117 11 14 28 24 38
23 14 -3 17 -15 18 -82z m-2966 72 c0 -3 -15 -14 -32 -26 l-33 -22 30 26 c31
27 35 29 35 22z m1420 -22 c13 -13 15 -178 15 -1412 0 -1376 0 -1397 -20
-1419 -11 -13 -27 -23 -37 -23 -10 0 -18 -8 -19 -17 0 -13 -3 -11 -10 6 -12
30 -4 2537 9 2570 4 13 5 51 1 85 -4 33 -10 101 -14 150 l-7 89 33 -7 c19 -3
41 -13 49 -22z m2466 -2 c89 -58 244 -169 354 -252 119 -90 272 -194 398 -270
39 -25 72 -47 71 -50 -1 -11 -135 -117 -496 -390 -76 -57 -175 -136 -221 -175
-101 -85 -153 -125 -161 -124 -3 0 -17 14 -30 30 l-24 31 44 39 c24 21 80 67
123 101 44 35 107 87 140 117 34 29 88 72 121 94 33 23 106 77 162 122 56 44
122 93 147 108 25 16 46 32 46 35 0 4 -35 31 -78 60 -145 100 -380 267 -458
328 -44 33 -101 76 -129 94 -27 19 -53 38 -57 44 -10 14 -10 86 0 86 4 0 26
-13 48 -28z m-3392 -34 c-3 -7 -36 -38 -74 -68 -38 -30 -72 -60 -74 -67 -3 -7
-48 -44 -100 -83 -53 -39 -141 -113 -196 -165 -55 -51 -155 -135 -223 -186
-67 -51 -169 -131 -227 -178 -58 -47 -139 -112 -180 -145 -143 -115 -368 -305
-375 -316 -3 -5 -11 -10 -17 -10 -37 0 299 288 852 728 69 55 164 136 213 179
48 44 115 96 150 116 34 20 87 62 117 93 47 48 125 114 136 114 2 0 1 -6 -2
-12z m3323 -75 c-2 -16 -4 -5 -4 22 0 28 2 40 4 28 2 -13 2 -35 0 -50z m-3952
28 c-33 -30 -135 -111 -135 -106 0 11 126 115 139 115 3 0 1 -4 -4 -9z m-171
-145 c-6 -15 -48 -46 -61 -46 -7 1 57 60 64 60 1 0 0 -6 -3 -14z m4334 -119
c192 -141 278 -200 306 -210 15 -6 8 -15 -45 -55 -106 -80 -296 -230 -432
-342 -188 -154 -203 -165 -219 -151 -7 6 -22 18 -33 26 -19 13 -19 15 25 60
25 26 104 92 175 148 314 243 369 291 350 302 -10 5 -36 24 -59 40 -23 17 -86
61 -141 99 -55 38 -106 76 -112 84 -7 9 -13 42 -13 75 0 47 3 58 14 54 8 -3
91 -62 184 -130z m-1168 79 c0 -2 -7 -7 -16 -10 -8 -3 -12 -2 -9 4 6 10 25 14
25 6z m-2502 -59 c-80 -49 -219 -151 -309 -224 -112 -91 -372 -296 -434 -343
-33 -24 -124 -99 -203 -165 -124 -104 -207 -169 -337 -266 l-30 -23 25 29 c38
45 40 46 120 110 41 32 134 109 205 170 72 61 189 157 260 213 72 56 162 127
200 158 39 31 95 72 125 91 65 42 173 133 166 141 -3 3 -13 -1 -23 -9 -9 -8
-14 -9 -10 -2 11 17 90 61 122 67 15 3 35 12 44 19 22 20 124 77 136 77 6 0
-20 -20 -57 -43z m927 32 c4 -5 7 -611 7 -1347 1 -1093 3 -1254 9 -882 5 250
8 854 6 1342 -1 487 1 884 6 881 9 -5 8 -2334 -2 -2585 -7 -204 -13 -219 -63
-172 -18 17 -60 51 -93 76 -148 111 -296 219 -365 266 -41 28 -86 63 -100 78
-34 37 -20 28 172 -110 92 -67 197 -141 233 -166 35 -25 77 -58 92 -72 34 -31
92 -62 101 -53 15 14 -53 68 -344 275 l-211 151 -1 1002 c-1 1369 0 1307 -13
1307 -7 0 -9 -344 -7 -1154 3 -924 1 -1153 -9 -1149 -10 4 -13 241 -13 1158
l0 1154 23 4 c50 9 566 6 572 -4z m1665 -3 c0 -3 -60 -53 -132 -112 -73 -59
-151 -124 -174 -143 -128 -112 -165 -142 -156 -125 14 26 75 82 217 200 176
146 245 197 245 180z m-3530 -40 c0 -2 -7 -7 -16 -10 -8 -3 -12 -2 -9 4 6 10
25 14 25 6z m-51 -39 c-2 -1 -13 -9 -24 -17 -19 -14 -19 -14 -6 3 7 9 18 17
24 17 6 0 8 -1 6 -3z m92 -25 c-19 -15 -64 -53 -100 -85 -61 -54 -145 -119
-111 -85 32 31 177 156 205 176 43 30 47 26 6 -6z m874 -55 c-17 -12 -48 -38
-70 -58 -69 -63 -186 -149 -202 -149 -8 0 -27 -12 -41 -28 -15 -15 -43 -39
-62 -54 -101 -78 -387 -301 -452 -353 -42 -33 -137 -107 -213 -165 -76 -58
-143 -110 -149 -115 -6 -6 -47 -38 -91 -72 -44 -34 -97 -78 -119 -98 -26 -24
-44 -34 -55 -30 -13 6 -12 9 8 16 14 5 31 18 38 29 16 23 183 160 313 257 52
39 122 94 155 122 33 28 119 98 190 155 72 58 164 132 205 165 41 34 127 100
190 148 63 47 159 119 212 160 93 70 157 107 168 96 3 -2 -9 -14 -25 -26z
m3487 16 c-6 -9 -27 -29 -48 -44 -94 -68 -184 -129 -184 -125 0 2 43 37 96 76
53 40 103 81 112 91 20 23 36 25 24 2z m-1221 -35 c0 -7 2 -21 4 -30 2 -9 -7
-25 -18 -35 -20 -17 -21 -17 -8 0 8 9 10 21 6 25 -4 4 -10 1 -12 -5 -6 -17
-33 -16 -33 1 0 18 26 39 39 31 7 -3 8 0 5 9 -3 9 -1 16 5 16 6 0 11 -6 12
-12z m-3386 -24 c-34 -26 -55 -36 -55 -25 0 5 9 13 20 16 11 3 20 11 20 16 0
5 8 9 18 9 15 -1 15 -2 -3 -16z m3425 1 c-7 -8 -18 -15 -24 -15 -6 0 -2 7 8
15 25 19 32 19 16 0z m-128 -74 c10 -16 15 -18 28 -8 8 7 0 -6 -19 -28 -19
-22 -45 -46 -59 -54 -14 -7 -49 -33 -79 -57 -49 -40 -59 -44 -108 -44 -55 0
-74 13 -34 23 11 3 25 18 31 34 7 18 25 36 49 47 22 11 62 39 90 63 55 47 82
53 101 24z m1606 4 c9 -8 -17 -24 -50 -31 -15 -4 -25 -10 -22 -15 3 -5 -1 -6
-9 -3 -12 4 -13 11 -3 36 10 27 14 29 45 24 18 -3 36 -8 39 -11z m672 -61 c12
-13 5 -23 -47 -73 -34 -32 -75 -64 -92 -71 -17 -7 -31 -17 -31 -22 0 -6 -7 -7
-16 -4 -8 3 -13 2 -10 -2 3 -4 -4 -13 -15 -20 -15 -10 -19 -10 -19 2 0 10 -9
13 -32 9 l-33 -5 30 23 c17 13 32 26 35 29 3 3 34 28 69 55 35 28 75 60 90 72
31 26 54 29 71 7z m69 -1 c9 -10 23 -19 31 -21 8 -2 56 -30 107 -63 50 -32 94
-59 98 -59 11 0 119 -77 139 -99 23 -25 2 -30 -25 -5 -17 15 -20 14 -51 -7
-18 -12 -67 -52 -108 -89 -80 -71 -283 -235 -390 -315 -36 -27 -112 -87 -170
-135 -58 -47 -149 -119 -203 -159 -53 -41 -148 -116 -210 -168 -153 -129 -237
-177 -237 -136 0 12 12 23 33 31 18 6 123 83 234 169 253 198 568 447 653 516
249 203 380 305 396 309 17 3 16 5 -6 26 -31 29 -51 28 -81 -4 -25 -27 -340
-281 -552 -444 -68 -52 -161 -126 -207 -165 -45 -38 -117 -97 -159 -130 -42
-33 -113 -89 -158 -125 -106 -84 -143 -107 -143 -86 0 15 37 56 51 56 9 0 174
131 303 240 115 98 378 308 476 380 61 46 130 105 130 113 0 12 51 57 65 57
14 0 177 134 183 150 2 4 -19 20 -45 36 -88 51 -203 144 -178 144 4 0 15 -8
24 -17z m-5693 -12 c-3 -4 -31 -28 -63 -52 -32 -24 -128 -100 -213 -169 -85
-69 -217 -171 -293 -225 -191 -138 -182 -132 -173 -117 8 13 100 82 296 224
58 42 146 112 195 156 72 64 238 190 253 192 2 0 1 -4 -2 -9z m2594 -17 c58
-3 116 -7 130 -9 14 -2 92 -4 173 -4 114 -1 148 -4 144 -13 -2 -8 -22 -13 -48
-14 -24 0 -105 -5 -179 -10 -157 -11 -279 -11 -300 -1 -13 6 -16 0 -17 -30 -2
-90 -14 -331 -19 -360 -3 -18 -9 -33 -15 -33 -6 0 -7 5 -4 10 3 6 2 10 -3 10
-5 0 -9 6 -10 13 -1 6 -3 23 -4 37 -2 14 -6 27 -10 31 -4 3 -9 93 -11 201 l-3
195 35 -8 c20 -5 83 -11 141 -15z m759 -88 c-2 -2 -29 -6 -59 -10 -38 -4 -50
-3 -40 4 13 9 109 15 99 6z m836 -72 c-77 -69 -88 -59 -11 13 32 30 61 51 65
48 3 -4 -21 -31 -54 -61z m1540 29 c33 -20 63 -41 67 -47 9 -14 0 -26 -19 -26
-23 0 -123 78 -123 95 0 21 8 19 75 -22z m-4415 -26 c0 -46 0 -46 -314 -292
-56 -44 -155 -125 -220 -180 -65 -55 -146 -122 -180 -150 -35 -27 -94 -76
-131 -107 -38 -32 -76 -58 -84 -58 -8 0 -43 -15 -77 -34 -54 -30 -64 -33 -75
-20 -10 12 -7 20 17 46 68 73 186 172 364 305 74 55 187 144 250 198 250 211
428 348 442 339 4 -3 8 -24 8 -47z m1221 46 c6 -73 4 -553 -2 -553 -9 0 -11
52 -13 367 -1 106 2 193 7 193 4 0 7 -3 8 -7z m1505 -46 c31 -28 73 -63 93
-77 20 -13 66 -47 103 -75 37 -27 81 -59 97 -70 17 -11 83 -57 146 -102 63
-46 119 -83 124 -83 20 0 43 -49 39 -80 -3 -16 -2 -30 2 -30 3 0 4 -114 2
-252 -2 -177 0 -249 7 -238 9 12 11 11 11 -7 0 -12 -4 -24 -8 -27 -5 -3 -7
-64 -6 -136 l3 -131 -40 -26 c-31 -20 -42 -23 -53 -13 -11 8 -20 9 -33 1 -13
-7 -14 -10 -4 -11 8 0 12 -3 8 -6 -3 -3 -15 -3 -27 1 -20 6 -19 8 15 46 l35
39 -5 198 c-3 108 -7 294 -9 412 l-3 214 -50 36 c-49 34 -150 110 -367 273
-60 45 -121 95 -135 111 -32 35 -94 67 -124 65 -12 -1 -33 -1 -47 0 -19 1 -22
3 -11 10 8 5 52 10 97 10 l83 1 57 -53z m-1166 15 c0 -5 36 -7 79 -4 l80 4 3
-43 c3 -38 6 -44 33 -51 53 -15 404 -20 635 -10 253 11 248 12 320 -63 48 -51
85 -68 40 -19 l-35 38 43 -33 c23 -18 40 -37 37 -42 -4 -5 0 -6 8 -3 8 3 28
-10 47 -32 18 -21 58 -58 89 -83 31 -24 79 -65 106 -90 103 -93 124 -108 133
-99 13 13 20 -116 26 -462 l6 -266 -103 -84 c-56 -47 -174 -143 -262 -213 -88
-71 -182 -151 -210 -177 -27 -26 -72 -64 -99 -84 l-48 -37 -302 5 c-165 3
-451 5 -633 5 l-333 1 0 250 c0 148 4 250 9 250 6 0 11 -98 13 -234 2 -129 6
-238 10 -242 4 -4 276 -9 605 -12 l598 -4 52 35 c29 19 112 84 185 144 73 60
171 138 218 174 153 115 265 218 270 247 3 15 3 169 -1 342 l-5 315 -2 -331
-2 -332 -57 -43 c-32 -23 -87 -68 -123 -99 -36 -31 -119 -99 -185 -150 -125
-97 -206 -165 -284 -237 l-46 -43 -196 0 c-108 0 -378 3 -602 7 l-406 6 -5 71
c-4 39 -7 141 -9 227 l-2 156 574 1 574 0 74 46 c42 25 79 46 84 46 10 0 10 5
11 384 l0 268 -68 43 -69 44 -185 0 c-102 0 -260 5 -350 10 -91 6 -272 13
-402 14 -131 2 -240 6 -243 8 -3 3 -8 112 -12 243 -5 201 -4 236 8 232 11 -4
274 7 302 12 4 1 7 -2 7 -6z m3154 -113 c-10 -11 -28 -25 -39 -30 -11 -6 -4 4
15 21 40 35 52 39 24 9z m1256 6 c-7 -8 -17 -15 -22 -15 -6 0 -5 7 2 15 7 8
17 15 22 15 6 0 5 -7 -2 -15z m-1150 -10 l25 -13 -30 -12 c-43 -16 -144 -78
-195 -120 -25 -20 -88 -68 -140 -105 -52 -38 -144 -110 -205 -160 -60 -50
-157 -126 -215 -170 -58 -43 -136 -105 -175 -137 -403 -330 -473 -384 -488
-369 -8 8 -5 18 11 33 15 15 22 18 22 9 0 -9 10 -5 28 12 82 78 290 247 587
477 103 80 224 176 269 213 45 38 101 83 126 100 25 17 90 67 145 111 55 45
104 80 109 78 11 -4 86 48 86 59 0 12 11 11 40 -6z m95 -58 c17 -13 16 -14
-12 -20 -17 -3 -59 -28 -94 -54 -35 -27 -125 -92 -199 -145 -74 -54 -171 -125
-215 -159 -44 -34 -174 -134 -290 -222 -115 -88 -266 -206 -335 -261 -69 -56
-161 -128 -204 -161 -44 -33 -93 -72 -111 -87 -38 -33 -45 -34 -38 -10 2 9 43
46 90 82 80 61 166 129 339 268 39 31 106 84 149 117 43 33 169 132 279 220
251 199 588 445 611 445 6 0 19 -6 30 -13z m-4742 -374 l-10 -268 0 325 c0
243 2 311 9 268 7 -37 7 -152 1 -325z m-193 323 c0 -8 -17 -28 -39 -43 -59
-43 -202 -167 -236 -204 -36 -40 -16 -25 85 63 41 35 103 83 137 106 59 39 63
40 73 22 14 -26 -19 -62 -193 -212 -143 -124 -241 -200 -391 -303 -48 -33 -94
-65 -103 -71 -13 -9 -7 -17 38 -49 204 -147 561 -421 598 -458 38 -39 45 -53
49 -98 4 -43 2 -50 -10 -43 -16 10 -174 131 -403 309 -88 68 -221 170 -295
227 l-135 102 76 71 c42 39 123 108 180 152 57 44 144 118 194 163 99 91 171
148 285 227 81 57 90 61 90 39z m4995 5 c3 -5 -40 -42 -96 -83 -56 -40 -152
-112 -214 -159 -61 -47 -140 -106 -176 -129 -35 -24 -109 -80 -164 -125 -55
-44 -148 -115 -207 -158 -104 -74 -266 -201 -472 -370 -112 -91 -214 -162
-223 -154 -9 10 6 24 85 81 42 31 104 80 138 109 88 75 353 284 464 364 52 38
141 105 197 150 56 45 146 113 200 152 54 39 175 129 268 201 94 71 175 129
182 130 6 0 14 -4 18 -9z m76 -55 c-11 -14 -75 -63 -396 -306 -77 -59 -234
-178 -349 -266 -115 -87 -252 -192 -305 -231 -53 -40 -136 -106 -186 -147
-124 -102 -190 -154 -255 -201 -30 -21 -76 -56 -102 -78 -41 -33 -48 -36 -48
-19 0 37 12 82 21 76 16 -10 168 89 297 193 70 56 276 216 457 355 778 595
834 636 859 637 15 1 16 -2 7 -13z m85 -49 c4 -4 2 -7 -4 -7 -6 0 -41 -26 -79
-58 -37 -32 -115 -94 -173 -137 -58 -43 -141 -108 -185 -145 -44 -36 -152
-121 -240 -188 -284 -216 -399 -305 -521 -403 -65 -52 -157 -125 -204 -161
-47 -36 -143 -116 -215 -177 -148 -128 -215 -179 -152 -116 20 20 37 43 37 50
0 26 90 108 275 250 50 39 176 138 280 221 105 82 264 206 355 274 91 67 206
155 255 194 133 106 303 237 365 281 30 22 78 61 106 86 47 43 81 55 100 36z
m64 -46 c0 -13 -88 -91 -215 -189 -60 -47 -148 -118 -195 -157 -47 -40 -139
-113 -205 -163 -66 -50 -151 -116 -190 -146 -38 -30 -149 -117 -247 -193 -97
-76 -276 -219 -398 -318 -122 -99 -279 -222 -348 -273 -70 -52 -137 -103 -149
-115 -13 -11 -25 -19 -27 -16 -5 4 176 170 244 224 21 17 116 94 211 172 223
182 403 325 559 444 263 201 399 307 499 389 57 47 156 125 220 174 64 49 138
109 166 133 47 41 75 54 75 34z m405 -19 c-41 -36 -95 -72 -95 -64 0 12 28 36
65 55 34 18 44 21 30 9z m-401 -131 c-34 -32 -108 -93 -165 -136 -57 -43 -142
-110 -189 -150 -47 -40 -132 -107 -190 -150 -58 -43 -139 -106 -180 -140 -41
-33 -122 -96 -180 -140 -58 -43 -143 -111 -190 -150 -47 -39 -155 -126 -240
-192 -85 -66 -191 -151 -235 -188 -44 -37 -107 -85 -140 -108 -33 -22 -105
-77 -160 -122 -55 -44 -125 -98 -156 -120 -75 -53 -372 -295 -518 -421 -64
-55 -163 -138 -221 -184 -58 -47 -113 -92 -124 -100 -10 -8 -57 -49 -105 -90
-105 -92 -249 -205 -441 -348 -230 -171 -235 -173 -254 -166 -10 4 -89 64
-176 133 -87 69 -198 154 -247 188 -111 78 -247 191 -251 208 -6 24 71 -13
145 -71 37 -29 115 -88 173 -130 58 -43 157 -121 220 -173 63 -53 123 -102
132 -109 22 -17 53 -1 167 86 106 81 131 100 254 191 53 39 139 109 191 154
108 95 173 148 273 222 40 30 125 98 188 152 64 54 154 127 199 163 46 36 133
108 195 161 61 53 153 128 204 167 50 39 108 85 127 102 19 17 89 72 154 123
66 51 149 117 185 148 36 30 129 104 206 164 77 59 178 141 225 180 47 40 130
105 185 145 55 41 129 99 165 129 35 30 125 99 198 154 74 54 157 120 185 145
120 108 436 346 446 336 3 -3 -21 -32 -55 -63z m-7299 1 c-6 -6 -55 30 -55 40
0 5 13 -1 29 -14 15 -13 27 -24 26 -26z m451 -14 c-45 -38 -96 -72 -96 -65 0
6 121 97 129 97 3 0 -12 -15 -33 -32z m3779 2 c116 -6 105 -7 -65 -2 -113 2
-344 8 -515 12 -307 8 -307 8 65 3 206 -3 438 -8 515 -13z m3129 -72 c-33 -33
-113 -101 -179 -151 -66 -50 -155 -120 -198 -156 -43 -36 -132 -106 -197 -156
-181 -138 -383 -297 -505 -396 -108 -88 -260 -208 -499 -392 -65 -51 -158
-124 -205 -162 -47 -39 -117 -93 -156 -120 -65 -46 -514 -400 -525 -415 -3 -3
-54 -48 -115 -99 -60 -51 -119 -100 -130 -110 -19 -17 -110 -88 -181 -141 -18
-14 -68 -54 -111 -89 -96 -79 -103 -85 -103 -78 0 8 229 208 300 262 67 51 80
62 292 242 267 226 387 325 518 424 74 56 151 116 170 134 19 18 105 87 190
153 347 270 469 366 540 425 41 34 106 86 145 116 38 30 131 103 205 161 74
59 178 141 231 181 53 41 202 159 330 262 228 184 300 225 183 105z m-2774 24
l65 -37 -3 -307 c-2 -307 -2 -307 -25 -319 -19 -10 -20 -10 -11 2 8 10 13 109
15 312 l4 298 -25 20 c-47 37 -85 53 -140 60 l-55 6 55 1 c47 1 65 -4 120 -36z
m-4260 -47 c-7 -8 -20 -15 -29 -15 -11 1 -8 5 9 15 32 18 35 18 20 0z m-263
-86 c29 -23 51 -44 49 -47 -6 -6 -39 16 -86 57 -52 45 -25 37 37 -10z m3776
14 c-7 -2 -21 -2 -30 0 -10 3 -4 5 12 5 17 0 24 -2 18 -5z m305 -10 c-38 -2
-98 -2 -135 0 -38 2 -7 3 67 3 74 0 105 -1 68 -3z m-4198 -69 c0 -3 -7 -1 -15
6 -8 7 -15 17 -15 22 0 5 7 3 15 -6 8 -8 15 -18 15 -22z m4637 -21 c-3 -10 -5
-4 -5 12 0 17 2 24 5 18 2 -7 2 -21 0 -30z m-36 -63 c5 0 9 -11 9 -25 0 -42
19 -28 23 18 2 23 3 -43 3 -148 0 -127 -2 -165 -6 -115 l-6 75 -2 -78 c-1 -44
-6 -76 -11 -73 -5 4 -12 0 -14 -6 -3 -7 -6 -4 -7 7 -1 11 -4 29 -6 40 -10 38
-16 354 -8 372 6 14 9 8 12 -24 2 -24 7 -43 13 -43z m-4301 5 c11 -13 10 -14
-4 -9 -9 3 -16 10 -16 15 0 13 6 11 20 -6z m6968 -27 c-19 -29 -86 -82 -208
-163 -52 -35 -133 -96 -180 -135 -47 -40 -114 -92 -150 -116 -36 -23 -137
-103 -225 -176 -89 -73 -179 -145 -200 -159 -22 -15 -79 -60 -126 -100 -48
-41 -172 -137 -275 -214 -104 -77 -198 -148 -209 -157 -11 -9 -50 -39 -87 -65
-77 -55 -223 -168 -253 -196 -11 -10 -40 -30 -65 -45 -25 -14 -53 -32 -62 -40
-11 -9 -18 -11 -18 -4 0 6 46 44 103 84 56 40 121 92 145 116 23 23 47 42 52
42 5 0 67 46 137 103 70 56 144 114 163 127 19 13 89 67 155 120 66 53 156
123 200 156 44 32 138 108 210 167 71 60 159 130 195 155 36 25 103 78 150
117 138 113 508 388 525 391 9 1 19 5 23 8 13 14 13 4 0 -16z m-6870 -45 c37
-26 110 -81 162 -123 53 -42 141 -107 195 -145 55 -38 152 -112 215 -165 63
-52 153 -122 200 -154 84 -59 156 -111 385 -282 65 -49 160 -118 211 -154 174
-123 303 -225 319 -252 9 -16 12 -28 7 -28 -5 0 -71 46 -148 102 -76 56 -178
129 -225 162 -95 67 -246 181 -929 702 -280 213 -358 275 -415 328 -33 31 -56
56 -52 56 5 0 38 -21 75 -47z m697 -82 c-3 -3 -18 8 -33 23 l-27 29 32 -23
c18 -13 30 -26 28 -29z m-862 -176 c26 -25 50 -44 52 -42 6 2 91 -65 159 -124
23 -20 55 -43 71 -52 33 -16 74 -57 58 -57 -5 0 -18 9 -27 19 -10 11 -31 25
-47 31 -16 7 -29 17 -29 22 0 6 -7 8 -14 5 -11 -4 -13 -1 -9 10 5 12 1 14 -14
9 -13 -4 -25 0 -34 11 -11 15 -11 16 1 6 8 -7 19 -13 24 -13 13 0 -85 89 -98
90 -5 0 1 -12 15 -27 13 -15 -11 4 -53 41 -43 38 -78 65 -78 61 0 -4 -7 -2
-15 5 -8 7 -12 16 -9 21 3 5 0 9 -5 9 -6 0 -11 5 -11 10 0 18 15 10 63 -35z
m4125 -42 c4 -28 22 -30 22 -3 0 11 5 20 11 20 5 0 8 -4 4 -9 -6 -11 33 -26
42 -17 4 3 -2 6 -13 7 -16 0 -15 2 5 10 28 11 52 5 49 -12 -2 -7 12 -14 35
-16 25 -3 37 0 37 8 0 16 13 3 16 -15 1 -11 -68 -13 -385 -14 -212 0 -408 3
-436 7 -37 6 -42 9 -20 10 44 3 74 8 125 20 25 6 54 11 65 11 17 0 17 -2 5
-10 -10 -6 -2 -7 25 -3 22 3 42 9 45 13 3 4 38 8 79 9 41 1 77 3 79 6 3 2 50
3 106 2 96 -2 101 -3 104 -24z m-1036 -28 c12 0 23 -4 23 -10 -1 -16 -18 -179
-20 -187 -2 -5 -3 -32 -4 -60 -1 -34 -4 -48 -10 -39 -5 7 -7 21 -4 30 2 9 -1
30 -8 46 l-11 30 -14 -35 c-12 -33 -13 -28 -12 70 1 58 3 124 6 148 4 38 6 41
17 25 7 -10 24 -18 37 -18z m-2649 -38 c33 -26 54 -47 49 -47 -10 0 -132 99
-132 108 0 5 4 2 83 -61z m2967 30 c0 -5 -11 -6 -25 -3 -14 4 -25 2 -25 -4 0
-5 -4 -10 -10 -10 -5 0 -10 7 -10 15 0 12 9 15 35 13 19 -1 35 -6 35 -11z
m1010 9 c0 -2 -19 -15 -42 -30 l-43 -27 35 30 c32 27 50 38 50 27z m-162 -63
c-10 -2 -26 -2 -35 0 -10 3 -2 5 17 5 19 0 27 -2 18 -5z m49 1 c-3 -3 -12 -4
-19 -1 -8 3 -5 6 6 6 11 1 17 -2 13 -5z m-605 -11 c-40 -2 -103 -2 -140 0 -37
2 -4 3 73 3 77 0 107 -2 67 -3z m1588 -46 c0 -2 -12 -14 -27 -28 l-28 -24 24
28 c23 25 31 32 31 24z m-4975 -88 c16 -19 13 -18 -17 5 -21 16 -38 30 -38 33
0 8 36 -16 55 -38z m4824 -48 c-107 -94 -269 -220 -269 -209 0 2 41 37 92 78
50 41 116 96 147 122 67 57 93 65 30 9z m-2087 -150 c3 -69 9 -106 16 -109 7
-2 12 -8 12 -13 0 -6 -8 -5 -20 1 -18 10 -20 21 -20 122 0 61 2 109 4 107 2
-2 6 -51 8 -108z m-1396 84 c10 -8 15 -15 9 -15 -5 0 -3 -5 5 -10 8 -5 11 -10
5 -9 -18 0 -72 49 -54 49 8 0 24 -7 35 -15z m-1756 -95 c25 -23 38 -38 30 -34
-30 14 -118 86 -124 100 -8 20 32 -8 94 -66z m3177 -57 c-3 -10 -5 -4 -5 12 0
17 2 24 5 18 2 -7 2 -21 0 -30z m-1977 -63 c19 -17 26 -26 15 -21 -30 16 -71
51 -60 51 6 0 26 -14 45 -30z m3600 -75 c0 -7 -156 -122 -184 -137 l-21 -10
20 20 c17 18 174 131 183 132 1 0 2 -2 2 -5z m230 -235 c-55 -49 -143 -111
-115 -82 22 23 147 121 155 121 3 0 -15 -18 -40 -39z m-1931 -89 c37 -38 85
-74 141 -104 47 -26 132 -78 190 -116 l105 -70 30 20 c80 52 156 89 209 103
33 9 62 13 65 10 11 -12 -275 -254 -299 -254 -5 0 -101 69 -213 153 -113 83
-227 168 -254 187 -44 33 -48 39 -51 83 -2 32 1 47 9 47 7 0 38 -26 68 -59z
m-1299 -48 c0 -7 -39 17 -46 28 -3 6 5 3 20 -6 14 -10 26 -19 26 -22z m3234
-261 c-60 -55 -90 -79 -116 -92 l-23 -12 20 20 c22 23 147 121 155 121 3 0
-13 -16 -36 -37z m-564 -67 c-7 -8 -18 -15 -24 -15 -6 0 -2 7 8 15 25 19 32
19 16 0z m-1180 -114 c66 -51 70 -57 24 -31 -23 12 -61 40 -85 62 -33 29 -37
35 -14 21 17 -9 50 -33 75 -52z m1070 35 c0 -2 -35 -30 -77 -62 -43 -32 -94
-71 -114 -88 -45 -38 -55 -47 -154 -123 -44 -34 -110 -86 -147 -115 -36 -29
-111 -88 -166 -131 -55 -43 -110 -89 -123 -103 -25 -27 -49 -32 -49 -10 0 16
123 132 158 148 12 6 22 15 22 20 0 4 5 8 10 8 15 0 165 116 240 186 73 68
130 109 208 148 28 14 52 30 52 35 0 9 71 59 110 78 31 14 30 14 30 9z m-950
-106 c15 0 50 -7 78 -16 39 -13 57 -14 81 -6 18 6 39 8 48 5 11 -4 14 -3 9 5
-4 7 -2 12 4 12 6 0 8 5 5 10 -3 6 -2 10 3 10 6 0 12 -7 15 -14 9 -23 -117
-110 -147 -102 -29 7 -136 94 -135 110 0 7 2 6 6 -1 2 -7 17 -13 33 -13z
m1190 -115 c-13 -14 -28 -25 -34 -25 -6 0 3 11 19 25 39 31 45 32 15 0z m320
-265 c0 -5 -5 -10 -11 -10 -5 0 -7 5 -4 10 3 6 8 10 11 10 2 0 4 -4 4 -10z
m-890 -65 c-7 -8 -17 -15 -23 -15 -5 0 -27 -16 -48 -35 -22 -19 -44 -35 -51
-35 -14 0 -10 4 55 57 52 42 93 59 67 28z"/>
<path d="M5271 7609 c-14 -5 -68 -40 -120 -78 -53 -38 -107 -74 -120 -81 -19
-10 -21 -14 -10 -21 41 -22 589 -22 589 1 0 20 -243 174 -290 184 -14 3 -36 1
-49 -5z"/>
<path d="M4702 4100 c0 -57 1 -61 9 -32 6 20 6 44 0 65 -8 28 -9 24 -9 -33z"/>
<path d="M4230 5833 c-93 -47 -131 -130 -110 -237 15 -74 29 -96 82 -126 121
-68 308 16 338 152 10 44 9 59 -4 89 -36 84 -108 137 -200 146 -42 4 -60 0
-106 -24z m65 -158 c128 -1 185 -13 185 -36 0 -24 -34 -50 -87 -65 -73 -21
-145 -6 -202 42 -35 30 -41 41 -40 72 1 31 2 33 8 13 7 -24 8 -25 136 -26z
m245 -9 c0 -26 -6 -18 -14 19 -5 22 -4 26 4 15 5 -8 10 -24 10 -34z"/>
<path d="M6610 5607 c0 -3 12 -12 26 -22 15 -9 23 -12 20 -6 -7 11 -46 35 -46
28z"/>
<path d="M1940 4606 c0 -2 8 -10 18 -17 15 -13 16 -12 3 4 -13 16 -21 21 -21
13z"/>
<path d="M5970 4632 c0 -5 7 -15 15 -22 8 -7 15 -8 15 -2 0 5 -7 15 -15 22 -8
7 -15 8 -15 2z"/>
<path d="M4319 8663 c-13 -16 -12 -17 4 -4 9 7 17 15 17 17 0 8 -8 3 -21 -13z"/>
<path d="M9540 8610 c-8 -5 -22 -7 -31 -5 -9 3 -51 -21 -99 -57 -46 -35 -93
-70 -104 -78 -12 -8 -22 -18 -24 -22 -2 -5 -10 -8 -17 -8 -7 0 -15 -3 -17 -7
-1 -5 -30 -28 -63 -53 -33 -24 -66 -50 -73 -57 -7 -7 -46 -32 -85 -55 -40 -23
-117 -84 -171 -136 -54 -52 -126 -112 -160 -134 -34 -21 -91 -67 -127 -101
-66 -62 -222 -185 -308 -243 -25 -17 -81 -54 -123 -82 -55 -37 -84 -64 -98
-92 -25 -50 -25 -54 5 -70 24 -13 28 -11 63 21 20 20 54 48 76 65 195 149 296
230 374 300 60 53 176 144 204 160 9 5 33 25 55 44 43 40 132 111 194 155 23
17 70 54 103 83 33 30 74 59 91 66 49 21 85 27 85 16 0 -5 -9 -10 -21 -10 -11
0 -18 -4 -15 -9 7 -11 -76 -83 -164 -141 -36 -24 -99 -74 -140 -110 -41 -37
-106 -90 -145 -119 -129 -95 -277 -215 -365 -298 -49 -44 -114 -100 -147 -124
-32 -23 -82 -67 -111 -98 -49 -51 -51 -55 -36 -73 23 -24 44 -23 74 5 49 44
143 122 178 150 20 15 61 51 91 80 67 63 214 186 292 244 30 22 84 66 120 98
35 31 95 72 133 91 37 20 87 53 110 76 38 37 87 73 211 154 28 18 56 38 62 44
7 6 28 20 48 31 19 12 35 25 35 30 0 5 7 9 15 9 8 0 15 -2 15 -4 0 -16 -102
-110 -230 -212 -175 -138 -225 -171 -236 -153 -5 8 -3 9 6 4 9 -5 11 -4 6 3
-10 17 -26 15 -26 -4 0 -8 -5 -12 -10 -9 -6 3 -13 -2 -17 -12 -4 -10 -12 -23
-17 -28 -40 -39 -196 -163 -271 -215 -49 -35 -126 -98 -170 -140 -44 -43 -116
-109 -160 -148 -44 -38 -100 -91 -125 -117 l-45 -46 24 -20 c13 -10 31 -19 40
-19 9 0 46 30 81 66 64 65 208 174 229 174 6 0 11 4 11 9 0 5 9 13 20 16 11 3
20 10 20 16 0 12 32 49 43 49 5 0 39 30 75 68 37 37 83 79 102 94 19 14 58 47
85 72 28 25 77 63 110 83 33 20 68 43 78 51 25 22 22 -3 -5 -34 -28 -32 -184
-166 -258 -222 -30 -22 -80 -64 -110 -92 -30 -28 -98 -83 -150 -122 -121 -90
-285 -255 -270 -273 5 -6 28 -20 51 -30 35 -16 42 -17 49 -4 5 7 30 37 57 66
26 28 61 68 77 88 16 20 50 47 75 60 25 13 95 71 154 129 60 58 150 141 200
183 51 43 132 115 181 161 52 48 102 86 118 89 15 3 25 9 22 14 -3 5 -1 9 5 9
31 0 13 -97 -27 -148 -18 -22 -63 -61 -100 -85 -82 -54 -153 -111 -246 -198
-39 -36 -91 -81 -116 -99 -25 -19 -54 -42 -65 -52 -238 -204 -295 -257 -295
-271 0 -7 25 -29 56 -50 60 -42 81 -43 125 -7 13 11 29 23 34 28 6 4 30 22 55
39 25 17 57 43 73 58 15 15 27 24 27 20 0 -5 10 3 23 17 12 14 31 28 42 32 11
3 32 17 47 31 15 14 31 25 35 25 5 0 14 14 20 30 7 18 18 30 30 30 14 0 15 2
4 9 -11 7 -10 12 8 22 11 8 21 19 21 26 0 7 11 20 25 29 14 9 25 21 25 28 0 6
21 29 47 51 26 22 56 50 67 63 11 12 25 22 31 22 11 0 81 86 102 127 7 13 10
37 6 54 -5 26 -9 30 -29 25 -29 -8 -31 5 -4 29 11 10 20 24 20 32 0 7 4 13 9
13 5 0 11 11 13 25 3 14 1 22 -5 18 -5 -3 -6 3 -2 16 5 16 1 26 -11 35 -24 18
-46 10 -85 -30 -36 -37 -65 -48 -32 -11 39 42 55 74 42 83 -7 4 -9 3 -6 -3 4
-6 -4 -14 -19 -17 -14 -4 -44 -25 -66 -47 -40 -40 -68 -47 -33 -9 18 19 17 20
-2 20 -11 0 -37 -13 -58 -30 -21 -16 -42 -30 -48 -30 -18 0 74 74 134 107 138
77 319 239 319 286 0 5 -18 -5 -39 -22 -64 -51 -58 -35 15 37 81 81 115 135
96 154 -11 11 -28 -3 -90 -68 -72 -76 -218 -192 -229 -181 -2 3 29 30 70 61
74 55 152 130 170 161 8 14 6 16 -14 10 -19 -6 -14 3 24 41 27 27 47 53 45 59
-10 31 -108 -24 -208 -115 -56 -52 -145 -110 -168 -110 -22 0 -6 15 41 39 25
13 71 45 104 72 32 27 90 74 130 105 39 30 74 62 77 70 6 16 -3 18 -24 4z m-3
-106 c0 -15 -120 -126 -167 -155 -27 -17 -70 -30 -70 -22 0 8 132 135 169 163
39 29 68 35 68 14z m43 -98 c0 -3 -4 -8 -10 -11 -5 -3 -10 -1 -10 4 0 6 5 11
10 11 6 0 10 -2 10 -4z"/>
<path d="M4189 8563 c-13 -16 -12 -17 4 -4 9 7 17 15 17 17 0 8 -8 3 -21 -13z"/>
<path d="M9130 8458 c-177 -120 -200 -138 -179 -138 22 0 84 42 228 157 2 2 2
5 0 7 -2 3 -24 -9 -49 -26z"/>
<path d="M3869 8323 c-13 -16 -12 -17 4 -4 9 7 17 15 17 17 0 8 -8 3 -21 -13z"/>
<path d="M9585 8308 c-16 -17 -43 -47 -58 -67 -16 -20 -46 -55 -67 -77 -22
-23 -36 -44 -33 -48 4 -3 1 -6 -5 -6 -21 0 -13 -27 10 -33 17 -5 35 8 87 60
l66 66 -64 -57 c-53 -48 -66 -55 -73 -42 -13 22 2 45 72 110 61 56 99 73 85
39 -9 -27 11 -4 29 31 11 22 12 33 4 43 -15 18 -19 17 -53 -19z"/>
<path d="M3829 8293 c-13 -16 -12 -17 4 -4 9 7 17 15 17 17 0 8 -8 3 -21 -13z"/>
<path d="M7835 7990 c3 -5 -1 -10 -9 -10 -9 0 -16 -4 -16 -8 0 -4 -23 -26 -52
-47 -78 -60 -189 -166 -182 -176 12 -20 11 -20 231 180 59 54 68 71 37 71 -8
0 -12 -4 -9 -10z"/>
<path d="M3379 7963 c-13 -16 -12 -17 4 -4 16 13 21 21 13 21 -2 0 -10 -8 -17
-17z"/>
<path d="M7540 7840 c-25 -22 -40 -40 -35 -40 6 1 30 19 54 40 24 22 40 40 35
40 -5 -1 -29 -19 -54 -40z"/>
<path d="M3179 7813 c-13 -16 -12 -17 4 -4 16 13 21 21 13 21 -2 0 -10 -8 -17
-17z"/>
<path d="M3020 7703 c-8 -3 -23 -14 -34 -25 -11 -10 -23 -18 -27 -18 -4 0 -14
-6 -21 -13 -32 -31 -85 -66 -110 -72 -16 -4 -28 -13 -28 -20 0 -7 -15 -22 -32
-34 -18 -11 -42 -28 -53 -38 -11 -10 -45 -36 -75 -58 -30 -21 -76 -56 -102
-78 -27 -21 -48 -35 -48 -31 0 4 -6 0 -12 -9 -15 -18 -100 -85 -213 -167 -42
-30 -124 -94 -183 -141 -59 -47 -146 -112 -192 -145 -47 -32 -119 -83 -160
-114 -41 -31 -135 -101 -207 -155 -73 -54 -133 -100 -133 -102 0 -6 41 23 235
167 94 69 222 163 285 209 63 45 156 115 206 154 50 40 129 100 175 133 46 34
191 142 322 240 131 99 278 208 328 244 50 36 93 68 95 73 6 8 5 8 -16 0z"/>
<path d="M982 6950 c0 -14 2 -19 5 -12 2 6 2 18 0 25 -3 6 -5 1 -5 -13z"/>
<path d="M1010 6890 c0 -5 5 -10 10 -10 6 0 10 5 10 10 0 6 -4 10 -10 10 -5 0
-10 -4 -10 -10z"/>
<path d="M8801 6877 c2 -1 15 -11 29 -22 l25 -20 -19 23 c-11 12 -24 22 -29
22 -6 0 -8 -1 -6 -3z"/>
<path d="M1265 6403 c-59 -43 -123 -89 -143 -102 -59 -38 -212 -153 -212 -158
0 -3 15 6 33 19 17 14 84 61 148 105 64 44 145 102 180 129 36 27 76 57 89 66
14 9 22 17 19 17 -4 1 -55 -34 -114 -76z"/>
<path d="M9540 6366 c0 -2 20 -17 45 -35 25 -18 45 -28 45 -23 0 5 -11 14 -25
20 -14 6 -25 16 -25 21 0 5 -9 11 -20 14 -11 3 -20 4 -20 3z"/>
<path d="M9199 6287 c-85 -45 -133 -157 -89 -207 21 -25 21 -25 10 -1 -16 31
-5 83 23 107 43 38 78 49 153 48 64 -1 83 -6 159 -44 54 -27 85 -48 85 -59 1
-12 7 -9 25 12 33 37 32 50 -9 90 -76 73 -266 102 -357 54z"/>
<path d="M9657 6279 c7 -7 15 -10 18 -7 3 3 -2 9 -12 12 -14 6 -15 5 -6 -5z"/>
<path d="M1112 6180 l-47 -36 2 -68 c2 -50 7 -74 20 -88 31 -35 101 -79 156
-97 52 -17 52 -17 114 7 36 13 84 43 113 69 43 38 50 50 50 81 0 40 -29 96
-63 125 -48 39 -88 48 -195 45 -100 -3 -104 -4 -150 -38z"/>
<path d="M9355 5993 c-27 -7 -69 -12 -92 -10 -24 3 -43 3 -43 1 0 -1 13 -12
29 -24 l30 -20 65 26 c37 14 69 30 72 35 6 11 3 10 -61 -8z"/>
<path d="M4 5265 c0 -154 2 -216 3 -137 2 79 2 205 0 280 -1 75 -3 11 -3 -143z"/>
<path d="M445 5380 c3 -5 11 -10 16 -10 6 0 7 5 4 10 -3 6 -11 10 -16 10 -6 0
-7 -4 -4 -10z"/>
<path d="M450 5286 c0 -8 5 -18 10 -21 6 -3 10 1 10 9 0 8 -4 18 -10 21 -5 3
-10 -1 -10 -9z"/>
<path d="M395 5280 c-3 -5 -1 -10 4 -10 6 0 11 5 11 10 0 6 -2 10 -4 10 -3 0
-8 -4 -11 -10z"/>
<path d="M381 5234 c0 -11 3 -14 6 -6 3 7 2 16 -1 19 -3 4 -6 -2 -5 -13z"/>
<path d="M9743 5164 c0 -9 4 -11 12 -4 7 5 14 9 16 7 2 -1 3 0 1 2 -7 11 -29
7 -29 -5z"/>
<path d="M406 5157 c3 -10 9 -15 12 -12 3 3 0 11 -7 18 -10 9 -11 8 -5 -6z"/>
<path d="M436 5143 c-6 -14 -5 -15 5 -6 7 7 10 15 7 18 -3 3 -9 -2 -12 -12z"/>
<path d="M1167 5129 c-109 -26 -186 -117 -187 -219 0 -86 79 -141 216 -148
109 -6 180 16 239 73 131 128 34 307 -165 304 -36 -1 -82 -5 -103 -10z"/>
<path d="M9725 5110 c-4 -6 3 -10 14 -10 25 0 27 6 6 13 -8 4 -17 2 -20 -3z"/>
<path d="M9728 5073 c7 -3 16 -2 19 1 4 3 -2 6 -13 5 -11 0 -14 -3 -6 -6z"/>
<path d="M9776 5044 c-8 -20 -8 -24 2 -24 4 0 8 9 9 20 2 24 -3 26 -11 4z"/>
<path d="M9700 4950 c13 -24 40 -45 40 -31 0 6 -7 14 -16 18 -8 3 -13 11 -11
18 3 6 -1 12 -8 12 -10 0 -11 -5 -5 -17z"/>
<path d="M4 4850 c0 -63 1 -89 3 -57 2 31 2 83 0 115 -2 31 -3 5 -3 -58z"/>
<path d="M310 4941 c0 -6 4 -13 10 -16 6 -3 7 1 4 9 -7 18 -14 21 -14 7z"/>
<path d="M952 4905 c0 -16 2 -22 5 -12 2 9 2 23 0 30 -3 6 -5 -1 -5 -18z"/>
<path d="M9840 4926 c0 -2 8 -10 18 -17 15 -13 16 -12 3 4 -13 16 -21 21 -21
13z"/>
<path d="M821 4904 c0 -11 3 -14 6 -6 3 7 2 16 -1 19 -3 4 -6 -2 -5 -13z"/>
<path d="M9752 4903 c2 -6 -49 -52 -112 -102 -63 -50 -133 -106 -155 -124 -21
-17 -141 -108 -266 -202 -210 -158 -763 -585 -924 -715 -38 -31 -108 -85 -155
-120 -47 -35 -163 -127 -259 -205 -95 -77 -196 -158 -225 -180 -29 -22 -99
-79 -157 -126 -57 -47 -138 -111 -179 -141 -41 -30 -149 -116 -240 -189 -91
-74 -196 -158 -234 -187 -38 -29 -123 -97 -190 -150 -66 -54 -161 -128 -211
-167 -49 -38 -117 -92 -150 -120 -33 -28 -89 -73 -125 -100 -36 -27 -95 -74
-131 -104 -79 -66 -91 -76 -364 -279 -116 -86 -241 -181 -278 -210 l-67 -54
-34 30 c-18 16 -57 43 -87 61 -30 17 -88 58 -129 91 -41 33 -102 79 -135 101
-33 23 -102 76 -154 118 -52 42 -126 100 -165 129 -83 61 -133 100 -307 237
-70 55 -167 129 -215 165 -101 75 -397 298 -494 374 -36 28 -164 125 -285 216
-121 91 -247 186 -280 211 -33 25 -134 101 -225 168 -91 67 -223 166 -295 221
-71 55 -160 121 -197 147 -97 69 -348 258 -437 329 -42 33 -116 89 -166 124
-49 35 -112 82 -140 105 -27 23 -106 83 -175 135 -127 95 -182 137 -318 246
-43 33 -123 95 -179 138 -57 43 -103 82 -103 87 0 6 5 7 10 4 6 -3 10 -1 10 5
0 7 -6 10 -12 8 -13 -5 -32 -131 -23 -155 2 -7 0 -13 -5 -13 -20 0 -10 -49 11
-55 13 -5 17 -10 11 -14 -14 -9 -11 -173 3 -183 6 -5 6 -8 -2 -8 -7 0 -12 -31
-12 -97 -2 -132 -5 -166 -14 -180 -5 -7 -5 -19 -1 -25 6 -10 5 -10 -7 -1 -12
10 -15 8 -15 -7 0 -10 3 -17 6 -15 3 2 7 -14 7 -35 1 -22 -3 -42 -9 -46 -7 -4
-6 -10 3 -16 10 -7 11 -11 2 -14 -7 -3 -9 -13 -6 -21 5 -13 2 -15 -13 -10 -18
7 -18 6 -1 -7 10 -8 19 -20 21 -28 1 -7 6 -20 11 -28 8 -13 7 -13 -8 -1 -22
17 -24 -4 -2 -25 11 -11 15 -12 15 -3 0 7 3 9 6 6 4 -4 1 -15 -7 -24 -7 -10
-9 -15 -5 -11 5 4 15 0 22 -10 9 -11 13 -13 14 -4 0 7 5 10 10 7 6 -3 7 -17 4
-31 -4 -14 -2 -24 5 -24 21 0 26 -2 39 -13 10 -8 16 -7 22 2 6 10 10 8 15 -8
3 -12 11 -19 16 -16 5 4 9 1 9 -5 0 -6 4 -8 10 -5 5 3 10 -3 10 -15 0 -11 7
-23 15 -26 8 -4 15 -12 15 -20 0 -8 5 -14 10 -14 7 0 7 6 0 19 -7 13 -7 22 0
26 5 3 10 1 10 -5 0 -6 5 -8 10 -5 6 4 18 1 27 -7 9 -7 18 -12 20 -10 1 1 2
-1 1 -4 -5 -10 32 -25 44 -18 7 5 9 0 6 -14 -5 -18 -2 -22 19 -22 19 0 24 -4
19 -16 -4 -9 -2 -13 5 -8 7 4 20 -4 30 -17 11 -14 19 -18 19 -10 0 11 3 11 15
1 8 -7 12 -16 9 -21 -3 -5 5 -9 18 -9 18 0 20 -2 8 -10 -12 -7 -8 -10 15 -10
22 0 26 -3 15 -10 -8 -5 -12 -10 -10 -12 3 -2 14 -8 25 -14 11 -6 22 -24 24
-40 l4 -29 7 25 c7 22 8 22 9 4 1 -24 26 -48 58 -58 19 -6 22 -4 16 11 -6 15
-4 16 9 6 8 -7 18 -10 21 -6 4 3 7 -5 8 -18 0 -13 3 -18 6 -11 3 9 12 3 24
-17 23 -37 25 -53 4 -25 -8 10 -15 14 -15 8 0 -21 29 -38 44 -25 10 9 15 8 20
-4 3 -8 1 -15 -5 -15 -5 0 -4 -6 3 -14 9 -10 17 -11 26 -4 9 8 12 5 12 -11 0
-12 4 -19 10 -16 5 3 7 0 4 -9 -3 -9 3 -19 16 -26 15 -8 20 -8 16 -1 -10 16
10 13 24 -4 6 -8 9 -19 5 -25 -4 -6 6 -13 24 -16 17 -4 28 -10 25 -15 -5 -8
30 -13 67 -10 9 1 21 -5 28 -12 9 -12 8 -16 -5 -21 -12 -4 -13 -10 -6 -19 8
-9 -3 -21 -40 -47 -27 -19 -83 -61 -124 -92 -40 -32 -78 -58 -84 -58 -6 0 -13
-7 -16 -15 -4 -8 -13 -15 -21 -15 -8 0 -11 -4 -8 -10 3 -5 0 -10 -7 -10 -7 0
-23 -11 -35 -23 -20 -22 -50 -43 -148 -106 -22 -14 -42 -28 -45 -31 -3 -3 -31
-25 -63 -49 -73 -56 -160 -150 -153 -167 3 -7 0 -14 -6 -16 -6 -2 -8 -9 -4
-16 4 -8 14 -8 31 -2 15 6 27 6 30 -1 4 -5 12 -6 18 -3 7 4 -6 -11 -27 -34
-35 -37 -36 -40 -15 -35 l24 5 -23 -17 c-13 -9 -45 -25 -72 -34 -40 -14 -138
-81 -148 -101 -1 -3 -25 -29 -52 -59 -28 -30 -50 -57 -50 -60 0 -3 9 -12 20
-19 17 -10 27 -9 63 9 23 12 44 25 47 29 3 4 21 15 40 24 l35 17 -35 -31 c-19
-17 -59 -47 -88 -66 -29 -20 -60 -44 -70 -53 -9 -10 -24 -21 -32 -24 -10 -4
-8 -6 7 -6 12 -1 48 10 79 24 32 14 59 23 61 21 6 -5 -53 -46 -66 -46 -6 0
-11 -5 -11 -10 0 -6 -8 -14 -19 -18 -27 -10 -101 -80 -101 -94 0 -7 -13 -22
-29 -33 -16 -10 -29 -22 -28 -25 1 -4 -13 -19 -30 -34 -18 -15 -33 -34 -33
-42 0 -8 -4 -14 -10 -14 -5 0 -10 -8 -9 -17 0 -11 3 -13 6 -5 2 6 11 12 18 12
8 0 42 24 77 53 81 68 187 142 194 135 3 -3 -18 -23 -47 -44 -29 -22 -74 -60
-101 -86 -26 -27 -52 -48 -57 -48 -5 0 -19 -16 -32 -35 -13 -19 -27 -35 -31
-35 -5 0 -8 -7 -8 -15 0 -8 5 -15 11 -15 5 0 7 5 4 10 -3 6 -1 10 4 10 6 0 11
5 11 11 0 6 6 17 14 25 13 12 16 12 24 -2 9 -16 10 -16 16 2 4 10 26 31 49 47
71 46 153 105 218 156 16 13 32 21 35 19 6 -6 -52 -56 -177 -155 -117 -92
-241 -212 -236 -228 8 -22 34 -14 77 24 25 22 49 41 53 41 4 0 29 20 55 43 76
71 232 178 232 160 0 -4 -29 -27 -64 -51 -35 -23 -79 -57 -98 -75 -53 -50
-101 -90 -126 -108 -12 -8 -20 -18 -17 -21 3 -3 -17 -26 -45 -51 -78 -70 -49
-75 33 -6 40 34 83 69 97 78 14 9 34 24 44 33 11 10 23 18 27 18 4 0 14 6 21
13 7 7 47 40 88 72 41 33 84 68 95 78 11 10 29 23 40 29 20 10 -70 -80 -115
-116 -45 -35 -165 -136 -197 -166 -17 -17 -35 -30 -40 -30 -19 0 -131 -110
-135 -133 -6 -32 20 -26 65 17 19 17 56 42 82 56 27 14 64 40 84 57 35 32 59
43 46 22 -4 -6 -28 -29 -52 -52 -25 -23 -60 -57 -78 -75 -18 -17 -38 -32 -44
-32 -5 0 -14 -6 -18 -13 -4 -7 -18 -20 -31 -29 -29 -20 -14 -31 19 -14 78 41
99 57 234 181 98 89 202 174 233 188 12 6 22 13 22 17 0 7 66 55 100 73 27 15
-63 -63 -145 -124 -44 -33 -127 -105 -185 -158 -58 -54 -127 -116 -153 -137
-27 -21 -67 -57 -90 -79 l-42 -40 28 -3 c39 -5 105 40 260 178 145 129 320
270 326 264 3 -3 -6 -12 -20 -22 -13 -9 -35 -28 -49 -42 -14 -14 -35 -32 -47
-41 -30 -21 -163 -140 -242 -216 -36 -35 -68 -63 -72 -63 -5 0 -12 -6 -16 -14
-4 -8 -36 -35 -70 -61 -35 -26 -63 -51 -63 -56 0 -6 -4 -8 -8 -5 -4 2 -13 -4
-20 -15 -20 -31 10 -24 43 11 16 17 35 30 42 30 7 0 13 4 13 9 0 5 30 29 68
54 37 25 88 65 113 89 80 74 121 109 149 123 31 16 58 38 139 115 32 30 89 82
126 115 37 33 73 66 81 73 7 6 17 12 22 12 5 0 15 7 22 16 8 8 29 22 48 30 19
8 62 32 94 55 33 22 62 38 64 36 9 -8 -161 -137 -181 -137 -17 0 -101 -65
-174 -135 -105 -101 -90 -87 -201 -180 -150 -127 -194 -175 -157 -175 35 0
318 226 505 402 50 49 97 88 102 88 6 0 46 22 90 50 44 27 82 50 86 50 3 0
-11 -16 -32 -35 -20 -19 -40 -35 -44 -35 -3 0 -16 -10 -27 -22 -34 -37 -74
-68 -87 -68 -7 0 -18 -11 -24 -24 -6 -13 -24 -31 -41 -39 -20 -10 -29 -11 -24
-4 4 7 -13 -6 -38 -27 -24 -22 -53 -48 -64 -57 -11 -10 -32 -29 -47 -42 -15
-13 -39 -32 -53 -43 -14 -10 -25 -25 -25 -32 0 -7 -4 -10 -10 -7 -16 10 -208
-155 -232 -198 -9 -18 -8 -18 19 -1 61 39 200 140 230 169 48 44 73 66 118
103 56 46 60 50 148 116 43 32 81 64 84 72 3 8 9 11 14 9 4 -3 23 8 41 26 18
17 51 40 72 51 22 11 46 27 54 34 13 13 32 19 32 10 0 -2 -18 -18 -41 -34 -22
-17 -70 -57 -106 -89 -36 -32 -76 -65 -89 -73 -29 -19 -300 -239 -337 -274
-16 -15 -40 -34 -54 -43 -14 -10 -21 -19 -14 -21 16 -5 14 -22 -3 -22 -21 0
-30 -20 -17 -33 8 -8 11 -6 11 7 0 9 4 14 10 11 5 -3 10 -1 10 4 0 6 7 11 15
11 8 0 25 10 38 23 13 12 34 29 47 37 14 8 40 30 58 47 19 18 38 33 42 33 5 0
10 3 12 8 2 4 13 14 24 22 45 31 130 99 152 120 13 12 34 27 46 34 13 7 37 22
52 34 148 112 284 210 284 203 0 -4 -18 -22 -40 -40 -22 -18 -38 -36 -35 -42
4 -5 -2 -9 -12 -9 -17 0 -93 -69 -93 -85 0 -3 7 0 15 9 9 8 22 13 29 10 8 -3
17 -1 21 5 3 6 15 11 26 11 10 0 19 7 19 15 0 8 8 15 19 15 10 0 34 13 52 30
19 16 37 30 42 30 4 0 7 6 7 14 0 17 59 66 79 66 13 0 13 2 2 9 -8 5 -9 11 -3
15 6 3 13 2 17 -4 9 -14 25 -13 25 3 0 7 46 53 102 102 56 50 125 111 153 136
48 44 75 68 140 123 43 37 57 32 15 -6 -71 -62 -256 -247 -286 -284 -31 -39
-52 -84 -39 -84 11 0 63 41 140 112 41 38 78 68 82 68 5 0 19 10 33 23 75 69
94 69 23 0 -46 -44 -83 -84 -83 -89 0 -5 -9 -15 -20 -22 -11 -7 -20 -19 -20
-28 0 -14 -20 -38 -100 -121 -33 -33 -29 -103 6 -103 16 0 54 35 54 50 0 6 11
10 24 10 14 0 37 5 52 10 27 11 84 65 84 81 0 5 9 9 20 9 11 0 23 7 26 15 4 8
12 15 19 15 7 0 15 7 19 15 4 11 13 14 29 10 15 -4 28 -1 36 9 8 9 18 16 23
16 5 0 37 22 70 50 34 27 65 47 70 44 5 -3 7 -2 6 3 -1 4 14 25 35 46 20 20
37 33 37 27 0 -6 10 -2 22 10 12 11 28 20 35 20 12 0 36 17 68 47 10 10 14 10
17 1 3 -7 12 -9 23 -4 16 6 17 9 5 16 -12 8 -10 10 8 10 12 0 22 -4 22 -9 0
-5 9 -7 19 -4 12 3 29 -4 42 -16 13 -12 19 -21 13 -21 -9 0 25 -22 63 -39 11
-5 25 -15 29 -22 5 -9 10 -7 15 7 6 15 8 14 9 -11 1 -26 3 -27 10 -10 6 15 9
16 9 4 1 -25 112 -129 138 -129 13 0 30 -12 43 -31 13 -17 28 -28 36 -25 8 3
14 0 14 -5 0 -6 9 -9 19 -6 24 6 61 -26 61 -53 0 -12 7 -20 18 -20 23 0 64
-38 80 -73 9 -21 18 -27 42 -27 29 0 70 -29 70 -50 0 -5 8 -10 18 -10 16 -1
62 -60 62 -81 0 -6 4 -8 9 -4 12 7 61 -15 61 -28 0 -18 63 -67 86 -67 22 0 23
-3 14 -20 -9 -16 -7 -20 12 -24 79 -16 79 -16 73 -36 -7 -21 13 -57 30 -57 6
0 16 -11 22 -24 7 -13 13 -20 13 -15 0 4 14 -6 32 -23 17 -17 39 -31 48 -31 9
0 22 -11 29 -24 9 -16 25 -26 50 -30 35 -5 72 -32 100 -74 8 -11 24 -23 35
-26 12 -3 30 -22 41 -42 11 -21 29 -42 40 -48 11 -6 31 -23 44 -39 13 -15 31
-27 40 -27 9 0 27 -7 39 -16 12 -8 26 -13 31 -10 5 3 12 -6 16 -22 4 -15 10
-21 12 -14 7 19 22 14 35 -13 6 -13 19 -27 30 -30 10 -4 18 -12 18 -20 0 -7
17 -17 38 -22 20 -5 36 -15 35 -21 -2 -7 4 -12 13 -12 10 0 13 -6 10 -18 -9
-26 37 -48 54 -26 14 16 40 19 40 5 0 -5 -8 -12 -17 -14 -11 -3 -8 -5 9 -6 16
-1 32 -9 38 -21 6 -11 17 -20 26 -20 8 0 17 -6 20 -13 3 -9 23 -13 62 -11 31
0 59 3 62 4 3 2 10 4 15 5 45 8 74 22 95 45 14 15 33 30 43 33 9 4 27 23 39
42 18 31 25 36 47 30 20 -4 22 -3 11 5 -13 8 -13 10 3 10 9 0 17 4 17 9 0 5 9
13 20 16 11 3 20 13 20 21 0 20 36 58 48 50 6 -3 13 2 16 11 4 9 1 20 -6 25
-12 7 -4 12 15 9 4 0 7 6 7 14 0 8 5 15 10 15 6 0 10 -6 10 -12 0 -9 3 -8 10
2 6 9 5 17 -3 23 -8 6 -5 7 6 3 25 -8 44 4 26 15 -10 6 -4 9 18 9 20 0 42 9
59 25 14 13 30 22 35 20 4 -3 10 4 14 15 3 11 10 20 14 20 4 0 17 9 28 20 12
11 28 21 35 22 7 2 19 11 26 21 7 9 22 17 33 17 12 0 19 7 19 20 0 11 12 26
28 34 23 13 24 15 7 16 -15 1 -13 4 8 10 16 5 34 7 41 4 8 -3 18 8 25 25 10
22 21 31 47 36 27 5 34 10 30 23 -4 11 3 24 19 36 13 10 22 22 19 27 -3 5 3 9
14 9 10 0 29 9 42 20 13 11 29 20 37 20 7 0 13 9 13 20 0 11 7 20 15 20 8 0
15 5 15 10 0 6 9 10 20 10 13 0 22 9 26 26 4 17 11 23 21 20 8 -3 21 1 29 9 8
8 21 12 28 9 8 -3 17 0 22 7 5 8 3 10 -7 4 -12 -8 -12 -6 0 8 7 9 22 17 32 17
11 0 23 10 28 24 5 13 19 26 30 29 12 3 19 2 16 -2 -2 -4 2 -8 9 -8 8 0 12 7
8 15 -3 9 -1 13 5 9 6 -4 13 3 16 14 3 12 10 18 16 14 10 -5 15 7 12 28 0 4 5
7 12 7 6 0 18 14 26 31 8 19 18 28 27 25 8 -3 18 4 24 14 6 11 15 20 21 20 6
0 23 13 39 30 15 16 30 26 34 23 3 -3 6 -2 6 3 0 16 40 55 50 49 4 -3 11 7 14
21 4 14 12 24 18 22 6 -2 31 18 56 44 28 30 53 48 68 48 38 0 74 18 74 37 0
10 9 24 20 31 12 7 25 24 30 37 5 13 29 36 52 51 24 15 47 33 51 40 4 8 16 14
26 14 21 0 111 58 111 71 0 5 11 9 25 9 14 0 25 4 25 10 0 5 -6 9 -12 7 -7 -1
-13 5 -13 13 0 8 5 15 10 15 6 0 25 15 43 33 17 18 35 32 39 31 23 -3 52 16
57 37 4 13 13 24 21 24 8 0 15 5 15 11 0 7 11 9 29 6 26 -5 33 -2 51 28 12 19
29 39 38 45 14 8 15 11 3 19 -9 6 -10 11 -2 15 6 4 11 2 11 -3 0 -6 11 -11 25
-11 17 0 23 4 19 14 -6 16 31 40 46 31 6 -3 10 2 10 12 0 11 13 24 30 31 18 8
30 21 30 32 0 27 55 84 74 77 8 -3 18 -1 22 5 4 7 3 8 -4 4 -7 -4 -12 -1 -12
9 0 11 5 15 15 11 10 -3 15 1 16 12 0 10 3 12 6 5 2 -7 9 -13 14 -13 6 0 8 4
4 9 -3 5 -1 12 5 16 5 3 10 1 10 -4 0 -6 5 -11 10 -11 6 0 10 7 10 16 0 9 9
18 20 21 11 3 20 10 20 15 0 6 7 8 15 4 9 -3 15 0 15 9 0 10 11 15 33 15 17 0
27 4 21 8 -12 7 -15 42 -4 42 3 0 11 -5 17 -11 8 -8 14 -6 22 9 7 14 17 18 31
15 11 -3 20 -1 20 5 0 6 14 24 31 41 21 22 26 31 15 31 -9 0 -16 5 -16 10 0 6
7 10 15 10 8 0 15 5 15 10 0 6 9 10 21 10 33 0 59 18 52 36 -5 14 -3 15 14 6
22 -12 43 1 43 25 0 12 12 17 32 14 4 0 4 7 1 16 -5 13 -2 15 15 11 25 -7 47
15 38 37 -4 11 -2 14 6 8 20 -11 48 -11 40 1 -12 19 -10 33 4 33 8 0 14 -5 14
-11 0 -8 2 -8 8 0 4 6 14 14 22 17 12 4 11 6 -2 6 -29 2 -20 21 10 22 24 0 25
1 7 9 -19 8 -19 9 1 9 13 1 24 9 27 21 6 22 37 28 38 8 0 -7 5 -2 10 11 6 14
15 21 24 18 9 -4 12 -1 8 9 -3 9 2 14 16 14 13 0 25 9 31 23 7 17 9 18 9 5 1
-10 5 -18 10 -18 5 0 8 8 7 17 0 10 5 18 12 18 7 0 17 6 22 14 7 13 11 13 26
0 16 -13 16 -12 6 8 -17 30 -15 36 9 30 12 -3 22 0 26 9 3 8 15 14 27 15 15 0
17 2 6 7 -8 4 -16 15 -18 25 -3 20 -2 20 32 7 14 -5 25 -6 25 -2 -3 21 4 29
38 41 33 12 36 15 20 25 -15 9 -11 13 25 22 24 6 42 16 41 21 -1 6 6 9 17 6
11 -3 17 -10 13 -17 -4 -6 1 -5 10 3 18 15 23 26 7 16 -5 -3 -10 1 -10 10 0 9
5 13 10 10 14 -9 12 18 -2 34 -7 8 -1 6 15 -4 23 -15 26 -15 21 -2 -6 16 28
33 45 22 5 -3 12 -1 15 4 4 5 2 12 -4 16 -18 11 -11 21 15 20 14 0 30 -7 35
-15 8 -13 10 -12 10 3 0 10 7 20 15 23 11 5 12 10 4 26 -8 15 -8 19 1 13 21
-13 57 -12 57 2 0 8 -7 11 -18 8 -9 -3 -20 -2 -23 3 -3 5 10 8 29 7 18 0 31 3
29 7 -3 4 0 8 7 8 10 0 10 3 1 12 -16 16 -15 31 0 26 7 -3 19 1 26 9 8 7 18
11 23 8 5 -4 6 1 3 10 -5 11 0 18 15 22 12 3 21 13 21 25 0 10 5 16 10 13 11
-7 81 61 72 70 -3 3 1 5 9 5 8 0 21 16 28 35 7 19 19 35 26 35 13 0 28 21 59
86 8 16 30 38 48 48 l33 18 0 79 c0 43 4 79 8 79 5 0 6 4 2 9 -3 5 -1 12 5 16
5 3 10 16 10 28 -1 18 -3 17 -14 -9 -8 -17 -28 -41 -46 -55 -17 -13 -55 -45
-83 -70 -81 -72 -217 -173 -275 -204 -30 -16 -64 -41 -76 -55 -12 -14 -51 -46
-86 -70 -36 -24 -89 -63 -118 -87 -30 -24 -58 -43 -63 -43 -5 0 -8 -6 -6 -12
1 -7 -4 -12 -12 -10 -8 2 -26 -8 -40 -21 -23 -21 -84 -66 -181 -136 l-35 -25
30 31 c17 17 125 101 240 187 475 355 729 557 742 594 4 9 6 41 6 71 0 31 6
68 14 84 8 16 9 27 3 27 -5 0 -10 5 -10 11 0 5 4 8 9 5 5 -3 14 1 21 9 11 13
10 14 -2 10 -19 -8 -31 17 -33 68 -1 20 -7 43 -14 50 -9 8 -11 9 -9 0z m28
-171 c0 -4 -35 -32 -77 -62 -42 -30 -122 -91 -177 -135 -56 -45 -162 -127
-236 -183 -74 -56 -184 -141 -245 -188 -206 -159 -337 -259 -380 -289 -49 -34
-262 -201 -523 -410 -96 -77 -202 -160 -235 -184 -34 -24 -120 -91 -193 -150
-277 -223 -507 -401 -517 -401 -21 0 203 185 314 260 35 24 85 64 111 88 57
53 228 188 304 238 30 20 58 43 64 53 5 9 10 13 10 9 0 -4 12 4 28 19 44 41
211 174 297 238 44 32 98 74 120 94 56 51 231 181 243 181 6 0 12 3 14 8 4 9
170 141 278 222 47 34 126 95 175 135 50 40 122 95 160 122 39 26 111 81 160
120 118 95 288 223 298 223 4 0 7 -4 7 -8z m-270 -668 c0 -8 -5 -12 -10 -9 -6
4 -8 11 -5 16 9 14 15 11 15 -7z m-760 -308 c0 -2 -12 -11 -27 -20 l-28 -17
24 20 c23 21 31 25 31 17z m-10 -30 c0 -2 -21 -21 -47 -42 -27 -21 -39 -28
-29 -16 11 12 16 22 12 22 -6 0 -84 -54 -133 -93 -7 -5 -13 -7 -13 -4 0 3 36
33 80 66 43 34 77 54 73 45 -5 -14 -3 -15 15 -5 11 6 24 16 27 21 6 10 15 14
15 6z m-300 -223 c0 -9 -62 -63 -72 -63 -5 0 -14 -4 -21 -10 -37 -30 -83 -65
-175 -134 -57 -43 -113 -88 -125 -99 -12 -12 -31 -27 -42 -33 -11 -6 -19 -16
-17 -23 1 -7 -1 -10 -6 -7 -8 5 -43 -21 -240 -183 -52 -42 -108 -85 -126 -96
-18 -11 -58 -43 -89 -71 -31 -28 -91 -79 -134 -114 -43 -34 -94 -75 -113 -91
-20 -15 -54 -41 -76 -56 -23 -15 -114 -88 -203 -162 -89 -74 -172 -142 -186
-150 -24 -16 -188 -144 -355 -276 -52 -42 -153 -121 -225 -176 -198 -151 -205
-157 -341 -269 -69 -58 -162 -130 -204 -160 -86 -61 -216 -161 -270 -210 -69
-62 -86 -71 -100 -56 -14 17 -6 25 90 94 36 26 108 81 160 122 52 42 147 115
210 163 63 48 161 125 216 170 56 45 144 115 195 155 52 40 121 95 154 122 57
47 142 112 425 329 69 52 162 125 206 161 45 36 125 99 179 140 53 41 143 111
198 155 56 44 114 89 128 100 14 11 68 54 120 96 52 41 122 95 155 120 34 24
117 89 185 145 68 55 171 136 229 180 58 44 138 106 179 137 71 54 91 65 91
50z m-7040 -53 c0 -5 -5 -10 -11 -10 -5 0 -7 -6 -3 -12 5 -9 2 -9 -9 1 -23 18
-21 31 3 31 11 0 20 -4 20 -10z m750 -173 c0 -4 -80 -70 -235 -196 -44 -36
-109 -90 -145 -121 -138 -118 -313 -241 -329 -230 -9 5 -8 10 4 20 8 7 13 21
10 30 -3 9 1 23 10 30 8 7 12 16 9 21 -3 5 3 9 13 9 10 0 24 9 31 21 10 15 21
20 38 16 16 -3 33 4 51 19 15 12 30 21 35 18 4 -3 5 2 2 11 -8 20 15 48 33 41
8 -4 11 -1 8 5 -4 6 2 13 14 16 11 3 23 13 26 22 3 9 20 27 39 41 33 26 102
81 165 135 57 48 101 77 129 84 30 8 92 13 92 8z m6260 -67 c0 -5 -4 -10 -10
-10 -5 0 -10 5 -10 10 0 6 5 10 10 10 6 0 10 -4 10 -10z m-6266 -118 c-133
-121 -200 -176 -289 -243 -55 -41 -138 -105 -185 -142 -89 -72 -264 -193 -318
-221 -25 -13 -32 -14 -32 -3 0 15 32 46 110 105 30 22 102 80 160 127 58 48
148 119 200 158 52 39 118 92 146 118 85 77 159 129 185 129 13 0 31 4 39 10
32 20 22 -4 -16 -38z m152 -36 c3 -8 0 -22 -8 -31 -18 -21 -406 -330 -557
-442 -35 -27 -84 -66 -110 -87 -25 -22 -82 -63 -126 -91 -44 -29 -114 -79
-155 -112 -91 -73 -209 -146 -233 -145 -9 0 -15 -3 -12 -9 4 -5 1 -9 -4 -9
-31 0 14 53 89 106 30 21 78 59 106 84 28 25 118 91 200 147 82 56 181 128
219 159 39 31 106 84 150 117 44 34 112 88 151 122 78 67 265 205 277 205 4 0
10 -7 13 -14z m71 -141 c-38 -36 -103 -89 -145 -119 -66 -46 -297 -233 -357
-289 -28 -26 -345 -246 -409 -283 -50 -30 -53 -30 -49 -10 3 11 29 39 60 61
30 22 62 48 71 58 9 9 22 17 28 17 7 0 14 3 16 8 2 4 35 29 73 56 116 81 177
128 230 178 150 140 497 389 539 388 6 -1 -20 -30 -57 -65z m143 -40 c0 -8
-39 -47 -87 -87 -47 -40 -129 -111 -182 -157 -53 -45 -132 -108 -176 -139 -44
-31 -107 -82 -140 -112 -33 -31 -80 -69 -105 -86 -85 -58 -200 -124 -215 -124
-18 0 35 57 80 86 43 27 61 43 124 102 31 29 98 85 150 125 51 39 132 104 179
144 120 102 346 262 370 263 1 0 2 -7 2 -15z m141 -54 c-18 -33 -166 -165
-318 -284 -81 -64 -186 -148 -233 -187 -77 -65 -260 -205 -335 -257 -16 -11
-41 -24 -54 -28 l-24 -7 22 30 c12 17 65 66 119 109 53 42 120 98 147 124 28
25 71 60 96 77 25 17 113 85 195 151 236 192 266 215 323 254 60 41 77 46 62
18z m88 -105 c-102 -93 -298 -262 -349 -301 -81 -61 -198 -156 -314 -255 -162
-137 -318 -259 -340 -266 -11 -4 -24 -12 -28 -18 -5 -7 -8 -7 -8 0 0 12 140
152 186 186 17 13 60 48 95 79 128 112 335 286 389 326 30 22 91 71 135 109
44 38 113 95 154 127 64 50 76 56 84 42 6 -12 5 -21 -4 -29z m5091 29 c0 -8
-4 -15 -10 -15 -5 0 -10 7 -10 15 0 8 5 15 10 15 6 0 10 -7 10 -15z m-710 -77
c-82 -75 -253 -209 -258 -203 -7 7 60 72 128 126 54 43 163 119 170 119 3 -1
-15 -19 -40 -42z m-5700 28 c0 -2 -8 -10 -17 -17 -16 -13 -17 -12 -4 4 13 16
21 21 21 13z m1484 -29 c-5 -13 -112 -106 -196 -170 -104 -78 -249 -196 -353
-287 -164 -143 -272 -230 -284 -230 -6 0 -11 -4 -11 -10 0 -5 -6 -10 -13 -10
-8 0 -22 -9 -32 -20 -10 -11 -21 -18 -23 -15 -9 8 169 186 273 273 33 28 110
94 170 146 161 140 263 222 352 282 74 51 128 70 117 41z m19 -158 c-29 -28
-57 -47 -63 -44 -5 3 -10 2 -10 -3 0 -5 -7 -9 -15 -9 -8 0 -15 2 -15 4 0 9 59
63 90 82 61 37 67 23 13 -30z m-1655 -78 c-57 -53 -181 -151 -191 -151 -4 0 3
11 17 23 14 13 23 26 20 29 -8 9 82 90 123 111 64 33 68 35 71 32 2 -2 -16
-21 -40 -44z m5441 -85 c-38 -36 -175 -146 -182 -146 -30 0 143 142 182 149 2
1 2 -1 0 -3z m-5319 -150 c0 -8 -17 -28 -37 -43 -21 -15 -44 -34 -51 -41 -8
-7 -18 -10 -23 -6 -5 3 -8 1 -7 -3 3 -11 -118 -116 -144 -126 -42 -15 -8 29
76 98 27 22 65 54 85 71 73 62 101 76 101 50z m56 -151 c-8 -8 -19 -15 -25
-15 -5 0 -13 -5 -17 -12 -5 -7 -2 -9 7 -4 48 25 -129 -115 -213 -168 -30 -19
-30 -19 -20 0 17 29 77 84 172 158 47 36 90 69 95 74 17 15 18 -16 1 -33z
m4834 -45 c-71 -64 -129 -105 -137 -96 -3 3 -4 7 -2 9 2 1 31 25 63 52 110 92
169 119 76 35z m-4640 9 c0 -7 -10 -21 -22 -31 -63 -55 -106 -88 -117 -88 -6
0 -11 -4 -11 -10 0 -5 -6 -7 -14 -4 -8 3 -21 -5 -30 -17 -8 -13 -19 -20 -23
-16 -11 11 76 95 142 138 64 41 75 45 75 28z m177 -335 c-3 -3 -12 -4 -19 -1
-8 3 -5 6 6 6 11 1 17 -2 13 -5z m4033 -9 c-7 -9 -15 -13 -17 -11 -7 7 7 26
19 26 6 0 6 -6 -2 -15z m-310 -234 c0 -5 -7 -12 -16 -15 -14 -5 -15 -4 -4 9
14 17 20 19 20 6z m-1073 -337 c-3 -3 -12 -4 -19 -1 -8 3 -5 6 6 6 11 1 17 -2
13 -5z m1069 -188 c24 9 16 1 -13 -15 -21 -11 -23 -9 -23 11 0 16 3 19 8 10 5
-8 16 -10 28 -6z m-162 -160 c-6 -15 -24 -23 -24 -11 0 8 24 34 28 30 1 -1 0
-10 -4 -19z"/>
<path d="M1435 2239 c-11 -16 -1 -19 13 -3 7 8 8 14 3 14 -5 0 -13 -5 -16 -11z"/>
<path d="M960 4860 c1 -8 7 -24 15 -34 19 -25 19 -16 0 20 -8 16 -15 22 -15
14z"/>
<path d="M360 4829 c0 -5 5 -7 10 -4 6 3 10 8 10 11 0 2 -4 4 -10 4 -5 0 -10
-5 -10 -11z"/>
<path d="M394 4786 c11 -9 24 -16 30 -16 12 0 7 5 -24 19 -24 11 -24 11 -6 -3z"/>
<path d="M750 4788 c0 -11 12 -10 30 2 12 7 10 9 -8 7 -12 0 -22 -5 -22 -9z"/>
<path d="M446 4768 c3 -5 10 -6 15 -3 13 9 11 12 -6 12 -8 0 -12 -4 -9 -9z"/>
<path d="M660 4772 c0 -6 18 -16 40 -22 21 -6 42 -15 45 -20 3 -6 14 -10 23
-10 10 0 3 7 -15 16 -18 9 -30 20 -27 25 3 5 10 6 16 3 6 -4 8 -2 4 4 -3 6
-15 10 -26 9 -10 -1 -16 -5 -14 -9 8 -13 -21 -9 -34 4 -9 9 -12 9 -12 0z"/>
<path d="M418 4743 c6 -2 9 -10 6 -15 -4 -7 -2 -8 4 -4 18 11 14 26 -5 25 -11
0 -13 -3 -5 -6z"/>
<path d="M646 4732 c6 -4 16 -16 23 -27 l11 -20 -2 20 c-3 21 -16 35 -33 35
-6 0 -6 -3 1 -8z"/>
<path d="M346 4715 c4 -8 8 -15 10 -15 2 0 4 7 4 15 0 8 -4 15 -10 15 -5 0 -7
-7 -4 -15z"/>
<path d="M710 4701 c0 -15 18 -23 25 -11 4 6 12 7 18 4 7 -4 9 -3 4 1 -11 13
-47 17 -47 6z"/>
<path d="M518 4673 c7 -3 16 -2 19 1 4 3 -2 6 -13 5 -11 0 -14 -3 -6 -6z"/>
<path d="M585 4671 c-3 -5 -1 -12 5 -16 5 -3 10 1 10 9 0 18 -6 21 -15 7z"/>
<path d="M749 4654 c-11 -14 -11 -16 0 -10 8 5 16 3 22 -5 4 -7 11 -10 15 -6
4 4 1 14 -7 23 -14 13 -17 13 -30 -2z"/>
<path d="M650 4652 c0 -23 2 -27 14 -24 8 2 7 0 -1 -9 -10 -10 -15 -9 -28 1
-22 18 -19 4 5 -20 15 -15 20 -16 20 -6 0 8 7 16 16 18 13 3 13 6 -5 27 -12
13 -21 19 -21 13z"/>
<path d="M511 4634 c0 -11 3 -14 6 -6 3 7 2 16 -1 19 -3 4 -6 -2 -5 -13z"/>
<path d="M3 4585 c0 -33 2 -45 4 -27 2 18 2 45 0 60 -2 15 -4 0 -4 -33z"/>
<path d="M445 4620 c3 -5 11 -10 16 -10 6 0 7 5 4 10 -3 6 -11 10 -16 10 -6 0
-7 -4 -4 -10z"/>
<path d="M750 4620 c0 -5 5 -10 11 -10 5 0 7 5 4 10 -3 6 -8 10 -11 10 -2 0
-4 -4 -4 -10z"/>
<path d="M550 4601 c0 -11 -5 -22 -10 -24 -6 -3 -5 -4 1 -3 15 3 32 46 19 46
-6 0 -10 -9 -10 -19z"/>
<path d="M603 4592 c1 -12 6 -18 15 -15 7 3 10 9 5 12 -4 3 -11 10 -15 15 -4
4 -6 -1 -5 -12z"/>
<path d="M480 4592 c0 -5 7 -9 15 -9 8 0 15 4 15 9 0 4 -7 8 -15 8 -8 0 -15
-4 -15 -8z"/>
<path d="M575 4590 c3 -5 8 -10 11 -10 2 0 4 5 4 10 0 6 -5 10 -11 10 -5 0 -7
-4 -4 -10z"/>
<path d="M759 4591 c7 -5 10 -14 7 -20 -4 -6 0 -11 8 -11 21 0 21 26 0 34 -23
9 -31 7 -15 -3z"/>
<path d="M320 4580 c-9 -6 -10 -10 -3 -10 6 0 15 5 18 10 8 12 4 12 -15 0z"/>
<path d="M410 4581 c0 -6 4 -13 10 -16 6 -3 7 1 4 9 -7 18 -14 21 -14 7z"/>
<path d="M456 4577 c3 -10 9 -15 12 -12 3 3 0 11 -7 18 -10 9 -11 8 -5 -6z"/>
<path d="M667 4553 c5 -12 3 -14 -7 -8 -8 5 -11 4 -6 -3 4 -6 13 -9 22 -5 11
4 12 9 3 19 -15 19 -20 18 -12 -3z"/>
<path d="M713 4546 c0 -8 6 -12 14 -9 7 3 10 9 7 14 -8 14 -21 11 -21 -5z"/>
<path d="M530 4530 c0 -5 5 -10 11 -10 5 0 7 5 4 10 -3 6 -8 10 -11 10 -2 0
-4 -4 -4 -10z"/>
<path d="M9129 4497 c-79 -60 -209 -167 -209 -173 0 -3 54 37 121 88 66 51
128 99 136 105 9 7 15 15 12 17 -2 3 -29 -14 -60 -37z"/>
<path d="M361 4521 c-10 -7 -7 -9 12 -8 14 1 23 5 20 10 -6 9 -15 9 -32 -2z"/>
<path d="M606 4521 c-3 -5 1 -11 9 -14 9 -4 12 -1 8 9 -6 16 -10 17 -17 5z"/>
<path d="M753 4516 c12 -9 14 -16 7 -21 -6 -4 -18 -1 -26 6 -12 10 -17 10 -27
0 -9 -10 -8 -12 8 -9 12 2 19 -2 18 -9 -2 -7 3 -12 10 -10 7 1 11 -6 9 -16 -2
-14 1 -14 20 5 l24 23 -24 23 c-13 12 -26 22 -30 22 -4 0 1 -7 11 -14z m27
-30 c0 -3 -4 -8 -10 -11 -5 -3 -10 -1 -10 4 0 6 5 11 10 11 6 0 10 -2 10 -4z"/>
<path d="M1 4504 c0 -11 3 -14 6 -6 3 7 2 16 -1 19 -3 4 -6 -2 -5 -13z"/>
<path d="M300 4510 c-8 -5 -11 -12 -7 -16 4 -4 13 -2 19 4 15 15 7 24 -12 12z"/>
<path d="M650 4510 c-9 -6 -10 -10 -3 -10 6 0 15 5 18 10 8 12 4 12 -15 0z"/>
<path d="M556 4484 c-5 -14 -4 -15 9 -4 17 14 19 20 6 20 -5 0 -12 -7 -15 -16z"/>
<path d="M445 4474 c9 -9 19 -13 23 -10 3 4 0 11 -8 16 -24 15 -33 11 -15 -6z"/>
<path d="M498 4483 c7 -3 16 -2 19 1 4 3 -2 6 -13 5 -11 0 -14 -3 -6 -6z"/>
<path d="M9049 4473 c-13 -16 -12 -17 4 -4 9 7 17 15 17 17 0 8 -8 3 -21 -13z"/>
<path d="M2 4455 c0 -16 2 -22 5 -12 2 9 2 23 0 30 -3 6 -5 -1 -5 -18z"/>
<path d="M710 4461 c0 -10 19 -25 25 -20 1 2 -3 10 -11 17 -8 7 -14 8 -14 3z"/>
<path d="M638 4453 c7 -3 16 -2 19 1 4 3 -2 6 -13 5 -11 0 -14 -3 -6 -6z"/>
<path d="M776 4444 c-5 -14 -4 -15 9 -4 17 14 19 20 6 20 -5 0 -12 -7 -15 -16z"/>
<path d="M435 4440 c-3 -5 1 -10 10 -10 9 0 13 5 10 10 -3 6 -8 10 -10 10 -2
0 -7 -4 -10 -10z"/>
<path d="M555 4440 c3 -5 11 -10 16 -10 6 0 7 5 4 10 -3 6 -11 10 -16 10 -6 0
-7 -4 -4 -10z"/>
<path d="M276 4413 c-6 -14 -5 -15 5 -6 7 7 10 15 7 18 -3 3 -9 -2 -12 -12z"/>
<path d="M712 4414 c10 -10 20 -16 22 -13 3 3 -5 11 -17 18 -21 13 -21 12 -5
-5z"/>
<path d="M4 4170 c0 -140 2 -198 3 -127 2 70 2 184 0 255 -1 70 -3 12 -3 -128z"/>
<path d="M571 4403 c12 -15 12 -16 -3 -10 -12 4 -15 2 -11 -9 4 -11 8 -12 19
-3 11 9 11 15 3 25 -6 8 -14 14 -16 14 -3 0 1 -8 8 -17z"/>
<path d="M645 4411 c-3 -5 -2 -12 3 -15 5 -3 9 1 9 9 0 17 -3 19 -12 6z"/>
<path d="M410 4382 c0 -5 7 -9 15 -9 8 0 12 4 9 9 -3 4 -9 8 -15 8 -5 0 -9 -4
-9 -8z"/>
<path d="M602 4370 c0 -14 2 -19 5 -12 2 6 2 18 0 25 -3 6 -5 1 -5 -13z"/>
<path d="M697 4370 c-9 -11 -13 -20 -7 -20 5 0 14 9 20 20 6 11 9 20 8 20 -2
0 -11 -9 -21 -20z"/>
<path d="M530 4360 c0 -5 5 -10 10 -10 6 0 10 5 10 10 0 6 -4 10 -10 10 -5 0
-10 -4 -10 -10z"/>
<path d="M412 4321 c13 -15 25 -27 26 -25 6 4 -32 53 -41 54 -5 0 2 -13 15
-29z"/>
<path d="M205 4319 c-4 -6 -5 -12 -2 -15 2 -3 7 2 10 11 7 17 1 20 -8 4z"/>
<path d="M634 4315 c8 -8 17 -15 20 -15 3 0 3 7 0 15 -4 8 -13 15 -21 15 -12
0 -12 -2 1 -15z"/>
<path d="M1580 4326 c0 -2 8 -10 18 -17 15 -13 16 -12 3 4 -13 16 -21 21 -21
13z"/>
<path d="M8778 4222 c-149 -114 -250 -191 -350 -267 -40 -30 -93 -73 -118 -96
l-45 -41 55 42 c270 203 590 450 590 456 0 7 0 7 -132 -94z"/>
<path d="M540 4300 c-9 -6 -10 -10 -3 -10 6 0 15 5 18 10 8 12 4 12 -15 0z"/>
<path d="M400 4293 c0 -15 18 -35 23 -27 3 5 -1 15 -9 22 -8 7 -14 9 -14 5z"/>
<path d="M317 4269 c7 -7 15 -10 18 -7 3 3 -2 9 -12 12 -14 6 -15 5 -6 -5z"/>
<path d="M603 4265 c0 -8 4 -12 9 -9 5 3 6 10 3 15 -9 13 -12 11 -12 -6z"/>
<path d="M470 4256 c0 -2 7 -7 16 -10 8 -3 12 -2 9 4 -6 10 -25 14 -25 6z"/>
<path d="M531 4257 c2 -2 11 -8 20 -15 12 -9 16 -9 16 1 0 7 -9 14 -20 14 -11
1 -18 1 -16 0z"/>
<path d="M445 4229 c-3 -4 2 -6 10 -5 21 3 28 13 10 13 -9 0 -18 -4 -20 -8z"/>
<path d="M333 4208 c2 -15 0 -29 -5 -32 -5 -2 -3 -3 3 -2 16 3 20 29 7 47 -7
10 -8 6 -5 -13z"/>
<path d="M360 4200 c0 -6 7 -10 15 -10 8 0 15 2 15 4 0 2 -7 6 -15 10 -8 3
-15 1 -15 -4z"/>
<path d="M415 4201 c-3 -5 0 -13 6 -17 7 -4 9 -3 5 4 -3 5 0 13 6 15 9 4 10 6
1 6 -6 1 -14 -3 -18 -8z"/>
<path d="M550 4180 c0 -5 5 -10 11 -10 5 0 7 5 4 10 -3 6 -8 10 -11 10 -2 0
-4 -4 -4 -10z"/>
<path d="M385 4169 c-10 -15 3 -25 16 -12 7 7 7 13 1 17 -6 3 -14 1 -17 -5z"/>
<path d="M9621 4164 c0 -11 3 -14 6 -6 3 7 2 16 -1 19 -3 4 -6 -2 -5 -13z"/>
<path d="M244 4145 c-4 -11 -13 -13 -28 -9 -26 8 -20 1 14 -16 14 -7 22 -9 18
-5 -4 4 -3 16 3 26 5 11 7 19 4 19 -3 0 -8 -7 -11 -15z"/>
<path d="M301 4144 c5 -6 5 -14 1 -19 -4 -4 3 -1 16 6 28 18 28 24 -2 24 -16
0 -21 -4 -15 -11z"/>
<path d="M458 4153 c6 -2 10 -9 6 -14 -7 -12 -44 -12 -44 1 0 6 -4 10 -10 10
-21 0 -9 -19 19 -28 23 -8 32 -7 41 3 13 16 5 35 -13 34 -9 0 -8 -2 1 -6z"/>
<path d="M525 4149 c-4 -6 -5 -12 -2 -15 2 -3 7 2 10 11 7 17 1 20 -8 4z"/>
<path d="M350 4124 c0 -14 2 -15 17 -3 15 12 16 12 10 -3 -4 -12 -2 -15 9 -11
11 4 12 9 3 19 -16 19 -39 18 -39 -2z"/>
<path d="M497 4119 c7 -7 15 -10 18 -7 3 3 -2 9 -12 12 -14 6 -15 5 -6 -5z"/>
<path d="M283 4085 c-8 -17 -8 -27 -1 -32 6 -3 8 -2 5 4 -4 5 3 20 14 31 13
14 15 22 7 22 -7 0 -18 -11 -25 -25z"/>
<path d="M2570 4106 c0 -2 12 -12 28 -21 l27 -18 -19 21 c-17 20 -36 29 -36
18z"/>
<path d="M330 4090 c0 -5 5 -10 11 -10 5 0 7 5 4 10 -3 6 -8 10 -11 10 -2 0
-4 -4 -4 -10z"/>
<path d="M2655 4080 c10 -11 20 -20 23 -20 3 0 -3 9 -13 20 -10 11 -20 20 -23
20 -3 0 3 -9 13 -20z"/>
<path d="M9800 4081 c0 -6 4 -13 10 -16 6 -3 7 1 4 9 -7 18 -14 21 -14 7z"/>
<path d="M363 4065 c0 -8 4 -12 9 -9 5 3 6 10 3 15 -9 13 -12 11 -12 -6z"/>
<path d="M247 4054 c-4 -10 -9 -24 -12 -30 -3 -6 2 -14 11 -18 14 -5 15 -4 5
8 -10 11 -9 15 2 18 10 2 12 10 7 22 -7 20 -7 20 -13 0z"/>
<path d="M2729 4020 c24 -22 48 -40 54 -40 13 0 13 0 -48 44 l-50 37 44 -41z"/>
<path d="M9943 4053 c4 -3 1 -13 -6 -22 -11 -14 -10 -14 5 -2 16 12 16 31 1
31 -4 0 -3 -3 0 -7z"/>
<path d="M347 4031 c4 -3 10 -10 14 -14 3 -4 11 -2 17 5 8 10 5 13 -15 14 -13
1 -21 -1 -16 -5z"/>
<path d="M280 4020 c0 -5 5 -10 11 -10 5 0 7 5 4 10 -3 6 -8 10 -11 10 -2 0
-4 -4 -4 -10z"/>
<path d="M9805 3951 c-3 -5 -2 -12 3 -15 5 -3 9 1 9 9 0 17 -3 19 -12 6z"/>
<path d="M9820 3894 c0 -14 -2 -15 -17 -3 -16 13 -17 12 -5 -3 16 -19 43 -13
35 8 -7 19 -13 18 -13 -2z"/>
<path d="M10060 3900 c0 -5 5 -10 10 -10 6 0 10 5 10 10 0 6 -4 10 -10 10 -5
0 -10 -4 -10 -10z"/>
<path d="M360 3885 c-7 -9 -8 -15 -2 -15 5 0 12 7 16 15 3 8 4 15 2 15 -2 0
-9 -7 -16 -15z"/>
<path d="M1 3844 c0 -11 3 -14 6 -6 3 7 2 16 -1 19 -3 4 -6 -2 -5 -13z"/>
<path d="M290 3830 c0 -5 7 -7 15 -4 8 4 15 8 15 10 0 2 -7 4 -15 4 -8 0 -15
-4 -15 -10z"/>
<path d="M9835 3830 c3 -5 8 -10 11 -10 2 0 4 5 4 10 0 6 -5 10 -11 10 -5 0
-7 -4 -4 -10z"/>
<path d="M9960 3832 c0 -5 7 -9 15 -9 8 0 12 4 9 9 -3 4 -9 8 -15 8 -5 0 -9
-4 -9 -8z"/>
<path d="M805 3820 c3 -5 8 -10 11 -10 2 0 4 5 4 10 0 6 -5 10 -11 10 -5 0 -7
-4 -4 -10z"/>
<path d="M10010 3820 c0 -6 7 -13 15 -17 24 -9 27 1 5 15 -13 8 -20 8 -20 2z"/>
<path d="M2 3800 c0 -14 2 -19 5 -12 2 6 2 18 0 25 -3 6 -5 1 -5 -13z"/>
<path d="M3005 3800 c10 -11 20 -20 23 -20 3 0 -3 9 -13 20 -10 11 -20 20 -23
20 -3 0 3 -9 13 -20z"/>
<path d="M8239 3803 c-13 -16 -12 -17 4 -4 9 7 17 15 17 17 0 8 -8 3 -21 -13z"/>
<path d="M3070 3756 c14 -15 39 -37 55 -49 l30 -21 -25 28 c-14 15 -38 37 -55
49 l-30 21 25 -28z"/>
<path d="M9750 3764 c-14 -8 -18 -14 -10 -14 8 1 24 7 34 15 24 19 10 18 -24
-1z"/>
<path d="M8179 3753 c-13 -16 -12 -17 4 -4 16 13 21 21 13 21 -2 0 -10 -8 -17
-17z"/>
<path d="M9805 3759 c-4 -6 -5 -12 -2 -15 2 -3 7 2 10 11 7 17 1 20 -8 4z"/>
<path d="M4 3535 c0 -126 2 -177 3 -112 2 65 2 168 0 230 -1 62 -3 9 -3 -118z"/>
<path d="M10160 3750 c0 -5 5 -10 11 -10 5 0 7 5 4 10 -3 6 -8 10 -11 10 -2 0
-4 -4 -4 -10z"/>
<path d="M10050 3744 c0 -1 8 -8 17 -15 9 -8 14 -9 10 -2 -4 6 -1 13 5 16 7 3
3 4 -9 4 -13 -1 -23 -2 -23 -3z"/>
<path d="M1026 3693 c-6 -14 -5 -15 5 -6 7 7 10 15 7 18 -3 3 -9 -2 -12 -12z"/>
<path d="M10070 3700 c-9 -6 -10 -10 -3 -10 6 0 15 5 18 10 8 12 4 12 -15 0z"/>
<path d="M9970 3681 c0 -6 4 -13 10 -16 6 -3 7 1 4 9 -7 18 -14 21 -14 7z"/>
<path d="M8049 3653 c-13 -16 -12 -17 4 -4 16 13 21 21 13 21 -2 0 -10 -8 -17
-17z"/>
<path d="M9860 3662 c0 -6 9 -12 20 -15 11 -3 20 -3 20 -1 0 2 -9 8 -20 14
-11 6 -20 7 -20 2z"/>
<path d="M10108 3663 c7 -3 16 -2 19 1 4 3 -2 6 -13 5 -11 0 -14 -3 -6 -6z"/>
<path d="M8009 3623 c-13 -16 -12 -17 4 -4 16 13 21 21 13 21 -2 0 -10 -8 -17
-17z"/>
<path d="M9964 3628 c-4 -7 -4 -10 1 -6 4 4 15 2 24 -5 14 -11 14 -10 2 6 -16
20 -18 21 -27 5z"/>
<path d="M2510 3601 c0 -13 52 -53 59 -46 3 3 -8 17 -23 30 -32 28 -36 29 -36
16z"/>
<path d="M7969 3593 c-13 -16 -12 -17 4 -4 9 7 17 15 17 17 0 8 -8 3 -21 -13z"/>
<path d="M10145 3550 c-3 -6 1 -7 9 -4 18 7 21 14 7 14 -6 0 -13 -4 -16 -10z"/>
<path d="M10047 3539 c7 -7 15 -10 18 -7 3 3 -2 9 -12 12 -14 6 -15 5 -6 -5z"/>
<path d="M2590 3536 c0 -2 7 -9 15 -16 9 -7 15 -8 15 -2 0 5 -7 12 -15 16 -8
3 -15 4 -15 2z"/>
<path d="M3384 3521 c4 -6 16 -16 28 -22 15 -8 18 -8 14 0 -4 6 -16 16 -28 22
-15 8 -18 8 -14 0z"/>
<path d="M9865 3510 c4 -6 11 -8 16 -5 14 9 11 15 -7 15 -8 0 -12 -5 -9 -10z"/>
<path d="M9594 3499 c-5 -9 9 -13 35 -10 7 2 10 -2 6 -8 -3 -6 0 -9 8 -5 7 2
14 10 14 17 0 14 -55 19 -63 6z"/>
<path d="M9726 3467 c3 -10 9 -15 12 -12 3 3 0 11 -7 18 -10 9 -11 8 -5 -6z"/>
<path d="M9690 3450 c-9 -6 -10 -10 -3 -10 6 0 15 5 18 10 8 12 4 12 -15 0z"/>
<path d="M7739 3413 c-13 -16 -12 -17 4 -4 9 7 17 15 17 17 0 8 -8 3 -21 -13z"/>
<path d="M8662 3380 c0 -14 2 -19 5 -12 2 6 2 18 0 25 -3 6 -5 1 -5 -13z"/>
<path d="M9465 3390 c-3 -6 1 -7 9 -4 18 7 21 14 7 14 -6 0 -13 -4 -16 -10z"/>
<path d="M9555 3391 c-3 -5 0 -13 6 -17 7 -4 9 -3 5 4 -3 5 0 13 6 15 9 4 10
6 1 6 -6 1 -14 -3 -18 -8z"/>
<path d="M1435 3380 c3 -5 8 -10 11 -10 2 0 4 5 4 10 0 6 -5 10 -11 10 -5 0
-7 -4 -4 -10z"/>
<path d="M1460 3355 c0 -8 2 -15 4 -15 2 0 6 7 10 15 3 8 1 15 -4 15 -6 0 -10
-7 -10 -15z"/>
<path d="M9543 3355 c0 -8 4 -12 9 -9 5 3 6 10 3 15 -9 13 -12 11 -12 -6z"/>
<path d="M9655 3310 c3 -5 8 -10 11 -10 2 0 4 5 4 10 0 6 -5 10 -11 10 -5 0
-7 -4 -4 -10z"/>
<path d="M9470 3306 c0 -2 7 -7 16 -10 8 -3 12 -2 9 4 -6 10 -25 14 -25 6z"/>
<path d="M9565 3300 c-3 -5 -1 -10 4 -10 6 0 11 5 11 10 0 6 -2 10 -4 10 -3 0
-8 -4 -11 -10z"/>
<path d="M10070 3300 c0 -5 5 -10 11 -10 5 0 7 5 4 10 -3 6 -8 10 -11 10 -2 0
-4 -4 -4 -10z"/>
<path d="M9370 3241 c0 -6 4 -13 10 -16 6 -3 7 1 4 9 -7 18 -14 21 -14 7z"/>
<path d="M9975 3240 c3 -5 8 -10 11 -10 2 0 4 5 4 10 0 6 -5 10 -11 10 -5 0
-7 -4 -4 -10z"/>
<path d="M1 3184 c0 -11 3 -14 6 -6 3 7 2 16 -1 19 -3 4 -6 -2 -5 -13z"/>
<path d="M9980 3180 c0 -5 5 -10 11 -10 5 0 7 5 4 10 -3 6 -8 10 -11 10 -2 0
-4 -4 -4 -10z"/>
<path d="M10047 3170 c7 -7 22 -14 33 -15 16 -1 17 1 8 13 -9 10 -13 11 -16 3
-3 -9 -8 -9 -20 1 -14 10 -15 10 -5 -2z"/>
<path d="M10030 3140 c0 -5 5 -10 11 -10 5 0 7 5 4 10 -3 6 -8 10 -11 10 -2 0
-4 -4 -4 -10z"/>
<path d="M8306 3108 c3 -4 9 -8 15 -8 5 0 9 4 9 8 0 5 -7 9 -15 9 -8 0 -12 -4
-9 -9z"/>
<path d="M10105 3110 c3 -5 8 -10 11 -10 2 0 4 5 4 10 0 6 -5 10 -11 10 -5 0
-7 -4 -4 -10z"/>
<path d="M3220 3106 c0 -2 8 -10 18 -17 15 -13 16 -12 3 4 -13 16 -21 21 -21
13z"/>
<path d="M9952 3084 c10 -10 20 -15 24 -12 3 4 -5 12 -18 18 -22 12 -22 12 -6
-6z"/>
<path d="M2 3060 c0 -14 2 -19 5 -12 2 6 2 18 0 25 -3 6 -5 1 -5 -13z"/>
<path d="M3275 3060 c10 -11 20 -20 23 -20 3 0 -3 9 -13 20 -10 11 -20 20 -23
20 -3 0 3 -9 13 -20z"/>
<path d="M3325 3020 c25 -28 145 -121 126 -97 -7 10 -43 40 -80 69 -36 28 -57
41 -46 28z"/>
<path d="M10145 3020 c-3 -5 -1 -10 4 -10 6 0 11 5 11 10 0 6 -2 10 -4 10 -3
0 -8 -4 -11 -10z"/>
<path d="M9175 3010 c3 -5 11 -10 16 -10 6 0 7 5 4 10 -3 6 -11 10 -16 10 -6
0 -7 -4 -4 -10z"/>
<path d="M9536 3003 c-6 -14 -5 -15 5 -6 7 7 10 15 7 18 -3 3 -9 -2 -12 -12z"/>
<path d="M9330 2980 c0 -5 5 -10 11 -10 5 0 7 5 4 10 -3 6 -8 10 -11 10 -2 0
-4 -4 -4 -10z"/>
<path d="M10020 2950 c0 -5 5 -10 10 -10 6 0 10 5 10 10 0 6 -4 10 -10 10 -5
0 -10 -4 -10 -10z"/>
<path d="M3485 2890 c10 -11 20 -20 23 -20 3 0 -3 9 -13 20 -10 11 -20 20 -23
20 -3 0 3 -9 13 -20z"/>
<path d="M9685 2880 c-3 -5 -1 -10 4 -10 6 0 11 5 11 10 0 6 -2 10 -4 10 -3 0
-8 -4 -11 -10z"/>
<path d="M9505 2870 c-3 -6 1 -7 9 -4 18 7 21 14 7 14 -6 0 -13 -4 -16 -10z"/>
<path d="M6930 2860 c0 -5 5 -10 10 -10 6 0 10 5 10 10 0 6 -4 10 -10 10 -5 0
-10 -4 -10 -10z"/>
<path d="M6873 2823 l10 -33 17 25 c9 14 20 22 24 18 4 -4 4 0 0 10 -4 11 -16
16 -34 15 -26 -2 -26 -3 -17 -35z m27 7 c0 -5 -4 -10 -10 -10 -5 0 -10 5 -10
10 0 6 5 10 10 10 6 0 10 -4 10 -10z"/>
<path d="M1 2834 c0 -11 3 -14 6 -6 3 7 2 16 -1 19 -3 4 -6 -2 -5 -13z"/>
<path d="M9480 2840 c0 -5 5 -10 11 -10 5 0 7 5 4 10 -3 6 -8 10 -11 10 -2 0
-4 -4 -4 -10z"/>
<path d="M10192 2834 c10 -10 20 -16 22 -13 3 3 -5 11 -17 18 -21 13 -21 12
-5 -5z"/>
<path d="M9580 2810 c0 -5 5 -10 11 -10 5 0 7 5 4 10 -3 6 -8 10 -11 10 -2 0
-4 -4 -4 -10z"/>
<path d="M10010 2796 c0 -2 7 -7 16 -10 8 -3 12 -2 9 4 -6 10 -25 14 -25 6z"/>
<path d="M6840 2772 c0 -12 3 -12 15 -2 8 7 15 13 15 15 0 1 -7 2 -15 2 -8 0
-15 -7 -15 -15z"/>
<path d="M9080 2780 c0 -5 5 -10 11 -10 5 0 7 5 4 10 -3 6 -8 10 -11 10 -2 0
-4 -4 -4 -10z"/>
<path d="M6794 2728 l-29 -33 33 29 c17 17 32 31 32 33 0 8 -8 1 -36 -29z"/>
<path d="M9500 2741 c0 -5 5 -13 10 -16 6 -3 10 -2 10 4 0 5 -4 13 -10 16 -5
3 -10 2 -10 -4z"/>
<path d="M1 2694 c0 -11 3 -14 6 -6 3 7 2 16 -1 19 -3 4 -6 -2 -5 -13z"/>
<path d="M3 2610 c0 -30 2 -43 4 -27 2 15 2 39 0 55 -2 15 -4 2 -4 -28z"/>
<path d="M2 2490 c0 -14 2 -19 5 -12 2 6 2 18 0 25 -3 6 -5 1 -5 -13z"/>
<path d="M3 2410 c0 -30 2 -43 4 -27 2 15 2 39 0 55 -2 15 -4 2 -4 -28z"/>
<path d="M3 2105 c0 -27 2 -38 4 -22 2 15 2 37 0 50 -2 12 -4 0 -4 -28z"/>
<path d="M5270 2064 c-105 -20 -171 -69 -183 -135 -4 -19 -5 -68 -4 -109 2
-86 15 -110 88 -159 65 -45 108 -55 176 -41 42 9 66 22 100 53 54 50 68 75 83
153 20 99 -11 174 -89 213 -38 20 -128 32 -171 25z m135 -99 c60 -27 87 -57
92 -108 5 -43 3 -49 -26 -76 -55 -51 -178 -79 -246 -55 -21 7 -53 27 -71 45
-28 27 -34 40 -34 76 0 24 5 43 10 43 6 0 10 8 10 18 0 20 63 60 114 73 38 9
111 2 151 -16z"/>
<path d="M4 1875 c0 -88 2 -123 3 -77 2 46 2 118 0 160 -1 42 -3 5 -3 -83z"/>
<path d="M2137 1678 c-21 -22 -21 -23 10 -32 21 -7 43 15 43 43 0 18 -34 11
-53 -11z"/>
<path d="M4 1470 c0 -91 2 -128 3 -82 2 45 2 119 0 165 -1 45 -3 8 -3 -83z"/>
<path d="M550 1259 c0 -5 5 -7 10 -4 6 3 10 8 10 11 0 2 -4 4 -10 4 -5 0 -10
-5 -10 -11z"/>
<path d="M870 1225 c-14 -16 -10 -18 14 -9 9 3 16 10 16 15 0 14 -16 11 -30
-6z"/>
<path d="M2 1170 c0 -19 2 -27 5 -17 2 9 2 25 0 35 -3 9 -5 1 -5 -18z"/>
<path d="M1055 1190 c3 -5 8 -10 11 -10 2 0 4 5 4 10 0 6 -5 10 -11 10 -5 0
-7 -4 -4 -10z"/>
<path d="M720 1110 c0 -5 5 -10 11 -10 5 0 7 5 4 10 -3 6 -8 10 -11 10 -2 0
-4 -4 -4 -10z"/>
<path d="M626 1029 c-15 -17 -26 -32 -24 -35 9 -9 38 8 38 23 0 8 4 12 9 8 6
-3 15 4 21 15 17 31 -10 25 -44 -11z"/>
<path d="M545 959 c-10 -15 3 -25 16 -12 7 7 7 13 1 17 -6 3 -14 1 -17 -5z"/>
<path d="M4 330 c-1 -184 2 -317 6 -295 l7 40 2 -37 c0 -21 5 -38 11 -38 5 0
8 10 6 22 -3 13 -5 59 -7 103 -1 45 -4 69 -8 55 -3 -14 -8 90 -11 230 l-6 255
0 -335z"/>
<path d="M22 230 c0 -14 2 -19 5 -12 2 6 2 18 0 25 -3 6 -5 1 -5 -13z"/>
</g>
</svg>
